ComicNeue_Light_Oblique.ufo
<glyph name="dollar" format="1">
  <advance width="594"/>
  <unicode hex="0024"/>
  <outline>
    <contour>
      <point x="142" y="154" type="curve" smooth="yes"/>
      <point x="153" y="80"/>
      <point x="225" y="43"/>
      <point x="301" y="34" type="curve"/>
      <point x="368" y="349" type="line"/>
      <point x="288.351" y="376.153"/>
      <point x="210.34" y="421.329"/>
      <point x="210.34" y="496.392" type="curve" smooth="yes"/>
      <point x="210.34" y="504.261"/>
      <point x="211.197" y="512.46"/>
      <point x="213" y="521" type="curve" smooth="yes"/>
      <point x="237" y="633"/>
      <point x="345" y="679"/>
      <point x="440" y="687" type="curve"/>
      <point x="451" y="743" type="line"/>
      <point x="454" y="753"/>
      <point x="463" y="762"/>
      <point x="473" y="762" type="curve" smooth="yes"/>
      <point x="483" y="762"/>
      <point x="490" y="753"/>
      <point x="487" y="743" type="curve"/>
      <point x="476" y="688" type="line"/>
      <point x="559.993" y="688"/>
      <point x="659.822" y="659.661"/>
      <point x="659.822" y="578.632" type="curve" smooth="yes"/>
      <point x="659.822" y="570.907"/>
      <point x="658.915" y="562.704"/>
      <point x="657" y="554" type="curve"/>
      <point x="656" y="546"/>
      <point x="647" y="539"/>
      <point x="637" y="539" type="curve" smooth="yes"/>
      <point x="627" y="539"/>
      <point x="620" y="546"/>
      <point x="620" y="554" type="curve" smooth="yes"/>
      <point x="623" y="637"/>
      <point x="519" y="658"/>
      <point x="469" y="658" type="curve"/>
      <point x="410" y="380" type="line"/>
      <point x="524.185" y="345.479"/>
      <point x="585.092" y="289.803"/>
      <point x="585.092" y="217.827" type="curve" smooth="yes"/>
      <point x="585.092" y="208.489"/>
      <point x="584.067" y="198.876"/>
      <point x="582" y="189" type="curve" smooth="yes"/>
      <point x="559" y="83"/>
      <point x="458" y="16"/>
      <point x="330" y="0" type="curve"/>
      <point x="317" y="-58" type="line" smooth="yes"/>
      <point x="315" y="-69"/>
      <point x="305" y="-77"/>
      <point x="295" y="-77" type="curve" smooth="yes"/>
      <point x="285" y="-77"/>
      <point x="279" y="-69"/>
      <point x="281" y="-58" type="curve" smooth="yes"/>
      <point x="293" y="-1" type="line"/>
      <point x="187" y="7"/>
      <point x="110" y="61"/>
      <point x="98" y="142" type="curve" smooth="yes"/>
      <point x="98" y="146"/>
      <point x="97" y="150"/>
      <point x="98" y="154" type="curve" smooth="yes"/>
      <point x="100" y="160"/>
      <point x="110" y="172"/>
      <point x="124" y="172" type="curve" smooth="yes"/>
      <point x="133" y="172"/>
      <point x="140" y="165"/>
    </contour>
    <contour>
      <point x="258" y="518" type="curve" smooth="yes"/>
      <point x="256.812" y="512.494"/>
      <point x="256.219" y="507.093"/>
      <point x="256.219" y="501.796" type="curve" smooth="yes"/>
      <point x="256.219" y="458.025"/>
      <point x="296.716" y="421.329"/>
      <point x="377" y="391" type="curve"/>
      <point x="433" y="655" type="line"/>
      <point x="308" y="638"/>
      <point x="269" y="573"/>
    </contour>
    <contour>
      <point x="402" y="339" type="curve"/>
      <point x="337" y="34" type="line"/>
      <point x="416" y="41"/>
      <point x="515" y="83"/>
      <point x="539" y="195" type="curve" smooth="yes"/>
      <point x="540.323" y="200.86"/>
      <point x="541.468" y="207.863"/>
      <point x="541.468" y="215.706" type="curve" smooth="yes"/>
      <point x="541.468" y="249.353"/>
      <point x="520.402" y="298.451"/>
    </contour>
  </outline>
</glyph>
<glyph name="percent" format="1">
  <advance width="718"/>
  <unicode hex="0025"/>
  <outline>
    <contour>
      <point x="286" y="440" type="curve" smooth="yes"/>
      <point x="223.049" y="440"/>
      <point x="179.209" y="485.102"/>
      <point x="179.209" y="544.56" type="curve" smooth="yes"/>
      <point x="179.209" y="553.107"/>
      <point x="180.115" y="561.951"/>
      <point x="182" y="571" type="curve" smooth="yes"/>
      <point x="197" y="643"/>
      <point x="270" y="702"/>
      <point x="342" y="702" type="curve" smooth="yes"/>
      <point x="404.811" y="702"/>
      <point x="447.835" y="657.099"/>
      <point x="447.835" y="597.836" type="curve" smooth="yes"/>
      <point x="447.835" y="589.166"/>
      <point x="446.914" y="580.189"/>
      <point x="445" y="571" type="curve" smooth="yes"/>
      <point x="430" y="499"/>
      <point x="358" y="440"/>
    </contour>
    <contour>
      <point x="334" y="667" type="curve" smooth="yes"/>
      <point x="282" y="667"/>
      <point x="229" y="623"/>
      <point x="218" y="571" type="curve" smooth="yes"/>
      <point x="216.4" y="563.8"/>
      <point x="215.636" y="556.813"/>
      <point x="215.636" y="550.111" type="curve" smooth="yes"/>
      <point x="215.636" y="506.547"/>
      <point x="247.933" y="475"/>
      <point x="293" y="475" type="curve" smooth="yes"/>
      <point x="345" y="475"/>
      <point x="398" y="517"/>
      <point x="410" y="571" type="curve" smooth="yes"/>
      <point x="411.369" y="577.471"/>
      <point x="412.025" y="583.819"/>
      <point x="412.025" y="589.973" type="curve" smooth="yes"/>
      <point x="412.025" y="633.27"/>
      <point x="379.529" y="667"/>
    </contour>
    <contour>
      <point x="530" y="-8" type="curve" smooth="yes"/>
      <point x="468.262" y="-8"/>
      <point x="423.915" y="36.6108"/>
      <point x="423.915" y="95.5884" type="curve" smooth="yes"/>
      <point x="423.915" y="104.436"/>
      <point x="424.913" y="113.608"/>
      <point x="427" y="123" type="curve" smooth="yes"/>
      <point x="442" y="195"/>
      <point x="514" y="254"/>
      <point x="585" y="254" type="curve" smooth="yes"/>
      <point x="648.087" y="254"/>
      <point x="692.748" y="208.703"/>
      <point x="692.748" y="149.054" type="curve" smooth="yes"/>
      <point x="692.748" y="140.627"/>
      <point x="691.857" y="131.913"/>
      <point x="690" y="123" type="curve" smooth="yes"/>
      <point x="674" y="51"/>
      <point x="602" y="-8"/>
    </contour>
    <contour>
      <point x="578" y="219" type="curve" smooth="yes"/>
      <point x="526" y="219"/>
      <point x="474" y="175"/>
      <point x="463" y="123" type="curve" smooth="yes"/>
      <point x="461.367" y="115.652"/>
      <point x="460.586" y="108.527"/>
      <point x="460.586" y="101.699" type="curve" smooth="yes"/>
      <point x="460.586" y="58.3478"/>
      <point x="492.076" y="27"/>
      <point x="537" y="27" type="curve" smooth="yes"/>
      <point x="590" y="27"/>
      <point x="642" y="69"/>
      <point x="654" y="123" type="curve" smooth="yes"/>
      <point x="655.396" y="129.597"/>
      <point x="656.067" y="136.066"/>
      <point x="656.067" y="142.332" type="curve" smooth="yes"/>
      <point x="656.067" y="185.457"/>
      <point x="624.276" y="219"/>
    </contour>
    <contour>
      <point x="707" y="674" type="curve" smooth="yes"/>
      <point x="196" y="8" type="line" smooth="yes"/>
      <point x="192" y="3"/>
      <point x="186" y="0"/>
      <point x="180" y="0" type="curve" smooth="yes"/>
      <point x="171" y="0"/>
      <point x="166" y="7"/>
      <point x="168" y="15" type="curve" smooth="yes"/>
      <point x="168" y="17"/>
      <point x="170" y="22"/>
      <point x="174" y="27" type="curve" smooth="yes"/>
      <point x="682" y="690" type="line" smooth="yes"/>
      <point x="686" y="696"/>
      <point x="691" y="698"/>
      <point x="697" y="698" type="curve" smooth="yes"/>
      <point x="706" y="698"/>
      <point x="712" y="691"/>
      <point x="710" y="682" type="curve" smooth="yes"/>
      <point x="710" y="679"/>
      <point x="708" y="676"/>
    </contour>
  </outline>
</glyph>
<glyph name="quotesingle" format="1">
  <advance width="179"/>
  <unicode hex="0027"/>
  <outline>
    <contour>
      <point x="203" y="521" type="curve" smooth="yes"/>
      <point x="213" y="521"/>
      <point x="224" y="529"/>
      <point x="226" y="540" type="curve" smooth="yes"/>
      <point x="256" y="679" type="line" smooth="yes"/>
      <point x="258" y="690"/>
      <point x="251" y="698"/>
      <point x="241" y="698" type="curve" smooth="yes"/>
      <point x="231" y="698"/>
      <point x="220" y="690"/>
      <point x="218" y="679" type="curve" smooth="yes"/>
      <point x="188" y="540" type="line" smooth="yes"/>
      <point x="186" y="529"/>
      <point x="193" y="521"/>
    </contour>
  </outline>
</glyph>
<glyph name="parenleft" format="1">
  <advance width="359"/>
  <unicode hex="0028"/>
  <outline>
    <contour>
      <point x="224" y="-104" type="curve"/>
      <point x="228" y="-108"/>
      <point x="233" y="-113"/>
      <point x="240" y="-113" type="curve" smooth="yes"/>
      <point x="249" y="-113"/>
      <point x="260" y="-104"/>
      <point x="262" y="-95" type="curve" smooth="yes"/>
      <point x="263" y="-90"/>
      <point x="263" y="-84"/>
      <point x="259" y="-80" type="curve" smooth="yes"/>
      <point x="257" y="-77"/>
      <point x="127" y="97"/>
      <point x="182" y="355" type="curve" smooth="yes"/>
      <point x="237" y="612"/>
      <point x="450" y="771"/>
      <point x="455" y="775" type="curve" smooth="yes"/>
      <point x="460" y="779"/>
      <point x="463" y="784"/>
      <point x="464" y="789" type="curve" smooth="yes"/>
      <point x="466" y="799"/>
      <point x="460" y="808"/>
      <point x="450" y="808" type="curve" smooth="yes"/>
      <point x="444" y="808"/>
      <point x="436" y="802"/>
      <point x="431" y="798" type="curve" smooth="yes"/>
      <point x="297" y="687"/>
      <point x="179" y="522"/>
      <point x="144" y="355" type="curve" smooth="yes"/>
      <point x="92" y="109"/>
      <point x="198" y="-62"/>
    </contour>
  </outline>
</glyph>
<glyph name="parenright" format="1">
  <advance width="359"/>
  <unicode hex="0029"/>
  <outline>
    <contour>
      <point x="96" y="-104" type="curve" smooth="yes"/>
      <point x="92" y="-108"/>
      <point x="83" y="-113"/>
      <point x="76" y="-113" type="curve" smooth="yes"/>
      <point x="67" y="-113"/>
      <point x="60" y="-104"/>
      <point x="62" y="-95" type="curve" smooth="yes"/>
      <point x="63" y="-90"/>
      <point x="67" y="-84"/>
      <point x="71" y="-80" type="curve" smooth="yes"/>
      <point x="75" y="-77"/>
      <point x="279" y="97"/>
      <point x="334" y="355" type="curve" smooth="yes"/>
      <point x="342.654" y="395.437"/>
      <point x="346.307" y="433.447"/>
      <point x="346.307" y="468.809" type="curve" smooth="yes"/>
      <point x="346.307" y="658.197"/>
      <point x="241.528" y="771.629"/>
      <point x="239" y="775" type="curve" smooth="yes"/>
      <point x="236" y="779"/>
      <point x="235" y="784"/>
      <point x="236" y="789" type="curve" smooth="yes"/>
      <point x="238" y="799"/>
      <point x="248" y="808"/>
      <point x="258" y="808" type="curve" smooth="yes"/>
      <point x="264" y="808"/>
      <point x="270" y="802"/>
      <point x="273" y="798" type="curve" smooth="yes"/>
      <point x="340.88" y="712.378"/>
      <point x="383.77" y="594.626"/>
      <point x="383.77" y="468.61" type="curve" smooth="yes"/>
      <point x="383.77" y="431.259"/>
      <point x="380.002" y="393.182"/>
      <point x="372" y="355" type="curve" smooth="yes"/>
      <point x="320" y="109"/>
      <point x="140" y="-62"/>
    </contour>
  </outline>
</glyph>
<glyph name="period" format="1">
  <advance width="204"/>
  <unicode hex="002E"/>
  <outline>
    <contour>
      <point x="99" y="0" type="curve" smooth="yes"/>
      <point x="88.2837" y="-3.55271e-15"/>
      <point x="80.965" y="9.51334"/>
      <point x="80.965" y="21.258" type="curve" smooth="yes"/>
      <point x="80.965" y="23.7608"/>
      <point x="81.2973" y="26.365"/>
      <point x="82" y="29" type="curve" smooth="yes"/>
      <point x="86" y="48"/>
      <point x="105" y="66"/>
      <point x="121" y="66" type="curve" smooth="yes"/>
      <point x="131.988" y="66"/>
      <point x="138.689" y="56.7131"/>
      <point x="138.689" y="45.3849" type="curve" smooth="yes"/>
      <point x="138.689" y="43.3102"/>
      <point x="138.464" y="41.1671"/>
      <point x="138" y="39" type="curve" smooth="yes"/>
      <point x="133" y="18"/>
      <point x="116" y="0"/>
    </contour>
  </outline>
</glyph>
<glyph name="zero" format="1">
  <advance width="604"/>
  <unicode hex="0030"/>
  <outline>
    <contour>
      <point x="296" y="-3" type="curve" smooth="yes"/>
      <point x="432" y="-3"/>
      <point x="581" y="166"/>
      <point x="623" y="363" type="curve" smooth="yes"/>
      <point x="660" y="541"/>
      <point x="599" y="694"/>
      <point x="468" y="694" type="curve" smooth="yes"/>
      <point x="328" y="694"/>
      <point x="181" y="521"/>
      <point x="140" y="327" type="curve" smooth="yes"/>
      <point x="103" y="151"/>
      <point x="165" y="-3"/>
    </contour>
    <contour>
      <point x="460" y="658" type="curve" smooth="yes"/>
      <point x="569" y="658"/>
      <point x="621" y="517"/>
      <point x="588" y="361" type="curve" smooth="yes"/>
      <point x="550" y="182"/>
      <point x="418" y="33"/>
      <point x="304" y="33" type="curve" smooth="yes"/>
      <point x="191" y="33"/>
      <point x="143" y="175"/>
      <point x="175" y="329" type="curve"/>
      <point x="214" y="509"/>
      <point x="345" y="658"/>
    </contour>
  </outline>
</glyph>
<glyph name="two" format="1">
  <advance width="518"/>
  <unicode hex="0032"/>
  <outline>
    <contour>
      <point x="226" y="568" type="curve" smooth="yes"/>
      <point x="218" y="560"/>
      <point x="211" y="551"/>
      <point x="201" y="551" type="curve" smooth="yes"/>
      <point x="190" y="551"/>
      <point x="184" y="562"/>
      <point x="186" y="571" type="curve" smooth="yes"/>
      <point x="187" y="578"/>
      <point x="194" y="587"/>
      <point x="219" y="606" type="curve" smooth="yes"/>
      <point x="262" y="641"/>
      <point x="332" y="685"/>
      <point x="416" y="685" type="curve" smooth="yes"/>
      <point x="510.844" y="685"/>
      <point x="569.442" y="627.159"/>
      <point x="569.442" y="551.435" type="curve" smooth="yes"/>
      <point x="569.442" y="540.932"/>
      <point x="568.314" y="530.085"/>
      <point x="566" y="519" type="curve" smooth="yes"/>
      <point x="541" y="403"/>
      <point x="448" y="353"/>
      <point x="350" y="299" type="curve"/>
      <point x="253" y="243"/>
      <point x="155" y="181"/>
      <point x="116" y="36" type="curve"/>
      <point x="454" y="36" type="line" smooth="yes"/>
      <point x="464" y="36"/>
      <point x="471" y="28"/>
      <point x="469" y="18" type="curve" smooth="yes"/>
      <point x="467" y="8"/>
      <point x="457" y="0"/>
      <point x="447" y="0" type="curve" smooth="yes"/>
      <point x="71" y="0" type="line"/>
      <point x="74" y="18" type="line"/>
      <point x="112" y="197"/>
      <point x="227" y="269"/>
      <point x="341" y="334" type="curve" smooth="yes"/>
      <point x="431" y="386"/>
      <point x="510" y="429"/>
      <point x="529" y="519" type="curve" smooth="yes"/>
      <point x="530.894" y="527.761"/>
      <point x="531.807" y="536.241"/>
      <point x="531.807" y="544.385" type="curve" smooth="yes"/>
      <point x="531.807" y="605.029"/>
      <point x="481.174" y="647"/>
      <point x="408" y="647" type="curve" smooth="yes"/>
      <point x="314" y="647"/>
      <point x="235" y="576"/>
    </contour>
  </outline>
</glyph>
<glyph name="four" format="1">
  <advance width="498"/>
  <unicode hex="0034"/>
  <outline>
    <contour>
      <point x="105" y="206" type="curve" smooth="yes"/>
      <point x="496" y="684" type="line" smooth="yes"/>
      <point x="500" y="689"/>
      <point x="506" y="692"/>
      <point x="512" y="692" type="curve" smooth="yes"/>
      <point x="523" y="692"/>
      <point x="531" y="684"/>
      <point x="529" y="673" type="curve" smooth="yes"/>
      <point x="430" y="209" type="line"/>
      <point x="475" y="208" type="line" smooth="yes"/>
      <point x="487" y="208"/>
      <point x="492" y="200"/>
      <point x="490" y="190" type="curve" smooth="yes"/>
      <point x="488" y="179"/>
      <point x="478" y="171"/>
      <point x="467" y="171" type="curve" smooth="yes"/>
      <point x="422" y="172" type="line"/>
      <point x="389" y="18" type="line" smooth="yes"/>
      <point x="387" y="7"/>
      <point x="376" y="-1"/>
      <point x="366" y="-1" type="curve" smooth="yes"/>
      <point x="355" y="-1"/>
      <point x="349" y="7"/>
      <point x="351" y="18" type="curve" smooth="yes"/>
      <point x="384" y="173" type="line"/>
      <point x="110" y="177" type="line" smooth="yes"/>
      <point x="98" y="177"/>
      <point x="96" y="186"/>
      <point x="97" y="192" type="curve" smooth="yes"/>
      <point x="98" y="197"/>
      <point x="101" y="200"/>
    </contour>
    <contour>
      <point x="476" y="606" type="line"/>
      <point x="155" y="214" type="line"/>
      <point x="392" y="210" type="line"/>
    </contour>
  </outline>
</glyph>
<glyph name="six" format="1">
  <advance width="536"/>
  <unicode hex="0036"/>
  <outline>
    <contour>
      <point x="171" y="326" type="curve"/>
      <point x="161" y="301"/>
      <point x="155" y="274"/>
      <point x="149" y="247" type="curve" smooth="yes"/>
      <point x="142.884" y="218.353"/>
      <point x="140.11" y="193.331"/>
      <point x="140.11" y="171.511" type="curve" smooth="yes"/>
      <point x="140.11" y="57.7528"/>
      <point x="215.519" y="31"/>
      <point x="286" y="31" type="curve" smooth="yes"/>
      <point x="333" y="31"/>
      <point x="460" y="69"/>
      <point x="497" y="242" type="curve" smooth="yes"/>
      <point x="500.807" y="260.201"/>
      <point x="502.519" y="276.407"/>
      <point x="502.519" y="290.834" type="curve" smooth="yes"/>
      <point x="502.519" y="397.685"/>
      <point x="408.598" y="407"/>
      <point x="376" y="407" type="curve" smooth="yes"/>
      <point x="270" y="406"/>
      <point x="194" y="347"/>
    </contour>
    <contour>
      <point x="480" y="685" type="curve" smooth="yes"/>
      <point x="487" y="688"/>
      <point x="491" y="689"/>
      <point x="496" y="689" type="curve" smooth="yes"/>
      <point x="505" y="689"/>
      <point x="511" y="681"/>
      <point x="509" y="672" type="curve" smooth="yes"/>
      <point x="508" y="665"/>
      <point x="502" y="659"/>
      <point x="496" y="656" type="curve" smooth="yes"/>
      <point x="380" y="605"/>
      <point x="261" y="501"/>
      <point x="191" y="377" type="curve"/>
      <point x="241" y="413"/>
      <point x="320" y="442"/>
      <point x="383" y="442" type="curve" smooth="yes"/>
      <point x="472.24" y="442"/>
      <point x="536.198" y="392.159"/>
      <point x="536.198" y="296.775" type="curve" smooth="yes"/>
      <point x="536.198" y="279.929"/>
      <point x="534.203" y="261.663"/>
      <point x="530" y="242" type="curve" smooth="yes"/>
      <point x="487" y="40"/>
      <point x="332" y="-3"/>
      <point x="279" y="-3" type="curve" smooth="yes"/>
      <point x="190.322" y="-3"/>
      <point x="105.923" y="39.7964"/>
      <point x="105.923" y="167.557" type="curve" smooth="yes"/>
      <point x="105.923" y="191.072"/>
      <point x="108.782" y="217.465"/>
      <point x="115" y="247" type="curve" smooth="yes"/>
      <point x="178" y="545"/>
      <point x="428" y="661"/>
    </contour>
  </outline>
</glyph>
<glyph name="seven" format="1">
  <advance width="491"/>
  <unicode hex="0037"/>
  <outline>
    <contour>
      <point x="614" y="649" type="line" smooth="yes"/>
      <point x="616" y="652"/>
      <point x="618" y="654"/>
      <point x="618" y="658" type="curve"/>
      <point x="620" y="668"/>
      <point x="614" y="677"/>
      <point x="603" y="677" type="curve" smooth="yes"/>
      <point x="228" y="677" type="line" smooth="yes"/>
      <point x="218" y="677"/>
      <point x="208" y="669"/>
      <point x="206" y="659" type="curve" smooth="yes"/>
      <point x="203" y="648"/>
      <point x="211" y="640"/>
      <point x="221" y="640" type="curve" smooth="yes"/>
      <point x="566" y="640" type="line"/>
      <point x="127" y="28" type="line" smooth="yes"/>
      <point x="126" y="26"/>
      <point x="124" y="23"/>
      <point x="124" y="20" type="curve"/>
      <point x="121" y="9"/>
      <point x="128" y="1"/>
      <point x="138" y="1" type="curve" smooth="yes"/>
      <point x="145" y="1"/>
      <point x="152" y="4"/>
      <point x="157" y="10" type="curve" smooth="yes"/>
    </contour>
  </outline>
</glyph>
<glyph name="eight" format="1">
  <advance width="537"/>
  <unicode hex="0038"/>
  <outline>
    <contour>
      <point x="272" y="-3" type="curve" smooth="yes"/>
      <point x="167.65" y="-3"/>
      <point x="100.978" y="55.4395"/>
      <point x="100.978" y="139.279" type="curve" smooth="yes"/>
      <point x="100.978" y="151.049"/>
      <point x="102.292" y="163.32"/>
      <point x="105" y="176" type="curve"/>
      <point x="131" y="280"/>
      <point x="224" y="337"/>
      <point x="306" y="373" type="curve"/>
      <point x="253.525" y="398.363"/>
      <point x="210.228" y="435.964"/>
      <point x="210.228" y="494.501" type="curve" smooth="yes"/>
      <point x="210.228" y="502.895"/>
      <point x="211.119" y="511.719"/>
      <point x="213" y="521" type="curve" smooth="yes"/>
      <point x="236" y="629"/>
      <point x="333" y="694"/>
      <point x="431" y="694" type="curve" smooth="yes"/>
      <point x="520.218" y="694"/>
      <point x="576.537" y="644.271"/>
      <point x="576.537" y="570.91" type="curve" smooth="yes"/>
      <point x="576.537" y="560.4"/>
      <point x="575.381" y="549.404"/>
      <point x="573" y="538" type="curve" smooth="yes"/>
      <point x="556" y="461"/>
      <point x="484" y="413"/>
      <point x="412" y="380" type="curve"/>
      <point x="480.657" y="341.01"/>
      <point x="519.857" y="285.495"/>
      <point x="519.857" y="221.981" type="curve" smooth="yes"/>
      <point x="519.857" y="210.563"/>
      <point x="518.59" y="198.886"/>
      <point x="516" y="187" type="curve" smooth="yes"/>
      <point x="493" y="78"/>
      <point x="389" y="-3"/>
    </contour>
    <contour>
      <point x="361" y="357" type="curve"/>
      <point x="271" y="322"/>
      <point x="165" y="286"/>
      <point x="141" y="170" type="curve" smooth="yes"/>
      <point x="139.108" y="161.098"/>
      <point x="138.195" y="152.48"/>
      <point x="138.195" y="144.194" type="curve" smooth="yes"/>
      <point x="138.195" y="78.0201"/>
      <point x="196.46" y="33"/>
      <point x="280" y="33" type="curve" smooth="yes"/>
      <point x="359" y="33"/>
      <point x="459" y="80"/>
      <point x="480" y="183" type="curve" smooth="yes"/>
      <point x="482.439" y="194.463"/>
      <point x="483.584" y="205.362"/>
      <point x="483.584" y="215.706" type="curve" smooth="yes"/>
      <point x="483.584" y="290.183"/>
      <point x="424.22" y="335.927"/>
    </contour>
    <contour>
      <point x="424" y="656" type="curve" smooth="yes"/>
      <point x="364" y="656"/>
      <point x="270" y="624"/>
      <point x="249" y="525" type="curve" smooth="yes"/>
      <point x="247.204" y="516.294"/>
      <point x="246.285" y="508.065"/>
      <point x="246.285" y="500.275" type="curve" smooth="yes"/>
      <point x="246.285" y="451.688"/>
      <point x="281.99" y="420.131"/>
      <point x="363" y="396" type="curve"/>
      <point x="491" y="442"/>
      <point x="527" y="490"/>
      <point x="538" y="544" type="curve" smooth="yes"/>
      <point x="539.743" y="552.132"/>
      <point x="540.581" y="559.886"/>
      <point x="540.581" y="567.24" type="curve" smooth="yes"/>
      <point x="540.581" y="623.191"/>
      <point x="492.055" y="656"/>
    </contour>
  </outline>
</glyph>
<glyph name="nine" format="1">
  <advance width="536"/>
  <unicode hex="0039"/>
  <outline>
    <contour>
      <point x="518" y="363" type="curve"/>
      <point x="494" y="342"/>
      <point x="419" y="283"/>
      <point x="312" y="282" type="curve" smooth="yes"/>
      <point x="275" y="282"/>
      <point x="159" y="294"/>
      <point x="192" y="447" type="curve"/>
      <point x="228" y="620"/>
      <point x="355" y="658"/>
      <point x="402" y="658" type="curve" smooth="yes"/>
      <point x="486" y="658"/>
      <point x="577" y="620"/>
      <point x="539" y="442" type="curve"/>
      <point x="534" y="415"/>
      <point x="527" y="388"/>
    </contour>
    <contour>
      <point x="208" y="4" type="curve" smooth="yes"/>
      <point x="260" y="28"/>
      <point x="510" y="144"/>
      <point x="573" y="442" type="curve" smooth="yes"/>
      <point x="614" y="632"/>
      <point x="515" y="692"/>
      <point x="410" y="692" type="curve" smooth="yes"/>
      <point x="357" y="692"/>
      <point x="201" y="649"/>
      <point x="159" y="447" type="curve" smooth="yes"/>
      <point x="131" y="316"/>
      <point x="200" y="247"/>
      <point x="305" y="247" type="curve" smooth="yes"/>
      <point x="368" y="247"/>
      <point x="447" y="276"/>
      <point x="498" y="312" type="curve"/>
      <point x="427" y="188"/>
      <point x="308" y="84"/>
      <point x="193" y="33" type="curve" smooth="yes"/>
      <point x="187" y="30"/>
      <point x="181" y="24"/>
      <point x="179" y="17" type="curve" smooth="yes"/>
      <point x="177" y="8"/>
      <point x="184" y="0"/>
      <point x="193" y="0" type="curve" smooth="yes"/>
      <point x="198" y="0"/>
      <point x="202" y="1"/>
    </contour>
  </outline>
</glyph>
<glyph name="colon" format="1">
  <advance width="225"/>
  <unicode hex="003A"/>
  <outline>
    <contour>
      <point x="96" y="0" type="curve" smooth="yes"/>
      <point x="112" y="0"/>
      <point x="130" y="18"/>
      <point x="135" y="39" type="curve" smooth="yes"/>
      <point x="138" y="53"/>
      <point x="131" y="66"/>
      <point x="118" y="66" type="curve" smooth="yes"/>
      <point x="101" y="66"/>
      <point x="83" y="48"/>
      <point x="79" y="29" type="curve" smooth="yes"/>
      <point x="75" y="14"/>
      <point x="82" y="0"/>
    </contour>
    <contour>
      <point x="205" y="373" type="curve" smooth="yes"/>
      <point x="222" y="373"/>
      <point x="240" y="391"/>
      <point x="244" y="412" type="curve" smooth="yes"/>
      <point x="247" y="426"/>
      <point x="240" y="439"/>
      <point x="227" y="439" type="curve" smooth="yes"/>
      <point x="211" y="439"/>
      <point x="192" y="421"/>
      <point x="188" y="402" type="curve" smooth="yes"/>
      <point x="185" y="387"/>
      <point x="191" y="373"/>
    </contour>
  </outline>
</glyph>
<glyph name="semicolon" format="1">
  <advance width="261"/>
  <unicode hex="003B"/>
  <outline>
    <contour>
      <point x="246" y="373" type="curve" smooth="yes"/>
      <point x="263" y="373"/>
      <point x="281" y="391"/>
      <point x="285" y="412" type="curve" smooth="yes"/>
      <point x="288" y="426"/>
      <point x="281" y="439"/>
      <point x="268" y="439" type="curve" smooth="yes"/>
      <point x="252" y="439"/>
      <point x="233" y="421"/>
      <point x="229" y="402" type="curve" smooth="yes"/>
      <point x="226" y="387"/>
      <point x="232" y="373"/>
    </contour>
    <contour>
      <point x="77" y="-76" type="line" smooth="yes"/>
      <point x="74" y="-81"/>
      <point x="74" y="-83"/>
      <point x="73" y="-86" type="curve" smooth="yes"/>
      <point x="72" y="-91"/>
      <point x="77" y="-96"/>
      <point x="84" y="-96" type="curve" smooth="yes"/>
      <point x="95" y="-96"/>
      <point x="112" y="-67"/>
      <point x="137" y="-27" type="curve" smooth="yes"/>
      <point x="160" y="11"/>
      <point x="164" y="18"/>
      <point x="168" y="36" type="curve" smooth="yes"/>
      <point x="170" y="47"/>
      <point x="163" y="59"/>
      <point x="150" y="59" type="curve" smooth="yes"/>
      <point x="134" y="59"/>
      <point x="116" y="43"/>
      <point x="111" y="23" type="curve" smooth="yes"/>
      <point x="109" y="14"/>
      <point x="112" y="3"/>
      <point x="119" y="-5" type="curve"/>
    </contour>
  </outline>
</glyph>
<glyph name="greater" format="1">
  <advance width="530"/>
  <unicode hex="003E"/>
  <outline>
    <contour>
      <point x="510" y="231" type="curve" smooth="yes"/>
      <point x="132" y="13" type="line" smooth="yes"/>
      <point x="124" y="9"/>
      <point x="121" y="8"/>
      <point x="118" y="8" type="curve" smooth="yes"/>
      <point x="108" y="8"/>
      <point x="101" y="17"/>
      <point x="103" y="27" type="curve" smooth="yes"/>
      <point x="105" y="33"/>
      <point x="110" y="40"/>
      <point x="117" y="44" type="curve" smooth="yes"/>
      <point x="467" y="247" type="line"/>
      <point x="183" y="456" type="line" smooth="yes"/>
      <point x="178" y="460"/>
      <point x="177" y="466"/>
      <point x="178" y="472" type="curve" smooth="yes"/>
      <point x="180" y="482"/>
      <point x="191" y="492"/>
      <point x="201" y="492" type="curve" smooth="yes"/>
      <point x="203" y="492"/>
      <point x="207" y="492"/>
      <point x="211" y="489" type="curve" smooth="yes"/>
      <point x="516" y="264" type="line" smooth="yes"/>
      <point x="521" y="260"/>
      <point x="523" y="254"/>
      <point x="522" y="248" type="curve" smooth="yes"/>
      <point x="521" y="240"/>
      <point x="516" y="235"/>
    </contour>
  </outline>
</glyph>
<glyph name="question" format="1">
  <advance width="523"/>
  <unicode hex="003F"/>
  <outline>
    <contour>
      <point x="390" y="296" type="curve" smooth="yes"/>
      <point x="245" y="188" type="line" smooth="yes"/>
      <point x="241" y="185"/>
      <point x="236" y="182"/>
      <point x="232" y="182" type="curve" smooth="yes"/>
      <point x="222" y="182"/>
      <point x="216" y="191"/>
      <point x="218" y="200" type="curve" smooth="yes"/>
      <point x="219" y="205"/>
      <point x="222" y="209"/>
      <point x="227" y="213" type="curve" smooth="yes"/>
      <point x="377" y="326" type="line" smooth="yes"/>
      <point x="453" y="383"/>
      <point x="522" y="437"/>
      <point x="539" y="516" type="curve" smooth="yes"/>
      <point x="541.788" y="529.282"/>
      <point x="543.311" y="542.752"/>
      <point x="543.311" y="555.992" type="curve" smooth="yes"/>
      <point x="543.311" y="623.493"/>
      <point x="503.699" y="685"/>
      <point x="390" y="685" type="curve" smooth="yes"/>
      <point x="316" y="685"/>
      <point x="260" y="640"/>
      <point x="220" y="603" type="curve" smooth="yes"/>
      <point x="217" y="601"/>
      <point x="213" y="598"/>
      <point x="207" y="598" type="curve" smooth="yes"/>
      <point x="197" y="598"/>
      <point x="190" y="606"/>
      <point x="192" y="614" type="curve" smooth="yes"/>
      <point x="194" y="623"/>
      <point x="205" y="634"/>
      <point x="218" y="645" type="curve" smooth="yes"/>
      <point x="257" y="680"/>
      <point x="322" y="720"/>
      <point x="398" y="720" type="curve" smooth="yes"/>
      <point x="510.97" y="720"/>
      <point x="579.319" y="659.019"/>
      <point x="579.319" y="563.991" type="curve" smooth="yes"/>
      <point x="579.319" y="548.825"/>
      <point x="577.578" y="532.791"/>
      <point x="574" y="516" type="curve" smooth="yes"/>
      <point x="551" y="405"/>
      <point x="452" y="342"/>
    </contour>
    <contour>
      <point x="158" y="0" type="curve" smooth="yes"/>
      <point x="147.284" y="-3.55271e-15"/>
      <point x="139.965" y="9.51334"/>
      <point x="139.965" y="21.258" type="curve" smooth="yes"/>
      <point x="139.965" y="23.7608"/>
      <point x="140.297" y="26.365"/>
      <point x="141" y="29" type="curve" smooth="yes"/>
      <point x="145" y="48"/>
      <point x="164" y="66"/>
      <point x="181" y="66" type="curve" smooth="yes"/>
      <point x="191.286" y="66"/>
      <point x="198.633" y="56.449"/>
      <point x="198.633" y="44.9038" type="curve" smooth="yes"/>
      <point x="198.633" y="42.9796"/>
      <point x="198.429" y="41"/>
      <point x="198" y="39" type="curve" smooth="yes"/>
      <point x="193" y="18"/>
      <point x="175" y="0"/>
    </contour>
  </outline>
</glyph>
<glyph name="at" format="1">
  <advance width="818"/>
  <unicode hex="0040"/>
  <outline>
    <contour>
      <point x="622" y="-3" type="curve" smooth="yes"/>
      <point x="579" y="-28"/>
      <point x="502" y="-64"/>
      <point x="412" y="-64" type="curve" smooth="yes"/>
      <point x="277" y="-64"/>
      <point x="112" y="46"/>
      <point x="156" y="253" type="curve" smooth="yes"/>
      <point x="203" y="473"/>
      <point x="394" y="588"/>
      <point x="559" y="588" type="curve" smooth="yes"/>
      <point x="758" y="588"/>
      <point x="830" y="437"/>
      <point x="799" y="288" type="curve" smooth="yes"/>
      <point x="769" y="148"/>
      <point x="679" y="134"/>
      <point x="647" y="134" type="curve" smooth="yes"/>
      <point x="572" y="135"/>
      <point x="545" y="176"/>
      <point x="556" y="227" type="curve" smooth="yes"/>
      <point x="560" y="247"/>
      <point x="565" y="256"/>
      <point x="570" y="265" type="curve" smooth="yes"/>
      <point x="573" y="271"/>
      <point x="575" y="275"/>
      <point x="576" y="280" type="curve" smooth="yes"/>
      <point x="578" y="290"/>
      <point x="572" y="298"/>
      <point x="563" y="298" type="curve" smooth="yes"/>
      <point x="555" y="298"/>
      <point x="547" y="295"/>
      <point x="543" y="287" type="curve" smooth="yes"/>
      <point x="521" y="250"/>
      <point x="444" y="148"/>
      <point x="381" y="148" type="curve" smooth="yes"/>
      <point x="340" y="148"/>
      <point x="311" y="174"/>
      <point x="325" y="238" type="curve" smooth="yes"/>
      <point x="342" y="317"/>
      <point x="414" y="392"/>
      <point x="490" y="392" type="curve" smooth="yes"/>
      <point x="513" y="392"/>
      <point x="536" y="382"/>
      <point x="558" y="367" type="curve" smooth="yes"/>
      <point x="565" y="362"/>
      <point x="569" y="361"/>
      <point x="572" y="361" type="curve" smooth="yes"/>
      <point x="582" y="361"/>
      <point x="593" y="369"/>
      <point x="595" y="378" type="curve" smooth="yes"/>
      <point x="596" y="385"/>
      <point x="592" y="391"/>
      <point x="581" y="399" type="curve" smooth="yes"/>
      <point x="557" y="417"/>
      <point x="526" y="426"/>
      <point x="496" y="426" type="curve" smooth="yes"/>
      <point x="402" y="426"/>
      <point x="310" y="336"/>
      <point x="289" y="238" type="curve" smooth="yes"/>
      <point x="271" y="154"/>
      <point x="313" y="114"/>
      <point x="374" y="114" type="curve" smooth="yes"/>
      <point x="422" y="114"/>
      <point x="474" y="154"/>
      <point x="517" y="198" type="curve"/>
      <point x="521" y="142"/>
      <point x="555" y="99"/>
      <point x="637" y="99" type="curve" smooth="yes"/>
      <point x="669" y="99"/>
      <point x="797" y="113"/>
      <point x="834" y="288" type="curve" smooth="yes"/>
      <point x="874" y="478"/>
      <point x="756" y="623"/>
      <point x="567" y="623" type="curve" smooth="yes"/>
      <point x="356" y="623"/>
      <point x="166" y="465"/>
      <point x="121" y="253" type="curve" smooth="yes"/>
      <point x="79" y="53"/>
      <point x="216" y="-98"/>
      <point x="405" y="-98" type="curve" smooth="yes"/>
      <point x="501" y="-98"/>
      <point x="588" y="-60"/>
      <point x="636" y="-32" type="curve"/>
      <point x="646" y="-25"/>
      <point x="651" y="-20"/>
      <point x="653" y="-14" type="curve" smooth="yes"/>
      <point x="655" y="-4"/>
      <point x="648" y="4"/>
      <point x="639" y="4" type="curve" smooth="yes"/>
      <point x="634" y="4"/>
      <point x="631" y="2"/>
    </contour>
  </outline>
</glyph>
<glyph name="B" format="1">
  <advance width="593"/>
  <unicode hex="0042"/>
  <outline>
    <contour>
      <point x="96" y="-2" type="curve" smooth="yes"/>
      <point x="81.3654" y="-2"/>
      <point x="71.1773" y="0.96431"/>
      <point x="71.1773" y="15.1864" type="curve" smooth="yes"/>
      <point x="71.1773" y="17.4852"/>
      <point x="71.4434" y="20.078"/>
      <point x="72" y="23" type="curve" smooth="yes"/>
      <point x="208" y="662" type="line"/>
      <point x="211" y="673"/>
      <point x="220" y="681"/>
      <point x="230" y="681" type="curve" smooth="yes"/>
      <point x="418" y="681" type="line" smooth="yes"/>
      <point x="577.488" y="681"/>
      <point x="601.084" y="589.495"/>
      <point x="601.084" y="541.353" type="curve" smooth="yes"/>
      <point x="601.084" y="531.237"/>
      <point x="600.042" y="523.036"/>
      <point x="599" y="518" type="curve" smooth="yes"/>
      <point x="583" y="446"/>
      <point x="531" y="398"/>
      <point x="484" y="368" type="curve"/>
      <point x="556.119" y="340.001"/>
      <point x="595.843" y="295.444"/>
      <point x="595.843" y="234.33" type="curve" smooth="yes"/>
      <point x="595.843" y="223.415"/>
      <point x="594.576" y="211.972"/>
      <point x="592" y="200" type="curve" smooth="yes"/>
      <point x="565" y="72"/>
      <point x="402" y="-2"/>
    </contour>
    <contour>
      <point x="178" y="340" type="line"/>
      <point x="113" y="35" type="line"/>
      <point x="333" y="35"/>
      <point x="530" y="84"/>
      <point x="555" y="200" type="curve" smooth="yes"/>
      <point x="557.042" y="209.725"/>
      <point x="558.006" y="218.882"/>
      <point x="558.006" y="227.491" type="curve" smooth="yes"/>
      <point x="558.006" y="307.402"/>
      <point x="474.928" y="340"/>
      <point x="400" y="340" type="curve" smooth="yes"/>
    </contour>
    <contour>
      <point x="242" y="643" type="line"/>
      <point x="186" y="378" type="line"/>
      <point x="398" y="378" type="line" smooth="yes"/>
      <point x="475" y="378"/>
      <point x="546" y="446"/>
      <point x="561" y="515" type="curve" smooth="yes"/>
      <point x="561.761" y="518.997"/>
      <point x="562.776" y="526.108"/>
      <point x="562.776" y="535.004" type="curve" smooth="yes"/>
      <point x="562.776" y="572.852"/>
      <point x="544.408" y="643"/>
      <point x="410" y="643" type="curve" smooth="yes"/>
    </contour>
  </outline>
</glyph>
<glyph name="D" format="1">
  <advance width="610"/>
  <unicode hex="0044"/>
  <outline>
    <contour>
      <point x="202" y="-21" type="curve" smooth="yes"/>
      <point x="394" y="-21"/>
      <point x="573" y="76"/>
      <point x="620" y="299" type="curve" smooth="yes"/>
      <point x="689" y="625"/>
      <point x="396" y="681"/>
      <point x="231" y="681" type="curve" smooth="yes"/>
      <point x="221" y="681"/>
      <point x="211" y="673"/>
      <point x="208" y="662" type="curve"/>
      <point x="71" y="15" type="line" smooth="yes"/>
      <point x="69" y="7"/>
      <point x="73" y="-1"/>
      <point x="81" y="-3" type="curve" smooth="yes"/>
      <point x="88" y="-5"/>
      <point x="143" y="-21"/>
    </contour>
    <contour>
      <point x="242" y="643" type="line"/>
      <point x="460" y="633"/>
      <point x="634" y="545"/>
      <point x="582" y="299" type="curve" smooth="yes"/>
      <point x="542" y="109"/>
      <point x="399" y="18"/>
      <point x="210" y="18" type="curve" smooth="yes"/>
      <point x="176" y="18"/>
      <point x="137" y="25"/>
      <point x="112" y="31" type="curve"/>
    </contour>
  </outline>
</glyph>
<glyph name="E" format="1">
  <advance width="600"/>
  <unicode hex="0045"/>
  <outline>
    <contour>
      <point x="114" y="38" type="line"/>
      <point x="534" y="38" type="line" smooth="yes"/>
      <point x="544" y="38"/>
      <point x="551" y="30"/>
      <point x="549" y="20" type="curve" smooth="yes"/>
      <point x="546" y="9"/>
      <point x="536" y="0"/>
      <point x="526" y="0" type="curve" smooth="yes"/>
      <point x="87" y="0" type="line" smooth="yes"/>
      <point x="77" y="0"/>
      <point x="69" y="9"/>
      <point x="72" y="20" type="curve"/>
      <point x="209" y="664" type="line" smooth="yes"/>
      <point x="211" y="674"/>
      <point x="221" y="682"/>
      <point x="231" y="682" type="curve" smooth="yes"/>
      <point x="672" y="682" type="line" smooth="yes"/>
      <point x="682" y="682"/>
      <point x="690" y="674"/>
      <point x="688" y="664" type="curve" smooth="yes"/>
      <point x="685" y="653"/>
      <point x="674" y="644"/>
      <point x="664" y="644" type="curve" smooth="yes"/>
      <point x="242" y="644" type="line"/>
      <point x="185" y="372" type="line"/>
      <point x="557" y="372" type="line" smooth="yes"/>
      <point x="567" y="372"/>
      <point x="573" y="364"/>
      <point x="571" y="353" type="curve"/>
      <point x="568" y="343"/>
      <point x="558" y="334"/>
      <point x="548" y="334" type="curve" smooth="yes"/>
      <point x="176" y="334" type="line"/>
    </contour>
  </outline>
</glyph>
<glyph name="G" format="1">
  <advance width="741"/>
  <unicode hex="0047"/>
  <outline>
    <contour>
      <point x="735" y="268" type="curve" smooth="yes"/>
      <point x="742" y="265"/>
      <point x="746" y="260"/>
      <point x="744" y="250" type="curve" smooth="yes"/>
      <point x="741" y="239"/>
      <point x="733" y="231"/>
      <point x="723" y="231" type="curve" smooth="yes"/>
      <point x="717" y="231"/>
      <point x="710" y="234"/>
      <point x="698" y="237" type="curve"/>
      <point x="638" y="104"/>
      <point x="515" y="-1"/>
      <point x="360" y="-1" type="curve" smooth="yes"/>
      <point x="203.921" y="-1"/>
      <point x="122.579" y="115.02"/>
      <point x="122.579" y="252.78" type="curve" smooth="yes"/>
      <point x="122.579" y="278.307"/>
      <point x="125.372" y="304.58"/>
      <point x="131" y="331" type="curve" smooth="yes"/>
      <point x="166" y="498"/>
      <point x="328" y="683"/>
      <point x="523" y="683" type="curve" smooth="yes"/>
      <point x="696.255" y="683"/>
      <point x="745.901" y="560.25"/>
      <point x="745.901" y="510.392" type="curve" smooth="yes"/>
      <point x="745.901" y="506.437"/>
      <point x="745.588" y="502.94"/>
      <point x="745" y="500" type="curve" smooth="yes"/>
      <point x="743" y="490"/>
      <point x="733" y="483"/>
      <point x="723" y="483" type="curve" smooth="yes"/>
      <point x="714" y="483"/>
      <point x="708" y="488"/>
      <point x="707" y="498" type="curve" smooth="yes"/>
      <point x="696" y="568"/>
      <point x="651" y="645"/>
      <point x="515" y="645" type="curve" smooth="yes"/>
      <point x="309" y="645"/>
      <point x="190" y="428"/>
      <point x="170" y="331" type="curve" smooth="yes"/>
      <point x="165.379" y="309.264"/>
      <point x="162.926" y="286.356"/>
      <point x="162.926" y="263.314" type="curve" smooth="yes"/>
      <point x="162.926" y="151.727"/>
      <point x="220.465" y="37"/>
      <point x="368" y="37" type="curve" smooth="yes"/>
      <point x="493" y="37"/>
      <point x="604" y="116"/>
      <point x="663" y="244" type="curve"/>
      <point x="645" y="246"/>
      <point x="634" y="246"/>
      <point x="621" y="246" type="curve" smooth="yes"/>
      <point x="564" y="246"/>
      <point x="527" y="237"/>
      <point x="504" y="232" type="curve" smooth="yes"/>
      <point x="493" y="230"/>
      <point x="488" y="228"/>
      <point x="482" y="228" type="curve" smooth="yes"/>
      <point x="473" y="228"/>
      <point x="465" y="235"/>
      <point x="468" y="247" type="curve" smooth="yes"/>
      <point x="469" y="254"/>
      <point x="476" y="262"/>
      <point x="485" y="265" type="curve" smooth="yes"/>
      <point x="488" y="266"/>
      <point x="555" y="284"/>
      <point x="628" y="284" type="curve" smooth="yes"/>
      <point x="691" y="284"/>
      <point x="727" y="271"/>
    </contour>
  </outline>
</glyph>
<glyph name="H" format="1">
  <advance width="675"/>
  <unicode hex="0048"/>
  <outline>
    <contour>
      <point x="744" y="681" type="curve" smooth="yes"/>
      <point x="754" y="681"/>
      <point x="761" y="673"/>
      <point x="758" y="662" type="curve"/>
      <point x="622" y="19" type="line"/>
      <point x="619" y="8"/>
      <point x="610" y="0"/>
      <point x="600" y="0" type="curve" smooth="yes"/>
      <point x="589" y="0"/>
      <point x="581" y="8"/>
      <point x="584" y="19" type="curve"/>
      <point x="656" y="361" type="line"/>
      <point x="167" y="296" type="line"/>
      <point x="109" y="19" type="line"/>
      <point x="106" y="8"/>
      <point x="96" y="0"/>
      <point x="86" y="0" type="curve" smooth="yes"/>
      <point x="75" y="0"/>
      <point x="68" y="8"/>
      <point x="71" y="19" type="curve"/>
      <point x="207" y="662" type="line"/>
      <point x="210" y="673"/>
      <point x="219" y="681"/>
      <point x="230" y="681" type="curve" smooth="yes"/>
      <point x="240" y="681"/>
      <point x="248" y="673"/>
      <point x="245" y="662" type="curve"/>
      <point x="176" y="335" type="line"/>
      <point x="665" y="400" type="line"/>
      <point x="720" y="662" type="line"/>
      <point x="723" y="673"/>
      <point x="733" y="681"/>
    </contour>
  </outline>
</glyph>
<glyph name="N" format="1">
  <advance width="609"/>
  <unicode hex="004E"/>
  <outline>
    <contour>
      <point x="518" y="7" type="line" smooth="yes"/>
      <point x="520" y="2"/>
      <point x="525" y="0"/>
      <point x="532" y="0" type="curve" smooth="yes"/>
      <point x="543" y="0"/>
      <point x="552" y="8"/>
      <point x="555" y="19" type="curve"/>
      <point x="692" y="664" type="line" smooth="yes"/>
      <point x="694" y="674"/>
      <point x="687" y="682"/>
      <point x="676" y="682" type="curve" smooth="yes"/>
      <point x="666" y="682"/>
      <point x="657" y="674"/>
      <point x="655" y="664" type="curve" smooth="yes"/>
      <point x="530" y="77" type="line"/>
      <point x="247" y="670" type="line"/>
      <point x="244" y="678"/>
      <point x="238" y="681"/>
      <point x="230" y="681" type="curve" smooth="yes"/>
      <point x="220" y="681"/>
      <point x="212" y="673"/>
      <point x="209" y="662" type="curve"/>
      <point x="72" y="19" type="line"/>
      <point x="69" y="8"/>
      <point x="76" y="0"/>
      <point x="86" y="0" type="curve" smooth="yes"/>
      <point x="96" y="0"/>
      <point x="106" y="8"/>
      <point x="109" y="19" type="curve"/>
      <point x="234" y="603" type="line"/>
    </contour>
  </outline>
</glyph>
<glyph name="O" format="1">
  <advance width="650"/>
  <unicode hex="004F"/>
  <outline>
    <contour>
      <point x="307" y="-2" type="curve" smooth="yes"/>
      <point x="188.556" y="-2"/>
      <point x="118.821" y="96.7914"/>
      <point x="118.821" y="227.321" type="curve" smooth="yes"/>
      <point x="118.821" y="254.383"/>
      <point x="121.818" y="282.808"/>
      <point x="128" y="312" type="curve" smooth="yes"/>
      <point x="171" y="513"/>
      <point x="340" y="682"/>
      <point x="496" y="682" type="curve" smooth="yes"/>
      <point x="613.989" y="682"/>
      <point x="685.03" y="583.963"/>
      <point x="685.03" y="452.138" type="curve" smooth="yes"/>
      <point x="685.03" y="425.311"/>
      <point x="682.087" y="397.084"/>
      <point x="676" y="368" type="curve" smooth="yes"/>
      <point x="633" y="167"/>
      <point x="463" y="-2"/>
    </contour>
    <contour>
      <point x="481" y="649" type="curve" smooth="yes"/>
      <point x="350" y="649"/>
      <point x="202" y="500"/>
      <point x="162" y="312" type="curve" smooth="yes"/>
      <point x="156.078" y="284.545"/>
      <point x="153.216" y="257.894"/>
      <point x="153.216" y="232.644" type="curve" smooth="yes"/>
      <point x="153.216" y="117.183"/>
      <point x="213.072" y="31"/>
      <point x="314" y="31" type="curve" smooth="yes"/>
      <point x="446" y="31"/>
      <point x="602" y="183"/>
      <point x="641" y="364" type="curve" smooth="yes"/>
      <point x="646.053" y="388.252"/>
      <point x="648.524" y="412.42"/>
      <point x="648.524" y="435.843" type="curve" smooth="yes"/>
      <point x="648.524" y="551.495"/>
      <point x="588.274" y="649"/>
    </contour>
  </outline>
</glyph>
<glyph name="P" format="1">
  <advance width="537"/>
  <unicode hex="0050"/>
  <outline>
    <contour>
      <point x="86" y="0" type="curve" smooth="yes"/>
      <point x="97" y="0"/>
      <point x="106" y="8"/>
      <point x="109" y="19" type="curve"/>
      <point x="157" y="246" type="line"/>
      <point x="301" y="246"/>
      <point x="576" y="298"/>
      <point x="615" y="481" type="curve" smooth="yes"/>
      <point x="642" y="610"/>
      <point x="535" y="682"/>
      <point x="283" y="682" type="curve" smooth="yes"/>
      <point x="214" y="682"/>
      <point x="211" y="674"/>
      <point x="206" y="650" type="curve" smooth="yes"/>
      <point x="72" y="19" type="line"/>
      <point x="69" y="8"/>
      <point x="76" y="0"/>
    </contour>
    <contour>
      <point x="241" y="643" type="line"/>
      <point x="260" y="645"/>
      <point x="280" y="645"/>
      <point x="293" y="645" type="curve" smooth="yes"/>
      <point x="497" y="645"/>
      <point x="600" y="586"/>
      <point x="578" y="481" type="curve" smooth="yes"/>
      <point x="542" y="312"/>
      <point x="259" y="283"/>
      <point x="165" y="283" type="curve"/>
    </contour>
  </outline>
</glyph>
<glyph name="T" format="1">
  <advance width="512"/>
  <unicode hex="0054"/>
  <outline>
    <contour>
      <point x="174" y="681" type="curve" smooth="yes"/>
      <point x="634" y="681" type="line" smooth="yes"/>
      <point x="644" y="681"/>
      <point x="652" y="673"/>
      <point x="649" y="662" type="curve" smooth="yes"/>
      <point x="647" y="652"/>
      <point x="636" y="644"/>
      <point x="626" y="644" type="curve" smooth="yes"/>
      <point x="407" y="644" type="line"/>
      <point x="275" y="19" type="line"/>
      <point x="272" y="8"/>
      <point x="263" y="0"/>
      <point x="253" y="0" type="curve" smooth="yes"/>
      <point x="242" y="0"/>
      <point x="235" y="8"/>
      <point x="238" y="19" type="curve"/>
      <point x="370" y="644" type="line"/>
      <point x="166" y="644" type="line" smooth="yes"/>
      <point x="156" y="644"/>
      <point x="149" y="652"/>
      <point x="151" y="662" type="curve" smooth="yes"/>
      <point x="154" y="673"/>
      <point x="164" y="681"/>
    </contour>
  </outline>
</glyph>
<glyph name="U" format="1">
  <advance width="673"/>
  <unicode hex="0055"/>
  <outline>
    <contour>
      <point x="752" y="653" type="curve" smooth="yes"/>
      <point x="755" y="668"/>
      <point x="755" y="681"/>
      <point x="740" y="681" type="curve" smooth="yes"/>
      <point x="722" y="681"/>
      <point x="718" y="667"/>
      <point x="715" y="651" type="curve" smooth="yes"/>
      <point x="687" y="518"/>
      <point x="667" y="397"/>
      <point x="628" y="277" type="curve" smooth="yes"/>
      <point x="583" y="139"/>
      <point x="496" y="31"/>
      <point x="336" y="31" type="curve" smooth="yes"/>
      <point x="151" y="31"/>
      <point x="160" y="236"/>
      <point x="185" y="381" type="curve"/>
      <point x="202" y="474"/>
      <point x="224" y="565"/>
      <point x="245" y="654" type="curve"/>
      <point x="248" y="670"/>
      <point x="247" y="681"/>
      <point x="232" y="681" type="curve" smooth="yes"/>
      <point x="218" y="681"/>
      <point x="210" y="671"/>
      <point x="207" y="655" type="curve" smooth="yes"/>
      <point x="188" y="570"/>
      <point x="165" y="474"/>
      <point x="147" y="367" type="curve"/>
      <point x="104" y="125"/>
      <point x="171" y="0"/>
      <point x="329" y="0" type="curve" smooth="yes"/>
      <point x="502" y="0"/>
      <point x="608" y="110"/>
      <point x="663" y="270" type="curve" smooth="yes"/>
      <point x="708" y="400"/>
      <point x="730" y="527"/>
    </contour>
  </outline>
</glyph>
<glyph name="V" format="1">
  <advance width="525"/>
  <unicode hex="0056"/>
  <outline>
    <contour>
      <point x="249" y="0" type="curve" smooth="yes"/>
      <point x="257" y="0"/>
      <point x="263" y="4"/>
      <point x="268" y="12" type="curve" smooth="yes"/>
      <point x="657" y="652" type="line" smooth="yes"/>
      <point x="659" y="655"/>
      <point x="660" y="658"/>
      <point x="662" y="664" type="curve" smooth="yes"/>
      <point x="664" y="674"/>
      <point x="655" y="680"/>
      <point x="645" y="680" type="curve" smooth="yes"/>
      <point x="637" y="680"/>
      <point x="630" y="676"/>
      <point x="626" y="669" type="curve" smooth="yes"/>
      <point x="266" y="74" type="line"/>
      <point x="191" y="668" type="line" smooth="yes"/>
      <point x="190" y="676"/>
      <point x="185" y="680"/>
      <point x="176" y="680" type="curve" smooth="yes"/>
      <point x="164" y="680"/>
      <point x="155" y="672"/>
      <point x="153" y="662" type="curve" smooth="yes"/>
      <point x="153" y="659"/>
      <point x="153" y="654"/>
      <point x="153" y="650" type="curve" smooth="yes"/>
      <point x="232" y="12" type="line" smooth="yes"/>
      <point x="233" y="3"/>
      <point x="241" y="0"/>
    </contour>
  </outline>
</glyph>
<glyph name="Z" format="1">
  <advance width="629"/>
  <unicode hex="005A"/>
  <outline>
    <contour>
      <point x="106" y="41" type="line"/>
      <point x="717" y="641" type="line" smooth="yes"/>
      <point x="721" y="645"/>
      <point x="725" y="652"/>
      <point x="726" y="657" type="curve" smooth="yes"/>
      <point x="729" y="670"/>
      <point x="720" y="680"/>
      <point x="707" y="680" type="curve" smooth="yes"/>
      <point x="231" y="680" type="line" smooth="yes"/>
      <point x="221" y="680"/>
      <point x="209" y="671"/>
      <point x="207" y="659" type="curve" smooth="yes"/>
      <point x="204" y="647"/>
      <point x="212" y="638"/>
      <point x="222" y="638" type="curve" smooth="yes"/>
      <point x="673" y="638" type="line"/>
      <point x="64" y="40" type="line" smooth="yes"/>
      <point x="59" y="35"/>
      <point x="55" y="28"/>
      <point x="54" y="22" type="curve" smooth="yes"/>
      <point x="52" y="8"/>
      <point x="61" y="0"/>
      <point x="74" y="0" type="curve" smooth="yes"/>
      <point x="550" y="0" type="line" smooth="yes"/>
      <point x="560" y="0"/>
      <point x="570" y="9"/>
      <point x="573" y="21" type="curve" smooth="yes"/>
      <point x="575" y="32"/>
      <point x="568" y="41"/>
      <point x="558" y="41" type="curve" smooth="yes"/>
    </contour>
  </outline>
</glyph>
<glyph name="bracketleft" format="1">
  <advance width="305"/>
  <unicode hex="005B"/>
  <outline>
    <contour>
      <point x="188" y="-129" type="line" smooth="yes"/>
      <point x="198" y="-129"/>
      <point x="208" y="-121"/>
      <point x="210" y="-110" type="curve" smooth="yes"/>
      <point x="212" y="-100"/>
      <point x="206" y="-92"/>
      <point x="196" y="-92" type="curve" smooth="yes"/>
      <point x="88" y="-92" type="line"/>
      <point x="274" y="782" type="line"/>
      <point x="398" y="782" type="line" smooth="yes"/>
      <point x="409" y="782"/>
      <point x="418" y="790"/>
      <point x="421" y="800" type="curve"/>
      <point x="423" y="811"/>
      <point x="417" y="819"/>
      <point x="406" y="819" type="curve" smooth="yes"/>
      <point x="264" y="819" type="line" smooth="yes"/>
      <point x="253" y="819"/>
      <point x="243" y="811"/>
      <point x="241" y="800" type="curve" smooth="yes"/>
      <point x="47" y="-110" type="line" smooth="yes"/>
      <point x="45" y="-121"/>
      <point x="51" y="-129"/>
      <point x="62" y="-129" type="curve" smooth="yes"/>
    </contour>
  </outline>
</glyph>
<glyph name="backslash" format="1">
  <advance width="535"/>
  <unicode hex="005C"/>
  <outline>
    <contour>
      <point x="443" y="6" type="curve" smooth="yes"/>
      <point x="215" y="672" type="line"/>
      <point x="215" y="674"/>
      <point x="214" y="677"/>
      <point x="215" y="680" type="curve" smooth="yes"/>
      <point x="218" y="692"/>
      <point x="226" y="700"/>
      <point x="238" y="700" type="curve" smooth="yes"/>
      <point x="244" y="700"/>
      <point x="250" y="698"/>
      <point x="252" y="692" type="curve" smooth="yes"/>
      <point x="478" y="29" type="line" smooth="yes"/>
      <point x="480" y="24"/>
      <point x="480" y="19"/>
      <point x="479" y="17" type="curve" smooth="yes"/>
      <point x="477" y="6"/>
      <point x="465" y="-2"/>
      <point x="456" y="-2" type="curve" smooth="yes"/>
      <point x="450" y="-2"/>
      <point x="445" y="-1"/>
    </contour>
  </outline>
</glyph>
<glyph name="bracketright" format="1">
  <advance width="305"/>
  <unicode hex="005D"/>
  <outline>
    <contour>
      <point x="275" y="819" type="line" smooth="yes"/>
      <point x="265" y="819"/>
      <point x="254" y="811"/>
      <point x="252" y="800" type="curve"/>
      <point x="249" y="790"/>
      <point x="257" y="782"/>
      <point x="267" y="782" type="curve" smooth="yes"/>
      <point x="374" y="782" type="line"/>
      <point x="188" y="-92" type="line"/>
      <point x="64" y="-92" type="line" smooth="yes"/>
      <point x="54" y="-92"/>
      <point x="44" y="-100"/>
      <point x="42" y="-110" type="curve" smooth="yes"/>
      <point x="40" y="-121"/>
      <point x="46" y="-129"/>
      <point x="56" y="-129" type="curve" smooth="yes"/>
      <point x="199" y="-129" type="line" smooth="yes"/>
      <point x="210" y="-129"/>
      <point x="220" y="-121"/>
      <point x="222" y="-110" type="curve" smooth="yes"/>
      <point x="416" y="800" type="line" smooth="yes"/>
      <point x="418" y="811"/>
      <point x="412" y="819"/>
      <point x="401" y="819" type="curve" smooth="yes"/>
    </contour>
  </outline>
</glyph>
<glyph name="asciicircum" format="1">
  <advance width="490"/>
  <unicode hex="005E"/>
  <outline>
    <contour>
      <point x="423" y="652" type="line" smooth="yes"/>
      <point x="420" y="664"/>
      <point x="413" y="670"/>
      <point x="404" y="670" type="curve" smooth="yes"/>
      <point x="393" y="670"/>
      <point x="384" y="664"/>
      <point x="376" y="654" type="curve" smooth="yes"/>
      <point x="202" y="441" type="line" smooth="yes"/>
      <point x="198" y="436"/>
      <point x="196" y="432"/>
      <point x="196" y="429" type="curve" smooth="yes"/>
      <point x="194" y="420"/>
      <point x="201" y="412"/>
      <point x="211" y="412" type="curve" smooth="yes"/>
      <point x="217" y="412"/>
      <point x="222" y="414"/>
      <point x="227" y="419" type="curve" smooth="yes"/>
      <point x="392" y="617" type="line"/>
      <point x="451" y="420" type="line"/>
      <point x="452" y="414"/>
      <point x="457" y="412"/>
      <point x="464" y="412" type="curve" smooth="yes"/>
      <point x="474" y="412"/>
      <point x="484" y="420"/>
      <point x="486" y="429" type="curve" smooth="yes"/>
      <point x="486" y="432"/>
      <point x="487" y="435"/>
      <point x="485" y="441" type="curve" smooth="yes"/>
    </contour>
  </outline>
</glyph>
<glyph name="underscore" format="1">
  <advance width="480"/>
  <unicode hex="005F"/>
  <outline>
    <contour>
      <point x="487" y="-58" type="curve" smooth="yes"/>
      <point x="-22" y="-58" type="line" smooth="yes"/>
      <point x="-33" y="-58"/>
      <point x="-39" y="-50"/>
      <point x="-37" y="-40" type="curve" smooth="yes"/>
      <point x="-35" y="-29"/>
      <point x="-25" y="-21"/>
      <point x="-14" y="-21" type="curve" smooth="yes"/>
      <point x="495" y="-21" type="line" smooth="yes"/>
      <point x="506" y="-21"/>
      <point x="512" y="-29"/>
      <point x="510" y="-40" type="curve" smooth="yes"/>
      <point x="508" y="-50"/>
      <point x="498" y="-58"/>
    </contour>
  </outline>
</glyph>
<glyph name="a" format="1">
  <advance width="495"/>
  <unicode hex="0061"/>
  <outline>
    <contour>
      <point x="539" y="476" type="line"/>
      <point x="516" y="489"/>
      <point x="461" y="515"/>
      <point x="400" y="515" type="curve" smooth="yes"/>
      <point x="226" y="515"/>
      <point x="121" y="327"/>
      <point x="99" y="223" type="curve" smooth="yes"/>
      <point x="72" y="95"/>
      <point x="133" y="8"/>
      <point x="239" y="8" type="curve" smooth="yes"/>
      <point x="294" y="8"/>
      <point x="365" y="39"/>
      <point x="414" y="66" type="curve"/>
      <point x="404" y="23" type="line"/>
      <point x="402" y="10"/>
      <point x="407" y="0"/>
      <point x="419" y="0" type="curve" smooth="yes"/>
      <point x="430" y="0"/>
      <point x="439" y="9"/>
      <point x="442" y="21" type="curve" smooth="yes"/>
    </contour>
    <contour>
      <point x="421" y="110" type="line"/>
      <point x="391" y="93"/>
      <point x="310" y="45"/>
      <point x="245" y="45" type="curve" smooth="yes"/>
      <point x="138" y="45"/>
      <point x="122" y="148"/>
      <point x="138" y="225" type="curve" smooth="yes"/>
      <point x="158" y="316"/>
      <point x="245" y="478"/>
      <point x="395" y="478" type="curve" smooth="yes"/>
      <point x="432" y="478"/>
      <point x="478" y="463"/>
      <point x="498" y="452" type="curve"/>
    </contour>
  </outline>
</glyph>
<glyph name="b" format="1">
  <advance width="514"/>
  <unicode hex="0062"/>
  <outline>
    <contour>
      <point x="406" y="491" type="curve" smooth="yes"/>
      <point x="503.806" y="491"/>
      <point x="537.743" y="420.501"/>
      <point x="537.743" y="341.244" type="curve" smooth="yes"/>
      <point x="537.743" y="318.398"/>
      <point x="534.923" y="294.823"/>
      <point x="530" y="272" type="curve" smooth="yes"/>
      <point x="499" y="126"/>
      <point x="411" y="7"/>
      <point x="258" y="7" type="curve" smooth="yes"/>
      <point x="205" y="7"/>
      <point x="148" y="26"/>
      <point x="112" y="42" type="curve"/>
      <point x="107" y="17" type="line" smooth="yes"/>
      <point x="105" y="8"/>
      <point x="96" y="0"/>
      <point x="86" y="0" type="curve" smooth="yes"/>
      <point x="76" y="0"/>
      <point x="68" y="7"/>
      <point x="70" y="17" type="curve" smooth="yes"/>
      <point x="212" y="683" type="line" smooth="yes"/>
      <point x="214" y="692"/>
      <point x="224" y="698"/>
      <point x="234" y="698" type="curve" smooth="yes"/>
      <point x="244" y="698"/>
      <point x="251" y="692"/>
      <point x="249" y="683" type="curve" smooth="yes"/>
      <point x="186" y="388" type="line"/>
      <point x="253" y="451"/>
      <point x="337" y="491"/>
    </contour>
    <contour>
      <point x="257" y="42" type="curve" smooth="yes"/>
      <point x="395" y="42"/>
      <point x="466" y="133"/>
      <point x="495" y="272" type="curve" smooth="yes"/>
      <point x="499.061" y="291.29"/>
      <point x="501.705" y="312.449"/>
      <point x="501.705" y="333.285" type="curve" smooth="yes"/>
      <point x="501.705" y="394.538"/>
      <point x="478.856" y="453"/>
      <point x="402" y="453" type="curve" smooth="yes"/>
      <point x="286" y="453"/>
      <point x="185" y="383"/>
      <point x="166" y="296" type="curve" smooth="yes"/>
      <point x="119" y="74" type="line"/>
      <point x="138" y="65"/>
      <point x="196" y="42"/>
    </contour>
  </outline>
</glyph>
<glyph name="c" format="1">
  <advance width="499"/>
  <unicode hex="0063"/>
  <outline>
    <contour>
      <point x="480" y="108" type="curve" smooth="yes"/>
      <point x="482" y="117"/>
      <point x="475" y="124"/>
      <point x="466" y="124" type="curve" smooth="yes"/>
      <point x="457" y="124"/>
      <point x="449" y="117"/>
      <point x="444" y="111" type="curve" smooth="yes"/>
      <point x="406" y="71"/>
      <point x="349" y="33"/>
      <point x="270" y="33" type="curve" smooth="yes"/>
      <point x="221" y="33"/>
      <point x="102" y="75"/>
      <point x="133" y="217" type="curve" smooth="yes"/>
      <point x="139" y="246"/>
      <point x="151" y="281"/>
      <point x="176" y="323" type="curve" smooth="yes"/>
      <point x="215" y="386"/>
      <point x="300" y="467"/>
      <point x="374" y="467" type="curve" smooth="yes"/>
      <point x="431" y="467"/>
      <point x="459" y="441"/>
      <point x="482" y="405" type="curve" smooth="yes"/>
      <point x="484" y="402"/>
      <point x="489" y="400"/>
      <point x="494" y="400" type="curve" smooth="yes"/>
      <point x="503" y="400"/>
      <point x="512" y="408"/>
      <point x="514" y="418" type="curve" smooth="yes"/>
      <point x="515" y="422"/>
      <point x="514" y="427"/>
      <point x="512" y="430" type="curve" smooth="yes"/>
      <point x="483" y="474"/>
      <point x="451" y="500"/>
      <point x="379" y="500" type="curve" smooth="yes"/>
      <point x="286" y="500"/>
      <point x="189" y="401"/>
      <point x="146" y="334" type="curve"/>
      <point x="131" y="308"/>
      <point x="107" y="263"/>
      <point x="97" y="215" type="curve" smooth="yes"/>
      <point x="70" y="89"/>
      <point x="159" y="-6"/>
      <point x="277" y="0" type="curve" smooth="yes"/>
      <point x="351" y="3"/>
      <point x="426" y="43"/>
      <point x="470" y="93" type="curve" smooth="yes"/>
      <point x="474" y="97"/>
      <point x="479" y="103"/>
    </contour>
  </outline>
</glyph>
<glyph name="i" format="1">
  <advance width="184"/>
  <unicode hex="0069"/>
  <outline>
    <contour>
      <point x="218" y="476" type="curve" smooth="yes"/>
      <point x="115" y="20" type="line" smooth="yes"/>
      <point x="112" y="9"/>
      <point x="101" y="0"/>
      <point x="91" y="0" type="curve" smooth="yes"/>
      <point x="80" y="0"/>
      <point x="72" y="9"/>
      <point x="75" y="20" type="curve" smooth="yes"/>
      <point x="178" y="476" type="line" smooth="yes"/>
      <point x="180" y="487"/>
      <point x="192" y="496"/>
      <point x="202" y="496" type="curve" smooth="yes"/>
      <point x="213" y="496"/>
      <point x="220" y="487"/>
    </contour>
    <contour>
      <point x="226" y="610" type="curve" smooth="yes"/>
      <point x="217" y="610"/>
      <point x="210" y="618"/>
      <point x="212" y="628" type="curve" smooth="yes"/>
      <point x="222" y="671" type="line" smooth="yes"/>
      <point x="224" y="680"/>
      <point x="235" y="689"/>
      <point x="245" y="689" type="curve" smooth="yes"/>
      <point x="255" y="689"/>
      <point x="261" y="679"/>
      <point x="259" y="670" type="curve" smooth="yes"/>
      <point x="249" y="627" type="line" smooth="yes"/>
      <point x="246" y="616"/>
      <point x="236" y="610"/>
    </contour>
  </outline>
</glyph>
<glyph name="j" format="1">
  <advance width="323"/>
  <unicode hex="006A"/>
  <outline>
    <contour>
      <point x="355" y="483" type="curve" smooth="yes"/>
      <point x="255" y="-13" type="line" smooth="yes"/>
      <point x="243" y="-75"/>
      <point x="197" y="-189"/>
      <point x="101" y="-189" type="curve" smooth="yes"/>
      <point x="10" y="-189"/>
      <point x="-11" y="-73"/>
      <point x="-16" y="-47" type="curve" smooth="yes"/>
      <point x="-17" y="-44"/>
      <point x="-17" y="-42"/>
      <point x="-17" y="-38" type="curve"/>
      <point x="-14" y="-28"/>
      <point x="-4" y="-21"/>
      <point x="6" y="-21" type="curve" smooth="yes"/>
      <point x="14" y="-21"/>
      <point x="19" y="-24"/>
      <point x="22" y="-36" type="curve"/>
      <point x="31" y="-87"/>
      <point x="53" y="-156"/>
      <point x="108" y="-156" type="curve" smooth="yes"/>
      <point x="183" y="-156"/>
      <point x="211" y="-42"/>
      <point x="216" y="-18" type="curve" smooth="yes"/>
      <point x="315" y="482" type="line" smooth="yes"/>
      <point x="317" y="493"/>
      <point x="327" y="502"/>
      <point x="339" y="502" type="curve" smooth="yes"/>
      <point x="349" y="502"/>
      <point x="358" y="497"/>
    </contour>
    <contour>
      <point x="389" y="698" type="curve" smooth="yes"/>
      <point x="399.455" y="698"/>
      <point x="404.891" y="693.538"/>
      <point x="404.891" y="685.448" type="curve" smooth="yes"/>
      <point x="404.891" y="682.705"/>
      <point x="404.266" y="679.545"/>
      <point x="403" y="676" type="curve" smooth="yes"/>
      <point x="389" y="633" type="line" smooth="yes"/>
      <point x="386" y="623"/>
      <point x="376" y="618"/>
      <point x="366" y="618" type="curve" smooth="yes"/>
      <point x="355" y="618"/>
      <point x="350" y="627"/>
      <point x="352" y="635" type="curve" smooth="yes"/>
      <point x="369" y="685" type="line" smooth="yes"/>
      <point x="372" y="695"/>
      <point x="382" y="698"/>
    </contour>
  </outline>
</glyph>
<glyph name="r" format="1">
  <advance width="406"/>
  <unicode hex="0072"/>
  <outline>
    <contour>
      <point x="209" y="481" type="line" smooth="yes"/>
      <point x="211" y="491"/>
      <point x="204" y="499"/>
      <point x="193" y="499" type="curve" smooth="yes"/>
      <point x="183" y="499"/>
      <point x="173" y="491"/>
      <point x="171" y="481" type="curve" smooth="yes"/>
      <point x="72" y="17" type="line" smooth="yes"/>
      <point x="70" y="7"/>
      <point x="78" y="0"/>
      <point x="87" y="0" type="curve" smooth="yes"/>
      <point x="98" y="0"/>
      <point x="107" y="7"/>
      <point x="109" y="17" type="curve" smooth="yes"/>
      <point x="160" y="253" type="line" smooth="yes"/>
      <point x="168" y="289"/>
      <point x="196" y="340"/>
      <point x="223" y="368" type="curve" smooth="yes"/>
      <point x="274" y="422"/>
      <point x="333" y="466"/>
      <point x="387" y="466" type="curve" smooth="yes"/>
      <point x="438" y="466"/>
      <point x="428" y="436"/>
      <point x="422" y="407" type="curve" smooth="yes"/>
      <point x="420" y="397" type="line" smooth="yes"/>
      <point x="418" y="386"/>
      <point x="421" y="377"/>
      <point x="435" y="377" type="curve" smooth="yes"/>
      <point x="445" y="377"/>
      <point x="453" y="385"/>
      <point x="456" y="396" type="curve"/>
      <point x="459" y="413" type="line"/>
      <point x="476" y="481"/>
      <point x="451" y="502"/>
      <point x="404" y="502" type="curve" smooth="yes"/>
      <point x="317" y="502"/>
      <point x="215" y="409"/>
      <point x="179" y="342" type="curve"/>
    </contour>
  </outline>
</glyph>
<glyph name="s" format="1">
  <advance width="448"/>
  <unicode hex="0073"/>
  <outline>
    <contour>
      <point x="444" y="373" type="curve" smooth="yes"/>
      <point x="445" y="378"/>
      <point x="448" y="382"/>
      <point x="450" y="394" type="curve" smooth="yes"/>
      <point x="451.287" y="399.793"/>
      <point x="451.945" y="405.322"/>
      <point x="451.945" y="410.557" type="curve" smooth="yes"/>
      <point x="451.945" y="445.986"/>
      <point x="421.829" y="468"/>
      <point x="353" y="468" type="curve" smooth="yes"/>
      <point x="272" y="468"/>
      <point x="210" y="438"/>
      <point x="198" y="385" type="curve"/>
      <point x="196.745" y="378.903"/>
      <point x="196.157" y="373.183"/>
      <point x="196.157" y="367.813" type="curve" smooth="yes"/>
      <point x="196.157" y="313.29"/>
      <point x="256.766" y="294.745"/>
      <point x="295" y="282" type="curve" smooth="yes"/>
      <point x="371.513" y="255.616"/>
      <point x="432.557" y="235.42"/>
      <point x="432.557" y="165.633" type="curve" smooth="yes"/>
      <point x="432.557" y="156.068"/>
      <point x="431.411" y="145.572"/>
      <point x="429" y="134" type="curve" smooth="yes"/>
      <point x="415" y="70"/>
      <point x="335" y="-2"/>
      <point x="232" y="-2" type="curve" smooth="yes"/>
      <point x="120.121" y="-2"/>
      <point x="79.2004" y="77.508"/>
      <point x="79.2004" y="114.79" type="curve" smooth="yes"/>
      <point x="79.2004" y="117.829"/>
      <point x="79.4723" y="120.588"/>
      <point x="80" y="123" type="curve" smooth="yes"/>
      <point x="82" y="132"/>
      <point x="91" y="141"/>
      <point x="100" y="141" type="curve" smooth="yes"/>
      <point x="109" y="141"/>
      <point x="113" y="135"/>
      <point x="114" y="128" type="curve" smooth="yes"/>
      <point x="121" y="69"/>
      <point x="167" y="32"/>
      <point x="239" y="32" type="curve" smooth="yes"/>
      <point x="340" y="32"/>
      <point x="387" y="102"/>
      <point x="394" y="135" type="curve" smooth="yes"/>
      <point x="395.817" y="143.755"/>
      <point x="396.843" y="151.855"/>
      <point x="396.843" y="159.422" type="curve" smooth="yes"/>
      <point x="396.843" y="197.663"/>
      <point x="370.646" y="222.286"/>
      <point x="288" y="249" type="curve" smooth="yes"/>
      <point x="205.558" y="275.902"/>
      <point x="163.03" y="308.829"/>
      <point x="163.03" y="360.851" type="curve" smooth="yes"/>
      <point x="163.03" y="368.776"/>
      <point x="164.017" y="377.143"/>
      <point x="166" y="386" type="curve" smooth="yes"/>
      <point x="185" y="476"/>
      <point x="287" y="499"/>
      <point x="357" y="499" type="curve" smooth="yes"/>
      <point x="442.409" y="499"/>
      <point x="487.503" y="466.438"/>
      <point x="487.503" y="414.966" type="curve" smooth="yes"/>
      <point x="487.503" y="407.981"/>
      <point x="486.673" y="400.647"/>
      <point x="485" y="393" type="curve" smooth="yes"/>
      <point x="480" y="369"/>
      <point x="471" y="355"/>
      <point x="458" y="355" type="curve" smooth="yes"/>
      <point x="446" y="355"/>
      <point x="442" y="364"/>
    </contour>
  </outline>
</glyph>
<glyph name="v" format="1">
  <advance width="426"/>
  <unicode hex="0076"/>
  <outline>
    <contour>
      <point x="522" y="473" type="curve" smooth="yes"/>
      <point x="237" y="11" type="line" smooth="yes"/>
      <point x="232" y="4"/>
      <point x="226" y="-1"/>
      <point x="217" y="-1" type="curve" smooth="yes"/>
      <point x="207" y="-1"/>
      <point x="204" y="4"/>
      <point x="202" y="13" type="curve" smooth="yes"/>
      <point x="113" y="472" type="line" smooth="yes"/>
      <point x="112" y="475"/>
      <point x="112" y="479"/>
      <point x="113" y="482" type="curve" smooth="yes"/>
      <point x="115" y="493"/>
      <point x="128" y="499"/>
      <point x="138" y="499" type="curve" smooth="yes"/>
      <point x="146" y="499"/>
      <point x="151" y="494"/>
      <point x="152" y="486" type="curve" smooth="yes"/>
      <point x="231" y="59" type="line"/>
      <point x="489" y="489" type="line" smooth="yes"/>
      <point x="494" y="496"/>
      <point x="500" y="500"/>
      <point x="510" y="500" type="curve" smooth="yes"/>
      <point x="521" y="500"/>
      <point x="528" y="493"/>
      <point x="526" y="484" type="curve"/>
      <point x="526" y="480"/>
      <point x="525" y="478"/>
    </contour>
  </outline>
</glyph>
<glyph name="w" format="1">
  <advance width="584"/>
  <unicode hex="0077"/>
  <outline>
    <contour>
      <point x="141" y="61" type="line"/>
      <point x="380" y="486" type="line" smooth="yes"/>
      <point x="385" y="494"/>
      <point x="393" y="500"/>
      <point x="404" y="500" type="curve" smooth="yes"/>
      <point x="414" y="500"/>
      <point x="420" y="495"/>
      <point x="420" y="481" type="curve" smooth="yes"/>
      <point x="433" y="61" type="line"/>
      <point x="652" y="483" type="line" smooth="yes"/>
      <point x="657" y="493"/>
      <point x="666" y="499"/>
      <point x="674" y="499" type="curve" smooth="yes"/>
      <point x="685" y="499"/>
      <point x="691" y="493"/>
      <point x="689" y="484" type="curve"/>
      <point x="689" y="480"/>
      <point x="687" y="477"/>
      <point x="685" y="474" type="curve" smooth="yes"/>
      <point x="441" y="16" type="line" smooth="yes"/>
      <point x="436" y="6"/>
      <point x="428" y="0"/>
      <point x="420" y="0" type="curve" smooth="yes"/>
      <point x="411" y="0"/>
      <point x="405" y="6"/>
      <point x="405" y="15" type="curve" smooth="yes"/>
      <point x="387" y="433" type="line"/>
      <point x="148" y="15" type="line" smooth="yes"/>
      <point x="143" y="6"/>
      <point x="136" y="0"/>
      <point x="127" y="0" type="curve" smooth="yes"/>
      <point x="118" y="0"/>
      <point x="112" y="5"/>
      <point x="111" y="17" type="curve"/>
      <point x="111" y="469" type="line" smooth="yes"/>
      <point x="111" y="473"/>
      <point x="111" y="479"/>
      <point x="112" y="481" type="curve" smooth="yes"/>
      <point x="114" y="492"/>
      <point x="124" y="500"/>
      <point x="133" y="500" type="curve" smooth="yes"/>
      <point x="143" y="500"/>
      <point x="149" y="494"/>
      <point x="148" y="483" type="curve"/>
    </contour>
  </outline>
</glyph>
<glyph name="y" format="1">
  <advance width="479"/>
  <unicode hex="0079"/>
  <outline>
    <contour>
      <point x="564" y="470" type="line" smooth="yes"/>
      <point x="567" y="474"/>
      <point x="569" y="479"/>
      <point x="570" y="482" type="curve" smooth="yes"/>
      <point x="572" y="493"/>
      <point x="566" y="501"/>
      <point x="555" y="501" type="curve" smooth="yes"/>
      <point x="547" y="501"/>
      <point x="539" y="496"/>
      <point x="534" y="489" type="curve" smooth="yes"/>
      <point x="271" y="98" type="line"/>
      <point x="162" y="487" type="line" smooth="yes"/>
      <point x="159" y="496"/>
      <point x="153" y="500"/>
      <point x="146" y="500" type="curve" smooth="yes"/>
      <point x="135" y="500"/>
      <point x="125" y="491"/>
      <point x="123" y="480" type="curve" smooth="yes"/>
      <point x="122" y="476"/>
      <point x="122" y="473"/>
      <point x="123" y="469" type="curve" smooth="yes"/>
      <point x="242" y="53" type="line"/>
      <point x="90" y="-173" type="line" smooth="yes"/>
      <point x="87" y="-178"/>
      <point x="84" y="-183"/>
      <point x="83" y="-187" type="curve" smooth="yes"/>
      <point x="81" y="-197"/>
      <point x="89" y="-205"/>
      <point x="99" y="-205" type="curve" smooth="yes"/>
      <point x="107" y="-205"/>
      <point x="114" y="-201"/>
      <point x="119" y="-193" type="curve" smooth="yes"/>
    </contour>
  </outline>
</glyph>
<glyph name="z" format="1">
  <advance width="499"/>
  <unicode hex="007A"/>
  <outline>
    <contour>
      <point x="63" y="30" type="curve"/>
      <point x="498" y="463" type="line"/>
      <point x="180" y="463" type="line" smooth="yes"/>
      <point x="170" y="463"/>
      <point x="164" y="471"/>
      <point x="166" y="481" type="curve" smooth="yes"/>
      <point x="168" y="492"/>
      <point x="178" y="500"/>
      <point x="188" y="500" type="curve" smooth="yes"/>
      <point x="540" y="500" type="line" smooth="yes"/>
      <point x="550" y="500"/>
      <point x="556" y="492"/>
      <point x="554" y="481" type="curve" smooth="yes"/>
      <point x="553" y="477"/>
      <point x="551" y="473"/>
      <point x="547" y="470" type="curve" smooth="yes"/>
      <point x="111" y="36" type="line"/>
      <point x="446" y="36" type="line" smooth="yes"/>
      <point x="456" y="36"/>
      <point x="463" y="28"/>
      <point x="461" y="18" type="curve" smooth="yes"/>
      <point x="459" y="7"/>
      <point x="448" y="-1"/>
      <point x="438" y="-1" type="curve" smooth="yes"/>
      <point x="70" y="-1" type="line" smooth="yes"/>
      <point x="60" y="-1"/>
      <point x="53" y="7"/>
      <point x="55" y="18" type="curve" smooth="yes"/>
      <point x="56" y="22"/>
      <point x="58" y="24"/>
    </contour>
  </outline>
</glyph>
<glyph name="bar" format="1">
  <advance width="183"/>
  <unicode hex="007C"/>
  <outline>
    <contour>
      <point x="55" y="-175" type="curve" smooth="yes"/>
      <point x="65" y="-175"/>
      <point x="76" y="-167"/>
      <point x="78" y="-156" type="curve" smooth="yes"/>
      <point x="289" y="836" type="line" smooth="yes"/>
      <point x="291" y="846"/>
      <point x="284" y="854"/>
      <point x="274" y="854" type="curve" smooth="yes"/>
      <point x="264" y="854"/>
      <point x="253" y="846"/>
      <point x="251" y="836" type="curve" smooth="yes"/>
      <point x="40" y="-156" type="line" smooth="yes"/>
      <point x="38" y="-167"/>
      <point x="45" y="-175"/>
    </contour>
  </outline>
</glyph>
<glyph name="exclamdown" format="1">
  <advance width="186"/>
  <unicode hex="00A1"/>
  <outline>
    <contour>
      <point x="170" y="318" type="line" smooth="yes"/>
      <point x="172" y="328"/>
      <point x="164" y="338"/>
      <point x="154" y="338" type="curve" smooth="yes"/>
      <point x="143" y="338"/>
      <point x="132" y="328"/>
      <point x="130" y="318" type="curve" smooth="yes"/>
      <point x="23" y="-184" type="line" smooth="yes"/>
      <point x="21" y="-196"/>
      <point x="28" y="-205"/>
      <point x="39" y="-205" type="curve" smooth="yes"/>
      <point x="49" y="-205"/>
      <point x="61" y="-196"/>
      <point x="63" y="-184" type="curve" smooth="yes"/>
    </contour>
    <contour>
      <point x="158" y="457" type="curve" smooth="yes"/>
      <point x="155" y="443"/>
      <point x="161" y="430"/>
      <point x="175" y="430" type="curve" smooth="yes"/>
      <point x="192" y="430"/>
      <point x="210" y="448"/>
      <point x="214" y="468" type="curve" smooth="yes"/>
      <point x="217" y="483"/>
      <point x="211" y="496"/>
      <point x="197" y="496" type="curve" smooth="yes"/>
      <point x="182" y="496"/>
      <point x="162" y="479"/>
    </contour>
  </outline>
</glyph>
<glyph name="sterling" format="1">
  <advance width="734"/>
  <unicode hex="00A3"/>
  <outline>
    <contour>
      <point x="700" y="143" type="curve" smooth="yes"/>
      <point x="708.427" y="143"/>
      <point x="712.231" y="137.118"/>
      <point x="712.231" y="129.438" type="curve" smooth="yes"/>
      <point x="712.231" y="125.27"/>
      <point x="711.111" y="120.573"/>
      <point x="709" y="116" type="curve" smooth="yes"/>
      <point x="660" y="6"/>
      <point x="577" y="-10"/>
      <point x="532" y="-10" type="curve" smooth="yes"/>
      <point x="480" y="-10"/>
      <point x="426" y="10"/>
      <point x="381" y="51" type="curve" smooth="yes"/>
      <point x="363" y="67"/>
      <point x="341" y="74"/>
      <point x="319" y="74" type="curve" smooth="yes"/>
      <point x="262" y="74"/>
      <point x="211" y="40"/>
      <point x="176" y="17" type="curve" smooth="yes"/>
      <point x="161" y="6"/>
      <point x="152" y="0"/>
      <point x="146" y="0" type="curve" smooth="yes"/>
      <point x="137" y="0"/>
      <point x="130" y="8"/>
      <point x="132" y="18" type="curve" smooth="yes"/>
      <point x="134" y="24"/>
      <point x="138" y="29"/>
      <point x="142" y="32" type="curve" smooth="yes"/>
      <point x="212" y="78"/>
      <point x="256" y="152"/>
      <point x="268" y="209" type="curve" smooth="yes"/>
      <point x="271.312" y="224.613"/>
      <point x="272.385" y="240.001"/>
      <point x="272.385" y="254.954" type="curve" smooth="yes"/>
      <point x="272.385" y="271.607"/>
      <point x="271.054" y="287.72"/>
      <point x="270" y="303" type="curve" smooth="yes"/>
      <point x="268" y="341" type="line"/>
      <point x="154" y="341" type="line" smooth="yes"/>
      <point x="145" y="341"/>
      <point x="138" y="349"/>
      <point x="140" y="358" type="curve" smooth="yes"/>
      <point x="142" y="368"/>
      <point x="152" y="376"/>
      <point x="161" y="376" type="curve" smooth="yes"/>
      <point x="268" y="376" type="line"/>
      <point x="271" y="422"/>
      <point x="275" y="461"/>
      <point x="282" y="492" type="curve" smooth="yes"/>
      <point x="316" y="653"/>
      <point x="417" y="736"/>
      <point x="587" y="736" type="curve" smooth="yes"/>
      <point x="716" y="736"/>
      <point x="746" y="636"/>
      <point x="747" y="557" type="curve" smooth="yes"/>
      <point x="747" y="543"/>
      <point x="739" y="531"/>
      <point x="725" y="531" type="curve" smooth="yes"/>
      <point x="714" y="531"/>
      <point x="711" y="539"/>
      <point x="712" y="551" type="curve"/>
      <point x="712.039" y="552.814"/>
      <point x="712.058" y="554.614"/>
      <point x="712.058" y="556.4" type="curve" smooth="yes"/>
      <point x="712.058" y="647.141"/>
      <point x="662.398" y="701"/>
      <point x="581" y="701" type="curve" smooth="yes"/>
      <point x="427" y="701"/>
      <point x="347" y="638"/>
      <point x="316" y="492" type="curve" smooth="yes"/>
      <point x="309" y="461"/>
      <point x="304" y="422"/>
      <point x="303" y="376" type="curve"/>
      <point x="559" y="376" type="line" smooth="yes"/>
      <point x="568" y="376"/>
      <point x="576" y="368"/>
      <point x="574" y="358" type="curve" smooth="yes"/>
      <point x="572" y="349"/>
      <point x="561" y="341"/>
      <point x="552" y="341" type="curve" smooth="yes"/>
      <point x="304" y="341" type="line"/>
      <point x="304" y="341"/>
      <point x="304" y="304"/>
      <point x="306" y="293" type="curve"/>
      <point x="306.408" y="282.386"/>
      <point x="306.816" y="270.771"/>
      <point x="306.816" y="258.973" type="curve" smooth="yes"/>
      <point x="306.816" y="241.872"/>
      <point x="305.959" y="224.386"/>
      <point x="303" y="209" type="curve" smooth="yes"/>
      <point x="297" y="181"/>
      <point x="283" y="133"/>
      <point x="248" y="93" type="curve"/>
      <point x="283" y="107"/>
      <point x="310" y="109"/>
      <point x="327" y="109" type="curve" smooth="yes"/>
      <point x="358" y="109"/>
      <point x="386" y="98"/>
      <point x="409" y="79" type="curve"/>
      <point x="446" y="45"/>
      <point x="497" y="25"/>
      <point x="540" y="25" type="curve" smooth="yes"/>
      <point x="600" y="25"/>
      <point x="648" y="57"/>
      <point x="677" y="123" type="curve" smooth="yes"/>
      <point x="683" y="137"/>
      <point x="691" y="143"/>
    </contour>
  </outline>
</glyph>
<glyph name="yen" format="1">
  <advance width="563"/>
  <unicode hex="00A5"/>
  <outline>
    <contour>
      <point x="638" y="674" type="curve" smooth="yes"/>
      <point x="382" y="336" type="line"/>
      <point x="498" y="336" type="line" smooth="yes"/>
      <point x="507" y="336"/>
      <point x="513" y="327"/>
      <point x="511" y="318" type="curve" smooth="yes"/>
      <point x="509" y="308"/>
      <point x="499" y="300"/>
      <point x="490" y="300" type="curve" smooth="yes"/>
      <point x="357" y="300" type="line"/>
      <point x="331" y="175" type="line"/>
      <point x="464" y="175" type="line" smooth="yes"/>
      <point x="473" y="175"/>
      <point x="479" y="167"/>
      <point x="477" y="157" type="curve" smooth="yes"/>
      <point x="475" y="148"/>
      <point x="465" y="140"/>
      <point x="456" y="140" type="curve" smooth="yes"/>
      <point x="323" y="140" type="line"/>
      <point x="298" y="19" type="line"/>
      <point x="295" y="8"/>
      <point x="286" y="0"/>
      <point x="276" y="0" type="curve" smooth="yes"/>
      <point x="265" y="0"/>
      <point x="258" y="8"/>
      <point x="261" y="19" type="curve"/>
      <point x="286" y="140" type="line"/>
      <point x="155" y="140" type="line" smooth="yes"/>
      <point x="145" y="140"/>
      <point x="139" y="148"/>
      <point x="141" y="157" type="curve" smooth="yes"/>
      <point x="143" y="167"/>
      <point x="153" y="175"/>
      <point x="163" y="175" type="curve" smooth="yes"/>
      <point x="294" y="175" type="line"/>
      <point x="320" y="300" type="line"/>
      <point x="189" y="300" type="line" smooth="yes"/>
      <point x="179" y="300"/>
      <point x="173" y="308"/>
      <point x="175" y="318" type="curve" smooth="yes"/>
      <point x="177" y="327"/>
      <point x="187" y="336"/>
      <point x="197" y="336" type="curve" smooth="yes"/>
      <point x="312" y="336" type="line"/>
      <point x="216" y="673" type="line" smooth="yes"/>
      <point x="215" y="676"/>
      <point x="215" y="678"/>
      <point x="215" y="681" type="curve" smooth="yes"/>
      <point x="217" y="691"/>
      <point x="228" y="700"/>
      <point x="239" y="700" type="curve" smooth="yes"/>
      <point x="245" y="700"/>
      <point x="252" y="697"/>
      <point x="253" y="691" type="curve"/>
      <point x="351" y="350" type="line"/>
      <point x="609" y="692" type="line" smooth="yes"/>
      <point x="614" y="699"/>
      <point x="621" y="702"/>
      <point x="627" y="702" type="curve" smooth="yes"/>
      <point x="637" y="702"/>
      <point x="645" y="695"/>
      <point x="643" y="685" type="curve" smooth="yes"/>
      <point x="642" y="681"/>
      <point x="641" y="678"/>
    </contour>
  </outline>
</glyph>
<glyph name="section" format="1">
  <advance width="447"/>
  <unicode hex="00A7"/>
  <outline>
    <contour>
      <point x="307" y="404" type="curve" smooth="yes"/>
      <point x="288" y="411"/>
      <point x="266" y="421"/>
      <point x="234" y="440" type="curve"/>
      <point x="214" y="422"/>
      <point x="203" y="405"/>
      <point x="199" y="386" type="curve" smooth="yes"/>
      <point x="197.745" y="380.172"/>
      <point x="197.157" y="374.681"/>
      <point x="197.157" y="369.505" type="curve" smooth="yes"/>
      <point x="197.157" y="316.948"/>
      <point x="257.766" y="296.745"/>
      <point x="296" y="284" type="curve"/>
      <point x="333" y="273"/>
      <point x="371" y="257"/>
      <point x="401" y="239" type="curve"/>
      <point x="416" y="260"/>
      <point x="423" y="277"/>
      <point x="427" y="293" type="curve" smooth="yes"/>
      <point x="428.376" y="299.456"/>
      <point x="429.046" y="305.476"/>
      <point x="429.046" y="311.112" type="curve" smooth="yes"/>
      <point x="429.046" y="358.724"/>
      <point x="381.215" y="378.964"/>
    </contour>
    <contour>
      <point x="481" y="545" type="curve" smooth="yes"/>
      <point x="482.287" y="550.793"/>
      <point x="482.945" y="556.322"/>
      <point x="482.945" y="561.557" type="curve" smooth="yes"/>
      <point x="482.945" y="596.986"/>
      <point x="452.829" y="619"/>
      <point x="384" y="619" type="curve" smooth="yes"/>
      <point x="304" y="619"/>
      <point x="241" y="589"/>
      <point x="229" y="535" type="curve" smooth="yes"/>
      <point x="227.76" y="529.066"/>
      <point x="227.179" y="523.493"/>
      <point x="227.179" y="518.254" type="curve" smooth="yes"/>
      <point x="227.179" y="464.335"/>
      <point x="288.72" y="445.76"/>
      <point x="327" y="433" type="curve" smooth="yes"/>
      <point x="402.626" y="406.619"/>
      <point x="463.559" y="386.424"/>
      <point x="463.559" y="316.655" type="curve" smooth="yes"/>
      <point x="463.559" y="307.084"/>
      <point x="462.413" y="296.58"/>
      <point x="460" y="285" type="curve" smooth="yes"/>
      <point x="456" y="265"/>
      <point x="443" y="241"/>
      <point x="422" y="217" type="curve"/>
      <point x="428.547" y="202.596"/>
      <point x="432.522" y="186.478"/>
      <point x="432.522" y="167.802" type="curve" smooth="yes"/>
      <point x="432.522" y="157.954"/>
      <point x="431.417" y="147.394"/>
      <point x="429" y="136" type="curve" smooth="yes"/>
      <point x="416" y="72"/>
      <point x="336" y="0"/>
      <point x="233" y="0" type="curve" smooth="yes"/>
      <point x="120.948" y="-1.42109e-14"/>
      <point x="79.2163" y="79.7544"/>
      <point x="79.2163" y="116.963" type="curve" smooth="yes"/>
      <point x="79.2163" y="119.934"/>
      <point x="79.4824" y="122.634"/>
      <point x="80" y="125" type="curve" smooth="yes"/>
      <point x="82" y="134"/>
      <point x="91" y="143"/>
      <point x="101" y="143" type="curve" smooth="yes"/>
      <point x="110" y="143"/>
      <point x="114" y="137"/>
      <point x="114" y="130" type="curve"/>
      <point x="122" y="71"/>
      <point x="168" y="34"/>
      <point x="240" y="34" type="curve" smooth="yes"/>
      <point x="341" y="34"/>
      <point x="387" y="100"/>
      <point x="396" y="143" type="curve" smooth="yes"/>
      <point x="397.659" y="150.962"/>
      <point x="398.63" y="158.347"/>
      <point x="398.63" y="165.276" type="curve" smooth="yes"/>
      <point x="398.63" y="200.123"/>
      <point x="374.08" y="223.474"/>
      <point x="289" y="251" type="curve" smooth="yes"/>
      <point x="203.175" y="277.874"/>
      <point x="163.195" y="310.01"/>
      <point x="163.195" y="362.391" type="curve" smooth="yes"/>
      <point x="163.195" y="370.432"/>
      <point x="164.137" y="378.95"/>
      <point x="166" y="388" type="curve" smooth="yes"/>
      <point x="172" y="416"/>
      <point x="188" y="440"/>
      <point x="210" y="460" type="curve"/>
      <point x="199.487" y="476.12"/>
      <point x="193.886" y="493.223"/>
      <point x="193.886" y="511.996" type="curve" smooth="yes"/>
      <point x="193.886" y="520.009"/>
      <point x="194.906" y="528.325"/>
      <point x="197" y="537" type="curve"/>
      <point x="216" y="627"/>
      <point x="319" y="650"/>
      <point x="389" y="650" type="curve" smooth="yes"/>
      <point x="474.939" y="650"/>
      <point x="518.583" y="617.702"/>
      <point x="518.583" y="566.593" type="curve" smooth="yes"/>
      <point x="518.583" y="559.42"/>
      <point x="517.723" y="551.877"/>
      <point x="516" y="544" type="curve" smooth="yes"/>
      <point x="511" y="520"/>
      <point x="502" y="506"/>
      <point x="489" y="506" type="curve" smooth="yes"/>
      <point x="477" y="506"/>
      <point x="473" y="515"/>
      <point x="475" y="524" type="curve" smooth="yes"/>
      <point x="476" y="529"/>
      <point x="479" y="533"/>
    </contour>
  </outline>
</glyph>
<glyph name="dieresis" format="1">
  <advance width="490"/>
  <unicode hex="00A8"/>
  <outline>
    <contour>
      <point x="342" y="636" type="curve" smooth="yes"/>
      <point x="345" y="652"/>
      <point x="330" y="666"/>
      <point x="311" y="666" type="curve" smooth="yes"/>
      <point x="287" y="666"/>
      <point x="264" y="649"/>
      <point x="260" y="630" type="curve" smooth="yes"/>
      <point x="257" y="613"/>
      <point x="271" y="600"/>
      <point x="291" y="600" type="curve" smooth="yes"/>
      <point x="315" y="600"/>
      <point x="337" y="616"/>
    </contour>
    <contour>
      <point x="507" y="636" type="curve" smooth="yes"/>
      <point x="510" y="652"/>
      <point x="495" y="666"/>
      <point x="477" y="666" type="curve" smooth="yes"/>
      <point x="453" y="666"/>
      <point x="430" y="649"/>
      <point x="426" y="630" type="curve" smooth="yes"/>
      <point x="423" y="613"/>
      <point x="437" y="600"/>
      <point x="456" y="600" type="curve" smooth="yes"/>
      <point x="480" y="600"/>
      <point x="502" y="616"/>
    </contour>
  </outline>
</glyph>
<glyph name="copyright" format="1">
  <advance width="534"/>
  <unicode hex="00A9"/>
  <outline>
    <contour>
      <point x="325" y="246" type="curve" smooth="yes"/>
      <point x="219.32" y="246"/>
      <point x="146.655" y="322.536"/>
      <point x="146.655" y="423.61" type="curve" smooth="yes"/>
      <point x="146.655" y="439.219"/>
      <point x="148.388" y="455.413"/>
      <point x="152" y="472" type="curve" smooth="yes"/>
      <point x="178" y="596"/>
      <point x="299" y="698"/>
      <point x="421" y="698" type="curve" smooth="yes"/>
      <point x="527.012" y="698"/>
      <point x="599.046" y="620.982"/>
      <point x="599.046" y="519.437" type="curve" smooth="yes"/>
      <point x="599.046" y="504.122"/>
      <point x="597.407" y="488.25"/>
      <point x="594" y="472" type="curve" smooth="yes"/>
      <point x="567" y="348"/>
      <point x="447" y="246"/>
    </contour>
    <contour>
      <point x="415" y="671" type="curve" smooth="yes"/>
      <point x="307" y="671"/>
      <point x="202" y="582"/>
      <point x="179" y="472" type="curve" smooth="yes"/>
      <point x="175.745" y="457.08"/>
      <point x="174.182" y="442.547"/>
      <point x="174.182" y="428.569" type="curve" smooth="yes"/>
      <point x="174.182" y="339.494"/>
      <point x="237.648" y="273"/>
      <point x="331" y="273" type="curve" smooth="yes"/>
      <point x="438" y="273"/>
      <point x="543" y="362"/>
      <point x="567" y="472" type="curve" smooth="yes"/>
      <point x="570.02" y="486.443"/>
      <point x="571.471" y="500.524"/>
      <point x="571.471" y="514.089" type="curve" smooth="yes"/>
      <point x="571.471" y="603.837"/>
      <point x="507.951" y="671"/>
    </contour>
    <contour>
      <point x="461" y="416" type="curve" smooth="yes"/>
      <point x="436" y="390"/>
      <point x="398" y="363"/>
      <point x="341" y="363" type="curve" smooth="yes"/>
      <point x="287.644" y="363"/>
      <point x="249.59" y="401.254"/>
      <point x="249.59" y="450.993" type="curve" smooth="yes"/>
      <point x="249.59" y="458.119"/>
      <point x="250.371" y="465.481"/>
      <point x="252" y="473" type="curve" smooth="yes"/>
      <point x="268" y="547"/>
      <point x="327" y="595"/>
      <point x="401" y="595" type="curve" smooth="yes"/>
      <point x="431" y="595"/>
      <point x="452" y="582"/>
      <point x="468" y="570" type="curve" smooth="yes"/>
      <point x="474" y="565"/>
      <point x="474" y="561"/>
      <point x="473" y="556" type="curve" smooth="yes"/>
      <point x="471" y="549"/>
      <point x="465" y="543"/>
      <point x="457" y="543" type="curve" smooth="yes"/>
      <point x="454" y="543"/>
      <point x="450" y="544"/>
      <point x="446" y="548" type="curve" smooth="yes"/>
      <point x="437" y="557"/>
      <point x="418" y="568"/>
      <point x="395" y="568" type="curve" smooth="yes"/>
      <point x="309" y="568"/>
      <point x="286" y="502"/>
      <point x="280" y="473" type="curve" smooth="yes"/>
      <point x="278.663" y="466.925"/>
      <point x="278.036" y="461.101"/>
      <point x="278.036" y="455.556" type="curve" smooth="yes"/>
      <point x="278.036" y="415.468"/>
      <point x="310.86" y="390"/>
      <point x="346" y="390" type="curve" smooth="yes"/>
      <point x="380" y="390"/>
      <point x="416" y="401"/>
      <point x="440" y="430" type="curve" smooth="yes"/>
      <point x="448" y="439"/>
      <point x="451" y="441"/>
      <point x="456" y="441" type="curve" smooth="yes"/>
      <point x="464" y="441"/>
      <point x="469" y="435"/>
      <point x="467" y="427" type="curve" smooth="yes"/>
      <point x="467" y="424"/>
      <point x="465" y="420"/>
    </contour>
  </outline>
</glyph>
<glyph name="guillemotleft" format="1">
  <advance width="581"/>
  <unicode hex="00AB"/>
  <outline>
    <contour>
      <point x="277" y="78" type="curve" smooth="yes"/>
      <point x="273" y="78"/>
      <point x="269" y="79"/>
      <point x="265" y="83" type="curve" smooth="yes"/>
      <point x="127" y="235" type="line" smooth="yes"/>
      <point x="124" y="238"/>
      <point x="122" y="243"/>
      <point x="123" y="249" type="curve" smooth="yes"/>
      <point x="124" y="254"/>
      <point x="127" y="259"/>
      <point x="134" y="264" type="curve" smooth="yes"/>
      <point x="355" y="425" type="line" smooth="yes"/>
      <point x="361" y="429"/>
      <point x="366" y="430"/>
      <point x="369" y="430" type="curve" smooth="yes"/>
      <point x="378" y="430"/>
      <point x="385" y="422"/>
      <point x="383" y="412" type="curve" smooth="yes"/>
      <point x="382" y="406"/>
      <point x="378" y="401"/>
      <point x="373" y="397" type="curve" smooth="yes"/>
      <point x="171" y="249" type="line"/>
      <point x="296" y="110" type="line" smooth="yes"/>
      <point x="300" y="105"/>
      <point x="301" y="101"/>
      <point x="300" y="96" type="curve" smooth="yes"/>
      <point x="298" y="87"/>
      <point x="287" y="78"/>
    </contour>
    <contour>
      <point x="487" y="78" type="curve" smooth="yes"/>
      <point x="483" y="78"/>
      <point x="479" y="79"/>
      <point x="475" y="83" type="curve" smooth="yes"/>
      <point x="337" y="235" type="line" smooth="yes"/>
      <point x="334" y="238"/>
      <point x="332" y="243"/>
      <point x="333" y="249" type="curve" smooth="yes"/>
      <point x="334" y="254"/>
      <point x="337" y="259"/>
      <point x="344" y="264" type="curve" smooth="yes"/>
      <point x="565" y="425" type="line" smooth="yes"/>
      <point x="571" y="429"/>
      <point x="576" y="430"/>
      <point x="579" y="430" type="curve" smooth="yes"/>
      <point x="588" y="430"/>
      <point x="595" y="422"/>
      <point x="593" y="412" type="curve" smooth="yes"/>
      <point x="592" y="406"/>
      <point x="588" y="401"/>
      <point x="583" y="397" type="curve" smooth="yes"/>
      <point x="381" y="249" type="line"/>
      <point x="506" y="110" type="line" smooth="yes"/>
      <point x="510" y="105"/>
      <point x="511" y="101"/>
      <point x="510" y="96" type="curve" smooth="yes"/>
      <point x="508" y="87"/>
      <point x="497" y="78"/>
    </contour>
  </outline>
</glyph>
<glyph name="registered" format="1">
  <advance width="534"/>
  <unicode hex="00AE"/>
  <outline>
    <contour>
      <point x="325" y="246" type="curve" smooth="yes"/>
      <point x="447" y="246"/>
      <point x="567" y="348"/>
      <point x="594" y="472" type="curve" smooth="yes"/>
      <point x="620" y="596"/>
      <point x="543" y="698"/>
      <point x="421" y="698" type="curve" smooth="yes"/>
      <point x="299" y="698"/>
      <point x="178" y="596"/>
      <point x="152" y="472" type="curve" smooth="yes"/>
      <point x="125" y="348"/>
      <point x="203" y="246"/>
    </contour>
    <contour>
      <point x="415" y="671" type="curve" smooth="yes"/>
      <point x="522" y="671"/>
      <point x="590" y="582"/>
      <point x="567" y="472" type="curve" smooth="yes"/>
      <point x="543" y="362"/>
      <point x="438" y="273"/>
      <point x="331" y="273" type="curve" smooth="yes"/>
      <point x="223" y="273"/>
      <point x="155" y="362"/>
      <point x="179" y="472" type="curve" smooth="yes"/>
      <point x="202" y="582"/>
      <point x="307" y="671"/>
    </contour>
    <contour>
      <point x="495" y="530" type="curve" smooth="yes"/>
      <point x="503" y="569"/>
      <point x="471" y="594"/>
      <point x="400" y="594" type="curve" smooth="yes"/>
      <point x="333" y="594"/>
      <point x="331" y="590"/>
      <point x="326" y="578" type="curve" smooth="yes"/>
      <point x="257" y="394" type="line" smooth="yes"/>
      <point x="253" y="384"/>
      <point x="259" y="378"/>
      <point x="266" y="378" type="curve" smooth="yes"/>
      <point x="274" y="378"/>
      <point x="281" y="384"/>
      <point x="284" y="392" type="curve" smooth="yes"/>
      <point x="311" y="463" type="line"/>
      <point x="414" y="379" type="line" smooth="yes"/>
      <point x="417" y="377"/>
      <point x="419" y="377"/>
      <point x="421" y="377" type="curve" smooth="yes"/>
      <point x="429" y="377"/>
      <point x="436" y="383"/>
      <point x="438" y="391" type="curve" smooth="yes"/>
      <point x="439" y="396"/>
      <point x="438" y="399"/>
      <point x="436" y="401" type="curve" smooth="yes"/>
      <point x="360" y="461" type="line"/>
      <point x="420" y="472"/>
      <point x="487" y="492"/>
    </contour>
    <contour>
      <point x="349" y="565" type="line"/>
      <point x="366" y="567"/>
      <point x="375" y="567"/>
      <point x="385" y="567" type="curve" smooth="yes"/>
      <point x="427" y="567"/>
      <point x="474" y="557"/>
      <point x="468" y="531" type="curve" smooth="yes"/>
      <point x="464" y="511"/>
      <point x="393" y="489"/>
      <point x="319" y="484" type="curve"/>
    </contour>
  </outline>
</glyph>
<glyph name="degree" format="1">
  <advance width="233"/>
  <unicode hex="00B0"/>
  <outline>
    <contour>
      <point x="222" y="483" type="curve" smooth="yes"/>
      <point x="285" y="483"/>
      <point x="348" y="536"/>
      <point x="362" y="600" type="curve" smooth="yes"/>
      <point x="376" y="665"/>
      <point x="335" y="717"/>
      <point x="272" y="717" type="curve" smooth="yes"/>
      <point x="207" y="717"/>
      <point x="144" y="665"/>
      <point x="130" y="600" type="curve" smooth="yes"/>
      <point x="116" y="536"/>
      <point x="157" y="483"/>
    </contour>
    <contour>
      <point x="266" y="690" type="curve" smooth="yes"/>
      <point x="316" y="690"/>
      <point x="347" y="650"/>
      <point x="336" y="600" type="curve" smooth="yes"/>
      <point x="325" y="550"/>
      <point x="278" y="511"/>
      <point x="228" y="511" type="curve" smooth="yes"/>
      <point x="179" y="511"/>
      <point x="145" y="550"/>
      <point x="156" y="600" type="curve" smooth="yes"/>
      <point x="167" y="650"/>
      <point x="217" y="690"/>
    </contour>
  </outline>
</glyph>
<glyph name="acute" format="1">
  <advance width="490"/>
  <unicode hex="00B4"/>
  <outline>
    <contour>
      <point x="476" y="692" type="curve" smooth="yes"/>
      <point x="312" y="594" type="line" smooth="yes"/>
      <point x="304" y="589"/>
      <point x="298" y="587"/>
      <point x="294" y="587" type="curve" smooth="yes"/>
      <point x="285" y="587"/>
      <point x="279" y="595"/>
      <point x="281" y="604" type="curve" smooth="yes"/>
      <point x="282" y="607"/>
      <point x="283" y="612"/>
      <point x="290" y="617" type="curve" smooth="yes"/>
      <point x="440" y="721" type="line" smooth="yes"/>
      <point x="450" y="728"/>
      <point x="459" y="735"/>
      <point x="469" y="735" type="curve" smooth="yes"/>
      <point x="478.655" y="735"/>
      <point x="487.539" y="724.985"/>
      <point x="487.539" y="713.069" type="curve" smooth="yes"/>
      <point x="487.539" y="711.409"/>
      <point x="487.367" y="709.712"/>
      <point x="487" y="708" type="curve" smooth="yes"/>
      <point x="486" y="701"/>
      <point x="484" y="697"/>
    </contour>
  </outline>
</glyph>
<glyph name="mu" format="1">
  <advance width="490"/>
  <unicode hex="00B5"/>
  <outline>
    <contour>
      <point x="220" y="27" type="curve" smooth="yes"/>
      <point x="317" y="27"/>
      <point x="383" y="89"/>
      <point x="412" y="115" type="curve" smooth="yes"/>
      <point x="425" y="127"/>
      <point x="433" y="143"/>
      <point x="438" y="167" type="curve" smooth="yes"/>
      <point x="507" y="483" type="line" smooth="yes"/>
      <point x="509" y="492"/>
      <point x="520" y="500"/>
      <point x="529" y="500" type="curve" smooth="yes"/>
      <point x="539" y="500"/>
      <point x="546" y="492"/>
      <point x="544" y="483" type="curve" smooth="yes"/>
      <point x="446" y="19" type="line"/>
      <point x="443" y="8"/>
      <point x="433" y="0"/>
      <point x="421" y="0" type="curve" smooth="yes"/>
      <point x="410.012" y="3.55271e-15"/>
      <point x="403.311" y="7.14376"/>
      <point x="403.311" y="17.8085" type="curve" smooth="yes"/>
      <point x="403.311" y="19.7617"/>
      <point x="403.536" y="21.8329"/>
      <point x="404" y="24" type="curve" smooth="yes"/>
      <point x="416" y="82" type="line"/>
      <point x="373" y="34"/>
      <point x="289" y="-3"/>
      <point x="212" y="-3" type="curve" smooth="yes"/>
      <point x="184" y="-3"/>
      <point x="143" y="7"/>
      <point x="120" y="28" type="curve"/>
      <point x="110" y="-35"/>
      <point x="103" y="-120"/>
      <point x="101" y="-168" type="curve" smooth="yes"/>
      <point x="101" y="-177"/>
      <point x="93" y="-189"/>
      <point x="78" y="-189" type="curve" smooth="yes"/>
      <point x="70" y="-189"/>
      <point x="63" y="-185"/>
      <point x="64" y="-176" type="curve" smooth="yes"/>
      <point x="73" y="-35"/>
      <point x="88" y="104"/>
      <point x="120" y="256" type="curve" smooth="yes"/>
      <point x="137" y="336"/>
      <point x="166" y="435"/>
      <point x="179" y="474" type="curve" smooth="yes"/>
      <point x="187" y="496"/>
      <point x="195" y="500"/>
      <point x="206" y="500" type="curve" smooth="yes"/>
      <point x="214" y="500"/>
      <point x="221" y="494"/>
      <point x="218" y="483" type="curve" smooth="yes"/>
      <point x="217" y="479"/>
      <point x="215" y="471"/>
      <point x="212" y="462" type="curve" smooth="yes"/>
      <point x="200" y="427"/>
      <point x="182" y="370"/>
      <point x="166" y="294" type="curve" smooth="yes"/>
      <point x="149.692" y="217.389"/>
      <point x="140.719" y="160.484"/>
      <point x="140.719" y="119.357" type="curve" smooth="yes"/>
      <point x="140.719" y="52.0455"/>
      <point x="164.754" y="27"/>
    </contour>
  </outline>
</glyph>
<glyph name="paragraph" format="1">
  <advance width="549"/>
  <unicode hex="00B6"/>
  <outline>
    <contour>
      <point x="394" y="-68" type="curve" smooth="yes"/>
      <point x="390" y="-79"/>
      <point x="381" y="-84"/>
      <point x="372" y="-84" type="curve" smooth="yes"/>
      <point x="362.096" y="-84"/>
      <point x="358.295" y="-78.3325"/>
      <point x="358.295" y="-71.6031" type="curve" smooth="yes"/>
      <point x="358.295" y="-68.1407"/>
      <point x="359.301" y="-64.3972"/>
      <point x="361" y="-61" type="curve"/>
      <point x="440" y="139"/>
      <point x="525" y="377"/>
      <point x="583" y="650" type="curve"/>
      <point x="588" y="677"/>
      <point x="594" y="704"/>
      <point x="599" y="731" type="curve" smooth="yes"/>
      <point x="601" y="742"/>
      <point x="611" y="751"/>
      <point x="621" y="751" type="curve" smooth="yes"/>
      <point x="631" y="751"/>
      <point x="637" y="743"/>
      <point x="637" y="734" type="curve"/>
      <point x="632" y="705"/>
      <point x="625" y="677"/>
      <point x="620" y="650" type="curve"/>
      <point x="567" y="402"/>
      <point x="483" y="152"/>
    </contour>
    <contour>
      <point x="552" y="763" type="curve" smooth="yes"/>
      <point x="522" y="756" type="line"/>
      <point x="516" y="720"/>
      <point x="507" y="675"/>
      <point x="499" y="639" type="curve" smooth="yes"/>
      <point x="447" y="394"/>
      <point x="359" y="138"/>
      <point x="277" y="-69" type="curve" smooth="yes"/>
      <point x="272" y="-80"/>
      <point x="264" y="-84"/>
      <point x="255" y="-84" type="curve" smooth="yes"/>
      <point x="244.749" y="-84"/>
      <point x="240.103" y="-77.929"/>
      <point x="240.103" y="-70.8931" type="curve" smooth="yes"/>
      <point x="240.103" y="-67.6332"/>
      <point x="241.1" y="-64.1662"/>
      <point x="243" y="-61" type="curve"/>
      <point x="282" y="22"/>
      <point x="369" y="278"/>
      <point x="392" y="364" type="curve"/>
      <point x="361" y="364" type="line" smooth="yes"/>
      <point x="264.927" y="364"/>
      <point x="181.284" y="402.067"/>
      <point x="181.284" y="496.689" type="curve" smooth="yes"/>
      <point x="181.284" y="509.42"/>
      <point x="182.798" y="523.176"/>
      <point x="186" y="538" type="curve" smooth="yes"/>
      <point x="217" y="683"/>
      <point x="390" y="768"/>
      <point x="557" y="798" type="curve" smooth="yes"/>
      <point x="567" y="800"/>
      <point x="573" y="793"/>
      <point x="571" y="782" type="curve" smooth="yes"/>
      <point x="569" y="774"/>
      <point x="565" y="766"/>
    </contour>
  </outline>
</glyph>
<glyph name="ordmasculine" format="1">
  <advance width="267"/>
  <unicode hex="00BA"/>
  <outline>
    <contour>
      <point x="203" y="362" type="curve" smooth="yes"/>
      <point x="299" y="362"/>
      <point x="368" y="462"/>
      <point x="381" y="526" type="curve" smooth="yes"/>
      <point x="400" y="613"/>
      <point x="355" y="670"/>
      <point x="288" y="670" type="curve" smooth="yes"/>
      <point x="199" y="670"/>
      <point x="126" y="580"/>
      <point x="109" y="501" type="curve" smooth="yes"/>
      <point x="92" y="422"/>
      <point x="136" y="362"/>
    </contour>
    <contour>
      <point x="279" y="644" type="curve" smooth="yes"/>
      <point x="333" y="644"/>
      <point x="362" y="586"/>
      <point x="349" y="526" type="curve" smooth="yes"/>
      <point x="332" y="446"/>
      <point x="263" y="388"/>
      <point x="209" y="388" type="curve" smooth="yes"/>
      <point x="155" y="388"/>
      <point x="128" y="442"/>
      <point x="142" y="504" type="curve" smooth="yes"/>
      <point x="158" y="580"/>
      <point x="224" y="644"/>
    </contour>
  </outline>
</glyph>
<glyph name="guillemotright" format="1">
  <advance width="581"/>
  <unicode hex="00BB"/>
  <outline>
    <contour>
      <point x="332" y="78" type="curve" smooth="yes"/>
      <point x="336" y="78"/>
      <point x="340" y="79"/>
      <point x="346" y="83" type="curve" smooth="yes"/>
      <point x="548" y="235" type="line" smooth="yes"/>
      <point x="553" y="238"/>
      <point x="557" y="243"/>
      <point x="558" y="249" type="curve" smooth="yes"/>
      <point x="559" y="254"/>
      <point x="560" y="259"/>
      <point x="555" y="264" type="curve" smooth="yes"/>
      <point x="402" y="425" type="line" smooth="yes"/>
      <point x="398" y="429"/>
      <point x="393" y="430"/>
      <point x="390" y="430" type="curve" smooth="yes"/>
      <point x="381" y="430"/>
      <point x="370" y="422"/>
      <point x="368" y="412" type="curve" smooth="yes"/>
      <point x="367" y="406"/>
      <point x="369" y="401"/>
      <point x="372" y="397" type="curve" smooth="yes"/>
      <point x="510" y="249" type="line"/>
      <point x="327" y="110" type="line" smooth="yes"/>
      <point x="321" y="105"/>
      <point x="318" y="101"/>
      <point x="317" y="96" type="curve" smooth="yes"/>
      <point x="315" y="87"/>
      <point x="322" y="78"/>
    </contour>
    <contour>
      <point x="122" y="78" type="curve" smooth="yes"/>
      <point x="126" y="78"/>
      <point x="130" y="79"/>
      <point x="136" y="83" type="curve" smooth="yes"/>
      <point x="338" y="235" type="line" smooth="yes"/>
      <point x="343" y="238"/>
      <point x="347" y="243"/>
      <point x="348" y="249" type="curve" smooth="yes"/>
      <point x="349" y="254"/>
      <point x="350" y="259"/>
      <point x="345" y="264" type="curve" smooth="yes"/>
      <point x="192" y="425" type="line" smooth="yes"/>
      <point x="188" y="429"/>
      <point x="183" y="430"/>
      <point x="180" y="430" type="curve" smooth="yes"/>
      <point x="171" y="430"/>
      <point x="160" y="422"/>
      <point x="158" y="412" type="curve" smooth="yes"/>
      <point x="157" y="406"/>
      <point x="159" y="401"/>
      <point x="162" y="397" type="curve" smooth="yes"/>
      <point x="300" y="249" type="line"/>
      <point x="117" y="110" type="line" smooth="yes"/>
      <point x="111" y="105"/>
      <point x="108" y="101"/>
      <point x="107" y="96" type="curve" smooth="yes"/>
      <point x="105" y="87"/>
      <point x="112" y="78"/>
    </contour>
  </outline>
</glyph>
<glyph name="Aacute" format="1">
  <advance width="614"/>
  <unicode hex="00C1"/>
  <outline>
    <contour>
      <point x="58" y="27" type="curve" smooth="yes"/>
      <point x="165" y="203" type="line"/>
      <point x="126" y="194" type="line"/>
      <point x="113" y="192"/>
      <point x="107" y="202"/>
      <point x="110" y="212" type="curve" smooth="yes"/>
      <point x="112" y="222"/>
      <point x="120" y="229"/>
      <point x="129" y="231" type="curve" smooth="yes"/>
      <point x="190" y="244" type="line"/>
      <point x="452" y="677" type="line" smooth="yes"/>
      <point x="457" y="684"/>
      <point x="465" y="689"/>
      <point x="474" y="689" type="curve" smooth="yes"/>
      <point x="484" y="689"/>
      <point x="489" y="683"/>
      <point x="489" y="677" type="curve"/>
      <point x="574" y="32" type="line" smooth="yes"/>
      <point x="575" y="23"/>
      <point x="574" y="18"/>
      <point x="574" y="15" type="curve"/>
      <point x="571" y="4"/>
      <point x="560" y="-1"/>
      <point x="549" y="-1" type="curve" smooth="yes"/>
      <point x="541" y="-1"/>
      <point x="536" y="3"/>
      <point x="535" y="11" type="curve" smooth="yes"/>
      <point x="501" y="272" type="line"/>
      <point x="211" y="211" type="line"/>
      <point x="91" y="11" type="line" smooth="yes"/>
      <point x="86" y="4"/>
      <point x="80" y="0"/>
      <point x="72" y="0" type="curve" smooth="yes"/>
      <point x="60" y="0"/>
      <point x="52" y="8"/>
      <point x="54" y="18" type="curve" smooth="yes"/>
      <point x="55" y="21"/>
      <point x="57" y="25"/>
    </contour>
    <contour>
      <point x="237" y="253" type="line"/>
      <point x="496" y="307" type="line"/>
      <point x="455" y="614" type="line"/>
    </contour>
    <contour>
      <point x="610" y="857" type="curve" smooth="yes"/>
      <point x="446" y="759" type="line" smooth="yes"/>
      <point x="438" y="754"/>
      <point x="432" y="752"/>
      <point x="428" y="752" type="curve" smooth="yes"/>
      <point x="419" y="752"/>
      <point x="413" y="760"/>
      <point x="415" y="769" type="curve" smooth="yes"/>
      <point x="416" y="772"/>
      <point x="417" y="777"/>
      <point x="424" y="782" type="curve" smooth="yes"/>
      <point x="574" y="886" type="line" smooth="yes"/>
      <point x="584" y="893"/>
      <point x="593" y="900"/>
      <point x="603" y="900" type="curve" smooth="yes"/>
      <point x="612.655" y="900"/>
      <point x="621.539" y="889.985"/>
      <point x="621.539" y="878.069" type="curve" smooth="yes"/>
      <point x="621.539" y="876.409"/>
      <point x="621.367" y="874.712"/>
      <point x="621" y="873" type="curve" smooth="yes"/>
      <point x="620" y="866"/>
      <point x="618" y="862"/>
    </contour>
  </outline>
</glyph>
<glyph name="Atilde" format="1">
  <advance width="614"/>
  <unicode hex="00C3"/>
  <outline>
    <contour>
      <point x="646" y="844" type="curve" smooth="yes"/>
      <point x="627" y="812"/>
      <point x="595" y="761"/>
      <point x="557" y="761" type="curve" smooth="yes"/>
      <point x="536" y="761"/>
      <point x="521" y="786"/>
      <point x="509" y="811" type="curve" smooth="yes"/>
      <point x="496" y="839"/>
      <point x="481" y="869"/>
      <point x="440" y="869" type="curve" smooth="yes"/>
      <point x="393" y="869"/>
      <point x="328" y="816"/>
      <point x="319" y="774" type="curve" smooth="yes"/>
      <point x="317" y="766"/>
      <point x="319" y="758"/>
      <point x="329" y="758" type="curve" smooth="yes"/>
      <point x="336" y="758"/>
      <point x="341" y="762"/>
      <point x="346" y="771" type="curve" smooth="yes"/>
      <point x="376" y="829"/>
      <point x="418" y="842"/>
      <point x="434" y="842" type="curve" smooth="yes"/>
      <point x="454" y="842"/>
      <point x="463" y="829"/>
      <point x="481" y="792" type="curve" smooth="yes"/>
      <point x="494" y="766"/>
      <point x="509" y="735"/>
      <point x="550" y="735" type="curve" smooth="yes"/>
      <point x="604" y="735"/>
      <point x="667" y="803"/>
      <point x="675" y="841" type="curve" smooth="yes"/>
      <point x="677" y="849"/>
      <point x="673" y="855"/>
      <point x="664" y="855" type="curve" smooth="yes"/>
      <point x="655" y="855"/>
      <point x="649" y="850"/>
    </contour>
    <contour>
      <point x="58" y="27" type="line" smooth="yes"/>
      <point x="57" y="25"/>
      <point x="55" y="21"/>
      <point x="54" y="18" type="curve" smooth="yes"/>
      <point x="52" y="8"/>
      <point x="60" y="0"/>
      <point x="72" y="0" type="curve" smooth="yes"/>
      <point x="80" y="0"/>
      <point x="86" y="4"/>
      <point x="91" y="11" type="curve" smooth="yes"/>
      <point x="211" y="211" type="line"/>
      <point x="501" y="272" type="line"/>
      <point x="535" y="11" type="line" smooth="yes"/>
      <point x="536" y="3"/>
      <point x="541" y="-1"/>
      <point x="549" y="-1" type="curve" smooth="yes"/>
      <point x="560" y="-1"/>
      <point x="571" y="4"/>
      <point x="574" y="15" type="curve"/>
      <point x="574" y="18"/>
      <point x="575" y="23"/>
      <point x="574" y="32" type="curve" smooth="yes"/>
      <point x="489" y="677" type="line"/>
      <point x="489" y="683"/>
      <point x="484" y="689"/>
      <point x="474" y="689" type="curve" smooth="yes"/>
      <point x="465" y="689"/>
      <point x="457" y="684"/>
      <point x="452" y="677" type="curve" smooth="yes"/>
      <point x="190" y="244" type="line"/>
      <point x="129" y="231" type="line" smooth="yes"/>
      <point x="120" y="229"/>
      <point x="112" y="222"/>
      <point x="110" y="212" type="curve" smooth="yes"/>
      <point x="107" y="202"/>
      <point x="113" y="192"/>
      <point x="126" y="194" type="curve"/>
      <point x="165" y="203" type="line"/>
    </contour>
    <contour>
      <point x="237" y="253" type="line"/>
      <point x="455" y="614" type="line"/>
      <point x="496" y="307" type="line"/>
    </contour>
  </outline>
</glyph>
<glyph name="Aring" format="1">
  <advance width="614"/>
  <unicode hex="00C5"/>
  <outline>
    <contour>
      <point x="479" y="743" type="curve" smooth="yes"/>
      <point x="427.209" y="743"/>
      <point x="390.829" y="775.364"/>
      <point x="390.829" y="819.122" type="curve" smooth="yes"/>
      <point x="390.829" y="825.213"/>
      <point x="391.534" y="831.524"/>
      <point x="393" y="838" type="curve"/>
      <point x="406" y="902"/>
      <point x="481" y="948"/>
      <point x="546" y="948" type="curve" smooth="yes"/>
      <point x="595.836" y="948"/>
      <point x="633.792" y="914.738"/>
      <point x="633.792" y="869.357" type="curve" smooth="yes"/>
      <point x="633.792" y="863.743"/>
      <point x="633.211" y="857.944"/>
      <point x="632" y="852" type="curve" smooth="yes"/>
      <point x="618" y="787"/>
      <point x="543" y="743"/>
    </contour>
    <contour>
      <point x="536" y="920" type="curve" smooth="yes"/>
      <point x="474" y="920"/>
      <point x="423" y="873"/>
      <point x="416" y="838" type="curve"/>
      <point x="414.849" y="833.051"/>
      <point x="414.294" y="828.341"/>
      <point x="414.294" y="823.88" type="curve" smooth="yes"/>
      <point x="414.294" y="789.577"/>
      <point x="447.099" y="770"/>
      <point x="494" y="770" type="curve" smooth="yes"/>
      <point x="534" y="770"/>
      <point x="598" y="801"/>
      <point x="608" y="850" type="curve" smooth="yes"/>
      <point x="608.864" y="853.781"/>
      <point x="609.285" y="857.562"/>
      <point x="609.285" y="861.299" type="curve" smooth="yes"/>
      <point x="609.285" y="892.153"/>
      <point x="580.599" y="920"/>
    </contour>
    <contour>
      <point x="58" y="27" type="curve" smooth="yes"/>
      <point x="165" y="203" type="line"/>
      <point x="126" y="194" type="line"/>
      <point x="113" y="192"/>
      <point x="107" y="202"/>
      <point x="110" y="212" type="curve" smooth="yes"/>
      <point x="112" y="222"/>
      <point x="120" y="229"/>
      <point x="129" y="231" type="curve" smooth="yes"/>
      <point x="190" y="244" type="line"/>
      <point x="452" y="677" type="line" smooth="yes"/>
      <point x="457" y="684"/>
      <point x="465" y="689"/>
      <point x="474" y="689" type="curve" smooth="yes"/>
      <point x="484" y="689"/>
      <point x="489" y="683"/>
      <point x="489" y="677" type="curve"/>
      <point x="574" y="32" type="line" smooth="yes"/>
      <point x="575" y="23"/>
      <point x="574" y="18"/>
      <point x="574" y="15" type="curve"/>
      <point x="571" y="4"/>
      <point x="560" y="-1"/>
      <point x="549" y="-1" type="curve" smooth="yes"/>
      <point x="541" y="-1"/>
      <point x="536" y="3"/>
      <point x="535" y="11" type="curve" smooth="yes"/>
      <point x="501" y="272" type="line"/>
      <point x="211" y="211" type="line"/>
      <point x="91" y="11" type="line" smooth="yes"/>
      <point x="86" y="4"/>
      <point x="80" y="0"/>
      <point x="72" y="0" type="curve" smooth="yes"/>
      <point x="60" y="0"/>
      <point x="52" y="8"/>
      <point x="54" y="18" type="curve" smooth="yes"/>
      <point x="55" y="21"/>
      <point x="57" y="25"/>
    </contour>
    <contour>
      <point x="237" y="253" type="line"/>
      <point x="496" y="307" type="line"/>
      <point x="455" y="614" type="line"/>
    </contour>
  </outline>
</glyph>
<glyph name="AE" format="1">
  <advance width="1030"/>
  <unicode hex="00C6"/>
  <outline>
    <contour>
      <point x="552" y="35" type="line"/>
      <point x="612" y="319" type="line"/>
      <point x="985" y="318" type="line" smooth="yes"/>
      <point x="994" y="318"/>
      <point x="1004" y="327"/>
      <point x="1006" y="337" type="curve" smooth="yes"/>
      <point x="1008" y="346"/>
      <point x="1002" y="354"/>
      <point x="993" y="354" type="curve" smooth="yes"/>
      <point x="620" y="354" type="line"/>
      <point x="682" y="646" type="line"/>
      <point x="1106" y="646" type="line" smooth="yes"/>
      <point x="1116" y="646"/>
      <point x="1126" y="654"/>
      <point x="1128" y="664" type="curve" smooth="yes"/>
      <point x="1130" y="674"/>
      <point x="1123" y="681"/>
      <point x="1113" y="681" type="curve" smooth="yes"/>
      <point x="668" y="681" type="line" smooth="yes"/>
      <point x="663" y="681"/>
      <point x="658" y="677"/>
      <point x="656" y="674" type="curve" smooth="yes"/>
      <point x="309" y="297" type="line"/>
      <point x="229" y="281" type="line" smooth="yes"/>
      <point x="218" y="279"/>
      <point x="211" y="272"/>
      <point x="209" y="262" type="curve" smooth="yes"/>
      <point x="207" y="254"/>
      <point x="212" y="244"/>
      <point x="223" y="246" type="curve" smooth="yes"/>
      <point x="271" y="255" type="line"/>
      <point x="57" y="24" type="line" smooth="yes"/>
      <point x="54" y="21"/>
      <point x="52" y="18"/>
      <point x="51" y="13" type="curve" smooth="yes"/>
      <point x="50" y="5"/>
      <point x="56" y="-3"/>
      <point x="66" y="-3" type="curve" smooth="yes"/>
      <point x="71" y="-3"/>
      <point x="76" y="-1"/>
      <point x="81" y="4" type="curve" smooth="yes"/>
      <point x="322" y="265" type="line"/>
      <point x="576" y="315" type="line"/>
      <point x="513" y="18" type="line" smooth="yes"/>
      <point x="511" y="8"/>
      <point x="518" y="0"/>
      <point x="527" y="0" type="curve" smooth="yes"/>
      <point x="969" y="0" type="line" smooth="yes"/>
      <point x="979" y="0"/>
      <point x="988" y="8"/>
      <point x="990" y="18" type="curve" smooth="yes"/>
      <point x="992" y="28"/>
      <point x="986" y="35"/>
      <point x="976" y="35" type="curve" smooth="yes"/>
    </contour>
    <contour>
      <point x="361" y="307" type="line"/>
      <point x="639" y="608" type="line"/>
      <point x="584" y="351" type="line"/>
    </contour>
  </outline>
</glyph>
<glyph name="Egrave" format="1">
  <advance width="600"/>
  <unicode hex="00C8"/>
  <outline>
    <contour>
      <point x="114" y="38" type="line"/>
      <point x="534" y="38" type="line" smooth="yes"/>
      <point x="544" y="38"/>
      <point x="551" y="30"/>
      <point x="549" y="20" type="curve" smooth="yes"/>
      <point x="546" y="9"/>
      <point x="536" y="0"/>
      <point x="526" y="0" type="curve" smooth="yes"/>
      <point x="87" y="0" type="line" smooth="yes"/>
      <point x="77" y="0"/>
      <point x="69" y="9"/>
      <point x="72" y="20" type="curve"/>
      <point x="209" y="664" type="line" smooth="yes"/>
      <point x="211" y="674"/>
      <point x="221" y="682"/>
      <point x="231" y="682" type="curve" smooth="yes"/>
      <point x="672" y="682" type="line" smooth="yes"/>
      <point x="682" y="682"/>
      <point x="690" y="674"/>
      <point x="688" y="664" type="curve" smooth="yes"/>
      <point x="685" y="653"/>
      <point x="674" y="644"/>
      <point x="664" y="644" type="curve" smooth="yes"/>
      <point x="242" y="644" type="line"/>
      <point x="185" y="372" type="line"/>
      <point x="557" y="372" type="line" smooth="yes"/>
      <point x="567" y="372"/>
      <point x="573" y="364"/>
      <point x="571" y="353" type="curve"/>
      <point x="568" y="343"/>
      <point x="558" y="334"/>
      <point x="548" y="334" type="curve" smooth="yes"/>
      <point x="176" y="334" type="line"/>
    </contour>
    <contour>
      <point x="436" y="901" type="curve" smooth="yes"/>
      <point x="516" y="765" type="line" smooth="yes"/>
      <point x="519" y="760"/>
      <point x="520" y="756"/>
      <point x="519" y="752" type="curve" smooth="yes"/>
      <point x="517" y="742"/>
      <point x="506" y="736"/>
      <point x="497" y="736" type="curve" smooth="yes"/>
      <point x="493" y="736"/>
      <point x="488" y="738"/>
      <point x="485" y="742" type="curve" smooth="yes"/>
      <point x="389" y="868" type="line" smooth="yes"/>
      <point x="385" y="874"/>
      <point x="384" y="880"/>
      <point x="385" y="887" type="curve" smooth="yes"/>
      <point x="388" y="901"/>
      <point x="403" y="912"/>
      <point x="417" y="912" type="curve" smooth="yes"/>
      <point x="425" y="912"/>
      <point x="432" y="909"/>
    </contour>
  </outline>
</glyph>
<glyph name="Eacute" format="1">
  <advance width="600"/>
  <unicode hex="00C9"/>
  <outline>
    <contour>
      <point x="114" y="38" type="line"/>
      <point x="534" y="38" type="line" smooth="yes"/>
      <point x="544" y="38"/>
      <point x="551" y="30"/>
      <point x="549" y="20" type="curve" smooth="yes"/>
      <point x="546" y="9"/>
      <point x="536" y="0"/>
      <point x="526" y="0" type="curve" smooth="yes"/>
      <point x="87" y="0" type="line" smooth="yes"/>
      <point x="77" y="0"/>
      <point x="69" y="9"/>
      <point x="72" y="20" type="curve"/>
      <point x="209" y="664" type="line" smooth="yes"/>
      <point x="211" y="674"/>
      <point x="221" y="682"/>
      <point x="231" y="682" type="curve" smooth="yes"/>
      <point x="672" y="682" type="line" smooth="yes"/>
      <point x="682" y="682"/>
      <point x="690" y="674"/>
      <point x="688" y="664" type="curve" smooth="yes"/>
      <point x="685" y="653"/>
      <point x="674" y="644"/>
      <point x="664" y="644" type="curve" smooth="yes"/>
      <point x="242" y="644" type="line"/>
      <point x="185" y="372" type="line"/>
      <point x="557" y="372" type="line" smooth="yes"/>
      <point x="567" y="372"/>
      <point x="573" y="364"/>
      <point x="571" y="353" type="curve"/>
      <point x="568" y="343"/>
      <point x="558" y="334"/>
      <point x="548" y="334" type="curve" smooth="yes"/>
      <point x="176" y="334" type="line"/>
    </contour>
    <contour>
      <point x="576" y="857" type="curve" smooth="yes"/>
      <point x="412" y="759" type="line" smooth="yes"/>
      <point x="404" y="754"/>
      <point x="398" y="752"/>
      <point x="394" y="752" type="curve" smooth="yes"/>
      <point x="385" y="752"/>
      <point x="379" y="760"/>
      <point x="381" y="769" type="curve" smooth="yes"/>
      <point x="382" y="772"/>
      <point x="383" y="777"/>
      <point x="390" y="782" type="curve" smooth="yes"/>
      <point x="540" y="886" type="line" smooth="yes"/>
      <point x="550" y="893"/>
      <point x="559" y="900"/>
      <point x="569" y="900" type="curve" smooth="yes"/>
      <point x="578.655" y="900"/>
      <point x="587.539" y="889.985"/>
      <point x="587.539" y="878.069" type="curve" smooth="yes"/>
      <point x="587.539" y="876.409"/>
      <point x="587.367" y="874.712"/>
      <point x="587" y="873" type="curve" smooth="yes"/>
      <point x="586" y="866"/>
      <point x="584" y="862"/>
    </contour>
  </outline>
</glyph>
<glyph name="Edieresis" format="1">
  <advance width="600"/>
  <unicode hex="00CB"/>
  <outline>
    <contour>
      <point x="437" y="790" type="curve" smooth="yes"/>
      <point x="441" y="807"/>
      <point x="426" y="820"/>
      <point x="407" y="820" type="curve" smooth="yes"/>
      <point x="384" y="820"/>
      <point x="361" y="804"/>
      <point x="357" y="785" type="curve" smooth="yes"/>
      <point x="354" y="768"/>
      <point x="368" y="755"/>
      <point x="387" y="755" type="curve" smooth="yes"/>
      <point x="411" y="755"/>
      <point x="433" y="771"/>
    </contour>
    <contour>
      <point x="600" y="790" type="curve" smooth="yes"/>
      <point x="604" y="807"/>
      <point x="590" y="820"/>
      <point x="571" y="820" type="curve" smooth="yes"/>
      <point x="548" y="820"/>
      <point x="525" y="804"/>
      <point x="521" y="785" type="curve" smooth="yes"/>
      <point x="518" y="768"/>
      <point x="532" y="755"/>
      <point x="551" y="755" type="curve" smooth="yes"/>
      <point x="575" y="755"/>
      <point x="596" y="771"/>
    </contour>
    <contour>
      <point x="114" y="38" type="line"/>
      <point x="176" y="334" type="line"/>
      <point x="548" y="334" type="line" smooth="yes"/>
      <point x="558" y="334"/>
      <point x="568" y="343"/>
      <point x="571" y="353" type="curve"/>
      <point x="573" y="364"/>
      <point x="567" y="372"/>
      <point x="557" y="372" type="curve" smooth="yes"/>
      <point x="185" y="372" type="line"/>
      <point x="242" y="644" type="line"/>
      <point x="664" y="644" type="line" smooth="yes"/>
      <point x="674" y="644"/>
      <point x="685" y="653"/>
      <point x="688" y="664" type="curve" smooth="yes"/>
      <point x="690" y="674"/>
      <point x="682" y="682"/>
      <point x="672" y="682" type="curve" smooth="yes"/>
      <point x="231" y="682" type="line" smooth="yes"/>
      <point x="221" y="682"/>
      <point x="211" y="674"/>
      <point x="209" y="664" type="curve" smooth="yes"/>
      <point x="72" y="20" type="line"/>
      <point x="69" y="9"/>
      <point x="77" y="0"/>
      <point x="87" y="0" type="curve" smooth="yes"/>
      <point x="526" y="0" type="line" smooth="yes"/>
      <point x="536" y="0"/>
      <point x="546" y="9"/>
      <point x="549" y="20" type="curve" smooth="yes"/>
      <point x="551" y="30"/>
      <point x="544" y="38"/>
      <point x="534" y="38" type="curve" smooth="yes"/>
    </contour>
  </outline>
</glyph>
<glyph name="Igrave" format="1">
  <advance width="423"/>
  <unicode hex="00CC"/>
  <outline>
    <contour>
      <point x="242" y="37" type="line"/>
      <point x="354" y="37" type="line" smooth="yes"/>
      <point x="366" y="37"/>
      <point x="372" y="29"/>
      <point x="370" y="19" type="curve" smooth="yes"/>
      <point x="367" y="8"/>
      <point x="356" y="-1"/>
      <point x="346" y="-1" type="curve" smooth="yes"/>
      <point x="82" y="-1" type="line" smooth="yes"/>
      <point x="72" y="-1"/>
      <point x="65" y="8"/>
      <point x="68" y="19" type="curve" smooth="yes"/>
      <point x="70" y="29"/>
      <point x="80" y="37"/>
      <point x="90" y="37" type="curve" smooth="yes"/>
      <point x="204" y="37" type="line"/>
      <point x="333" y="643" type="line"/>
      <point x="219" y="643" type="line" smooth="yes"/>
      <point x="209" y="643"/>
      <point x="202" y="652"/>
      <point x="204" y="662" type="curve" smooth="yes"/>
      <point x="207" y="673"/>
      <point x="217" y="681"/>
      <point x="227" y="681" type="curve" smooth="yes"/>
      <point x="491" y="681" type="line" smooth="yes"/>
      <point x="501" y="681"/>
      <point x="509" y="673"/>
      <point x="506" y="662" type="curve" smooth="yes"/>
      <point x="504" y="652"/>
      <point x="493" y="643"/>
      <point x="483" y="643" type="curve" smooth="yes"/>
      <point x="371" y="643" type="line"/>
    </contour>
    <contour>
      <point x="366" y="901" type="curve" smooth="yes"/>
      <point x="446" y="765" type="line" smooth="yes"/>
      <point x="449" y="760"/>
      <point x="450" y="756"/>
      <point x="449" y="752" type="curve" smooth="yes"/>
      <point x="447" y="742"/>
      <point x="436" y="736"/>
      <point x="427" y="736" type="curve" smooth="yes"/>
      <point x="423" y="736"/>
      <point x="418" y="738"/>
      <point x="415" y="742" type="curve" smooth="yes"/>
      <point x="319" y="868" type="line" smooth="yes"/>
      <point x="315" y="874"/>
      <point x="314" y="880"/>
      <point x="315" y="887" type="curve" smooth="yes"/>
      <point x="318" y="901"/>
      <point x="333" y="912"/>
      <point x="347" y="912" type="curve" smooth="yes"/>
      <point x="355" y="912"/>
      <point x="362" y="909"/>
    </contour>
  </outline>
</glyph>
<glyph name="Iacute" format="1">
  <advance width="423"/>
  <unicode hex="00CD"/>
  <outline>
    <contour>
      <point x="242" y="37" type="line"/>
      <point x="371" y="643" type="line"/>
      <point x="483" y="643" type="line" smooth="yes"/>
      <point x="493" y="643"/>
      <point x="504" y="652"/>
      <point x="506" y="662" type="curve" smooth="yes"/>
      <point x="509" y="673"/>
      <point x="501" y="681"/>
      <point x="491" y="681" type="curve" smooth="yes"/>
      <point x="227" y="681" type="line" smooth="yes"/>
      <point x="217" y="681"/>
      <point x="207" y="673"/>
      <point x="204" y="662" type="curve" smooth="yes"/>
      <point x="202" y="652"/>
      <point x="209" y="643"/>
      <point x="219" y="643" type="curve" smooth="yes"/>
      <point x="333" y="643" type="line"/>
      <point x="204" y="37" type="line"/>
      <point x="90" y="37" type="line" smooth="yes"/>
      <point x="80" y="37"/>
      <point x="70" y="29"/>
      <point x="68" y="19" type="curve" smooth="yes"/>
      <point x="65" y="8"/>
      <point x="72" y="-1"/>
      <point x="82" y="-1" type="curve" smooth="yes"/>
      <point x="346" y="-1" type="line" smooth="yes"/>
      <point x="356" y="-1"/>
      <point x="367" y="8"/>
      <point x="370" y="19" type="curve" smooth="yes"/>
      <point x="372" y="29"/>
      <point x="366" y="37"/>
      <point x="354" y="37" type="curve" smooth="yes"/>
    </contour>
    <contour>
      <point x="500" y="857" type="line" smooth="yes"/>
      <point x="508" y="862"/>
      <point x="510" y="866"/>
      <point x="511" y="873" type="curve" smooth="yes"/>
      <point x="514" y="887"/>
      <point x="504" y="900"/>
      <point x="493" y="900" type="curve" smooth="yes"/>
      <point x="483" y="900"/>
      <point x="474" y="893"/>
      <point x="464" y="886" type="curve" smooth="yes"/>
      <point x="314" y="782" type="line" smooth="yes"/>
      <point x="307" y="777"/>
      <point x="306" y="772"/>
      <point x="305" y="769" type="curve" smooth="yes"/>
      <point x="303" y="760"/>
      <point x="309" y="752"/>
      <point x="318" y="752" type="curve" smooth="yes"/>
      <point x="322" y="752"/>
      <point x="328" y="754"/>
      <point x="336" y="759" type="curve" smooth="yes"/>
    </contour>
  </outline>
</glyph>
<glyph name="Idieresis" format="1">
  <advance width="423"/>
  <unicode hex="00CF"/>
  <outline>
    <contour>
      <point x="344" y="790" type="curve" smooth="yes"/>
      <point x="340" y="771"/>
      <point x="319" y="755"/>
      <point x="295" y="755" type="curve" smooth="yes"/>
      <point x="276.927" y="755"/>
      <point x="264.57" y="765.615"/>
      <point x="264.57" y="780.205" type="curve" smooth="yes"/>
      <point x="264.57" y="803.005"/>
      <point x="290.791" y="820"/>
      <point x="315" y="820" type="curve" smooth="yes"/>
      <point x="331.797" y="820"/>
      <point x="344.686" y="809.84"/>
      <point x="344.686" y="795.739" type="curve" smooth="yes"/>
      <point x="344.686" y="793.889"/>
      <point x="344.464" y="791.971"/>
    </contour>
    <contour>
      <point x="508" y="790" type="curve" smooth="yes"/>
      <point x="504" y="771"/>
      <point x="482" y="755"/>
      <point x="459" y="755" type="curve" smooth="yes"/>
      <point x="440.927" y="755"/>
      <point x="428.57" y="765.615"/>
      <point x="428.57" y="780.205" type="curve" smooth="yes"/>
      <point x="428.57" y="803.005"/>
      <point x="454.791" y="820"/>
      <point x="479" y="820" type="curve" smooth="yes"/>
      <point x="495.013" y="820"/>
      <point x="508.652" y="809.712"/>
      <point x="508.652" y="795.472" type="curve" smooth="yes"/>
      <point x="508.652" y="793.705"/>
      <point x="508.442" y="791.877"/>
    </contour>
    <contour>
      <point x="242" y="37" type="line"/>
      <point x="354" y="37" type="line" smooth="yes"/>
      <point x="366" y="37"/>
      <point x="372" y="29"/>
      <point x="370" y="19" type="curve" smooth="yes"/>
      <point x="367" y="8"/>
      <point x="356" y="-1"/>
      <point x="346" y="-1" type="curve" smooth="yes"/>
      <point x="82" y="-1" type="line" smooth="yes"/>
      <point x="72" y="-1"/>
      <point x="65" y="8"/>
      <point x="68" y="19" type="curve" smooth="yes"/>
      <point x="70" y="29"/>
      <point x="80" y="37"/>
      <point x="90" y="37" type="curve" smooth="yes"/>
      <point x="204" y="37" type="line"/>
      <point x="333" y="643" type="line"/>
      <point x="219" y="643" type="line" smooth="yes"/>
      <point x="209" y="643"/>
      <point x="202" y="652"/>
      <point x="204" y="662" type="curve" smooth="yes"/>
      <point x="207" y="673"/>
      <point x="217" y="681"/>
      <point x="227" y="681" type="curve" smooth="yes"/>
      <point x="491" y="681" type="line" smooth="yes"/>
      <point x="501" y="681"/>
      <point x="509" y="673"/>
      <point x="506" y="662" type="curve" smooth="yes"/>
      <point x="504" y="652"/>
      <point x="493" y="643"/>
      <point x="483" y="643" type="curve" smooth="yes"/>
      <point x="371" y="643" type="line"/>
    </contour>
  </outline>
</glyph>
<glyph name="Ntilde" format="1">
  <advance width="609"/>
  <unicode hex="00D1"/>
  <outline>
    <contour>
      <point x="518" y="7" type="line" smooth="yes"/>
      <point x="520" y="2"/>
      <point x="525" y="0"/>
      <point x="532" y="0" type="curve" smooth="yes"/>
      <point x="543" y="0"/>
      <point x="552" y="8"/>
      <point x="555" y="19" type="curve"/>
      <point x="692" y="664" type="line" smooth="yes"/>
      <point x="694" y="674"/>
      <point x="687" y="682"/>
      <point x="676" y="682" type="curve" smooth="yes"/>
      <point x="666" y="682"/>
      <point x="657" y="674"/>
      <point x="655" y="664" type="curve" smooth="yes"/>
      <point x="530" y="77" type="line"/>
      <point x="247" y="670" type="line"/>
      <point x="244" y="678"/>
      <point x="238" y="681"/>
      <point x="230" y="681" type="curve" smooth="yes"/>
      <point x="220" y="681"/>
      <point x="212" y="673"/>
      <point x="209" y="662" type="curve"/>
      <point x="72" y="19" type="line"/>
      <point x="69" y="8"/>
      <point x="76" y="0"/>
      <point x="86" y="0" type="curve" smooth="yes"/>
      <point x="96" y="0"/>
      <point x="106" y="8"/>
      <point x="109" y="19" type="curve"/>
      <point x="234" y="603" type="line"/>
    </contour>
    <contour>
      <point x="641" y="844" type="curve" smooth="yes"/>
      <point x="622" y="812"/>
      <point x="590" y="761"/>
      <point x="552" y="761" type="curve" smooth="yes"/>
      <point x="531" y="761"/>
      <point x="516" y="786"/>
      <point x="504" y="811" type="curve" smooth="yes"/>
      <point x="491" y="839"/>
      <point x="476" y="869"/>
      <point x="435" y="869" type="curve" smooth="yes"/>
      <point x="388" y="869"/>
      <point x="323" y="816"/>
      <point x="314" y="774" type="curve" smooth="yes"/>
      <point x="312" y="766"/>
      <point x="314" y="758"/>
      <point x="324" y="758" type="curve" smooth="yes"/>
      <point x="331" y="758"/>
      <point x="336" y="762"/>
      <point x="341" y="771" type="curve" smooth="yes"/>
      <point x="371" y="829"/>
      <point x="413" y="842"/>
      <point x="429" y="842" type="curve" smooth="yes"/>
      <point x="449" y="842"/>
      <point x="458" y="829"/>
      <point x="476" y="792" type="curve" smooth="yes"/>
      <point x="489" y="766"/>
      <point x="504" y="735"/>
      <point x="545" y="735" type="curve" smooth="yes"/>
      <point x="599" y="735"/>
      <point x="662" y="803"/>
      <point x="670" y="841" type="curve" smooth="yes"/>
      <point x="672" y="849"/>
      <point x="668" y="855"/>
      <point x="659" y="855" type="curve" smooth="yes"/>
      <point x="650" y="855"/>
      <point x="644" y="850"/>
    </contour>
  </outline>
</glyph>
<glyph name="Oacute" format="1">
  <advance width="650"/>
  <unicode hex="00D3"/>
  <outline>
    <contour>
      <point x="307" y="-2" type="curve" smooth="yes"/>
      <point x="188.556" y="-2"/>
      <point x="118.821" y="96.7914"/>
      <point x="118.821" y="227.321" type="curve" smooth="yes"/>
      <point x="118.821" y="254.383"/>
      <point x="121.818" y="282.808"/>
      <point x="128" y="312" type="curve" smooth="yes"/>
      <point x="171" y="513"/>
      <point x="340" y="682"/>
      <point x="496" y="682" type="curve" smooth="yes"/>
      <point x="613.989" y="682"/>
      <point x="685.03" y="583.963"/>
      <point x="685.03" y="452.138" type="curve" smooth="yes"/>
      <point x="685.03" y="425.311"/>
      <point x="682.087" y="397.084"/>
      <point x="676" y="368" type="curve" smooth="yes"/>
      <point x="633" y="167"/>
      <point x="463" y="-2"/>
    </contour>
    <contour>
      <point x="481" y="649" type="curve" smooth="yes"/>
      <point x="350" y="649"/>
      <point x="202" y="500"/>
      <point x="162" y="312" type="curve" smooth="yes"/>
      <point x="156.078" y="284.545"/>
      <point x="153.216" y="257.894"/>
      <point x="153.216" y="232.644" type="curve" smooth="yes"/>
      <point x="153.216" y="117.183"/>
      <point x="213.072" y="31"/>
      <point x="314" y="31" type="curve" smooth="yes"/>
      <point x="446" y="31"/>
      <point x="602" y="183"/>
      <point x="641" y="364" type="curve" smooth="yes"/>
      <point x="646.053" y="388.252"/>
      <point x="648.524" y="412.42"/>
      <point x="648.524" y="435.843" type="curve" smooth="yes"/>
      <point x="648.524" y="551.495"/>
      <point x="588.274" y="649"/>
    </contour>
    <contour>
      <point x="633" y="857" type="curve" smooth="yes"/>
      <point x="469" y="759" type="line" smooth="yes"/>
      <point x="461" y="754"/>
      <point x="455" y="752"/>
      <point x="451" y="752" type="curve" smooth="yes"/>
      <point x="442" y="752"/>
      <point x="436" y="760"/>
      <point x="438" y="769" type="curve" smooth="yes"/>
      <point x="439" y="772"/>
      <point x="440" y="777"/>
      <point x="447" y="782" type="curve" smooth="yes"/>
      <point x="597" y="886" type="line" smooth="yes"/>
      <point x="607" y="893"/>
      <point x="616" y="900"/>
      <point x="626" y="900" type="curve" smooth="yes"/>
      <point x="635.655" y="900"/>
      <point x="644.539" y="889.985"/>
      <point x="644.539" y="878.069" type="curve" smooth="yes"/>
      <point x="644.539" y="876.409"/>
      <point x="644.367" y="874.712"/>
      <point x="644" y="873" type="curve" smooth="yes"/>
      <point x="643" y="866"/>
      <point x="641" y="862"/>
    </contour>
  </outline>
</glyph>
<glyph name="Ocircumflex" format="1">
  <advance width="650"/>
  <unicode hex="00D4"/>
  <outline>
    <contour>
      <point x="307" y="-2" type="curve" smooth="yes"/>
      <point x="463" y="-2"/>
      <point x="633" y="167"/>
      <point x="676" y="368" type="curve" smooth="yes"/>
      <point x="712" y="540"/>
      <point x="638" y="682"/>
      <point x="496" y="682" type="curve" smooth="yes"/>
      <point x="340" y="682"/>
      <point x="171" y="513"/>
      <point x="128" y="312" type="curve" smooth="yes"/>
      <point x="92" y="142"/>
      <point x="164" y="-2"/>
    </contour>
    <contour>
      <point x="481" y="649" type="curve" smooth="yes"/>
      <point x="610" y="649"/>
      <point x="671" y="508"/>
      <point x="641" y="364" type="curve" smooth="yes"/>
      <point x="602" y="183"/>
      <point x="446" y="31"/>
      <point x="314" y="31" type="curve" smooth="yes"/>
      <point x="191" y="31"/>
      <point x="129" y="159"/>
      <point x="162" y="312" type="curve" smooth="yes"/>
      <point x="202" y="500"/>
      <point x="350" y="649"/>
    </contour>
    <contour>
      <point x="561" y="902" type="curve" smooth="yes"/>
      <point x="557" y="902"/>
      <point x="552" y="900"/>
      <point x="547" y="897" type="curve" smooth="yes"/>
      <point x="388" y="784" type="line" smooth="yes"/>
      <point x="384" y="781"/>
      <point x="379" y="776"/>
      <point x="378" y="771" type="curve" smooth="yes"/>
      <point x="376" y="762"/>
      <point x="383" y="753"/>
      <point x="393" y="753" type="curve" smooth="yes"/>
      <point x="397" y="753"/>
      <point x="401" y="755"/>
      <point x="404" y="757" type="curve" smooth="yes"/>
      <point x="549" y="853" type="line"/>
      <point x="634" y="758" type="line" smooth="yes"/>
      <point x="637" y="755"/>
      <point x="641" y="753"/>
      <point x="646" y="753" type="curve" smooth="yes"/>
      <point x="655" y="753"/>
      <point x="664" y="762"/>
      <point x="666" y="771" type="curve" smooth="yes"/>
      <point x="667" y="776"/>
      <point x="666" y="779"/>
      <point x="663" y="783" type="curve" smooth="yes"/>
      <point x="575" y="896" type="line" smooth="yes"/>
      <point x="572" y="900"/>
      <point x="566" y="902"/>
    </contour>
  </outline>
</glyph>
<glyph name="Odieresis" format="1">
  <advance width="650"/>
  <unicode hex="00D6"/>
  <outline>
    <contour>
      <point x="307" y="-2" type="curve" smooth="yes"/>
      <point x="463" y="-2"/>
      <point x="633" y="167"/>
      <point x="676" y="368" type="curve" smooth="yes"/>
      <point x="712" y="540"/>
      <point x="638" y="682"/>
      <point x="496" y="682" type="curve" smooth="yes"/>
      <point x="340" y="682"/>
      <point x="171" y="513"/>
      <point x="128" y="312" type="curve" smooth="yes"/>
      <point x="92" y="142"/>
      <point x="164" y="-2"/>
    </contour>
    <contour>
      <point x="481" y="649" type="curve" smooth="yes"/>
      <point x="610" y="649"/>
      <point x="671" y="508"/>
      <point x="641" y="364" type="curve" smooth="yes"/>
      <point x="602" y="183"/>
      <point x="446" y="31"/>
      <point x="314" y="31" type="curve" smooth="yes"/>
      <point x="191" y="31"/>
      <point x="129" y="159"/>
      <point x="162" y="312" type="curve" smooth="yes"/>
      <point x="202" y="500"/>
      <point x="350" y="649"/>
    </contour>
    <contour>
      <point x="488" y="790" type="curve" smooth="yes"/>
      <point x="492" y="807"/>
      <point x="477" y="820"/>
      <point x="459" y="820" type="curve" smooth="yes"/>
      <point x="435" y="820"/>
      <point x="412" y="804"/>
      <point x="408" y="785" type="curve" smooth="yes"/>
      <point x="405" y="768"/>
      <point x="419" y="755"/>
      <point x="438" y="755" type="curve" smooth="yes"/>
      <point x="462" y="755"/>
      <point x="484" y="771"/>
    </contour>
    <contour>
      <point x="652" y="790" type="curve" smooth="yes"/>
      <point x="656" y="807"/>
      <point x="641" y="820"/>
      <point x="622" y="820" type="curve" smooth="yes"/>
      <point x="599" y="820"/>
      <point x="576" y="804"/>
      <point x="572" y="785" type="curve" smooth="yes"/>
      <point x="569" y="768"/>
      <point x="583" y="755"/>
      <point x="602" y="755" type="curve" smooth="yes"/>
      <point x="626" y="755"/>
      <point x="648" y="771"/>
    </contour>
  </outline>
</glyph>
<glyph name="Uacute" format="1">
  <advance width="673"/>
  <unicode hex="00DA"/>
  <outline>
    <contour>
      <point x="752" y="653" type="curve" smooth="yes"/>
      <point x="755" y="668"/>
      <point x="755" y="681"/>
      <point x="740" y="681" type="curve" smooth="yes"/>
      <point x="722" y="681"/>
      <point x="718" y="667"/>
      <point x="715" y="651" type="curve" smooth="yes"/>
      <point x="687" y="518"/>
      <point x="667" y="397"/>
      <point x="628" y="277" type="curve" smooth="yes"/>
      <point x="583" y="139"/>
      <point x="496" y="31"/>
      <point x="336" y="31" type="curve" smooth="yes"/>
      <point x="151" y="31"/>
      <point x="160" y="236"/>
      <point x="185" y="381" type="curve"/>
      <point x="202" y="474"/>
      <point x="224" y="565"/>
      <point x="245" y="654" type="curve"/>
      <point x="248" y="670"/>
      <point x="247" y="681"/>
      <point x="232" y="681" type="curve" smooth="yes"/>
      <point x="218" y="681"/>
      <point x="210" y="671"/>
      <point x="207" y="655" type="curve" smooth="yes"/>
      <point x="188" y="570"/>
      <point x="165" y="474"/>
      <point x="147" y="367" type="curve"/>
      <point x="104" y="125"/>
      <point x="171" y="0"/>
      <point x="329" y="0" type="curve" smooth="yes"/>
      <point x="502" y="0"/>
      <point x="608" y="110"/>
      <point x="663" y="270" type="curve" smooth="yes"/>
      <point x="708" y="400"/>
      <point x="730" y="527"/>
    </contour>
    <contour>
      <point x="630" y="857" type="line" smooth="yes"/>
      <point x="638" y="862"/>
      <point x="640" y="866"/>
      <point x="641" y="873" type="curve" smooth="yes"/>
      <point x="644" y="887"/>
      <point x="634" y="900"/>
      <point x="623" y="900" type="curve" smooth="yes"/>
      <point x="613" y="900"/>
      <point x="604" y="893"/>
      <point x="594" y="886" type="curve" smooth="yes"/>
      <point x="444" y="782" type="line" smooth="yes"/>
      <point x="437" y="777"/>
      <point x="436" y="772"/>
      <point x="435" y="769" type="curve" smooth="yes"/>
      <point x="433" y="760"/>
      <point x="439" y="752"/>
      <point x="448" y="752" type="curve" smooth="yes"/>
      <point x="452" y="752"/>
      <point x="458" y="754"/>
      <point x="466" y="759" type="curve" smooth="yes"/>
    </contour>
  </outline>
</glyph>
<glyph name="Ucircumflex" format="1">
  <advance width="673"/>
  <unicode hex="00DB"/>
  <outline>
    <contour>
      <point x="554" y="902" type="curve" smooth="yes"/>
      <point x="550" y="902"/>
      <point x="545" y="900"/>
      <point x="540" y="897" type="curve" smooth="yes"/>
      <point x="381" y="784" type="line" smooth="yes"/>
      <point x="377" y="781"/>
      <point x="372" y="776"/>
      <point x="371" y="771" type="curve" smooth="yes"/>
      <point x="369" y="762"/>
      <point x="376" y="753"/>
      <point x="386" y="753" type="curve" smooth="yes"/>
      <point x="390" y="753"/>
      <point x="394" y="755"/>
      <point x="397" y="757" type="curve" smooth="yes"/>
      <point x="542" y="853" type="line"/>
      <point x="627" y="758" type="line" smooth="yes"/>
      <point x="630" y="755"/>
      <point x="634" y="753"/>
      <point x="639" y="753" type="curve" smooth="yes"/>
      <point x="648" y="753"/>
      <point x="657" y="762"/>
      <point x="659" y="771" type="curve" smooth="yes"/>
      <point x="660" y="776"/>
      <point x="659" y="779"/>
      <point x="656" y="783" type="curve" smooth="yes"/>
      <point x="568" y="896" type="line" smooth="yes"/>
      <point x="565" y="900"/>
      <point x="559" y="902"/>
    </contour>
    <contour>
      <point x="752" y="653" type="curve" smooth="yes"/>
      <point x="755" y="668"/>
      <point x="755" y="681"/>
      <point x="740" y="681" type="curve" smooth="yes"/>
      <point x="722" y="681"/>
      <point x="718" y="667"/>
      <point x="715" y="651" type="curve" smooth="yes"/>
      <point x="687" y="518"/>
      <point x="667" y="397"/>
      <point x="628" y="277" type="curve" smooth="yes"/>
      <point x="583" y="139"/>
      <point x="496" y="31"/>
      <point x="336" y="31" type="curve" smooth="yes"/>
      <point x="151" y="31"/>
      <point x="160" y="236"/>
      <point x="185" y="381" type="curve"/>
      <point x="202" y="474"/>
      <point x="224" y="565"/>
      <point x="245" y="654" type="curve"/>
      <point x="248" y="670"/>
      <point x="247" y="681"/>
      <point x="232" y="681" type="curve" smooth="yes"/>
      <point x="218" y="681"/>
      <point x="210" y="671"/>
      <point x="207" y="655" type="curve" smooth="yes"/>
      <point x="188" y="570"/>
      <point x="165" y="474"/>
      <point x="147" y="367" type="curve"/>
      <point x="104" y="125"/>
      <point x="171" y="0"/>
      <point x="329" y="0" type="curve" smooth="yes"/>
      <point x="502" y="0"/>
      <point x="608" y="110"/>
      <point x="663" y="270" type="curve" smooth="yes"/>
      <point x="708" y="400"/>
      <point x="730" y="527"/>
    </contour>
  </outline>
</glyph>
<glyph name="Udieresis" format="1">
  <advance width="673"/>
  <unicode hex="00DC"/>
  <outline>
    <contour>
      <point x="468" y="790" type="curve" smooth="yes"/>
      <point x="472" y="807"/>
      <point x="457" y="820"/>
      <point x="439" y="820" type="curve" smooth="yes"/>
      <point x="415" y="820"/>
      <point x="393" y="804"/>
      <point x="389" y="785" type="curve" smooth="yes"/>
      <point x="386" y="768"/>
      <point x="399" y="755"/>
      <point x="419" y="755" type="curve" smooth="yes"/>
      <point x="442" y="755"/>
      <point x="464" y="771"/>
    </contour>
    <contour>
      <point x="632" y="790" type="curve" smooth="yes"/>
      <point x="636" y="807"/>
      <point x="621" y="820"/>
      <point x="603" y="820" type="curve" smooth="yes"/>
      <point x="579" y="820"/>
      <point x="556" y="804"/>
      <point x="552" y="785" type="curve" smooth="yes"/>
      <point x="549" y="768"/>
      <point x="563" y="755"/>
      <point x="583" y="755" type="curve" smooth="yes"/>
      <point x="606" y="755"/>
      <point x="628" y="771"/>
    </contour>
    <contour>
      <point x="752" y="653" type="curve" smooth="yes"/>
      <point x="755" y="668"/>
      <point x="755" y="681"/>
      <point x="740" y="681" type="curve" smooth="yes"/>
      <point x="722" y="681"/>
      <point x="718" y="667"/>
      <point x="715" y="651" type="curve" smooth="yes"/>
      <point x="687" y="518"/>
      <point x="667" y="397"/>
      <point x="628" y="277" type="curve" smooth="yes"/>
      <point x="583" y="139"/>
      <point x="496" y="31"/>
      <point x="336" y="31" type="curve" smooth="yes"/>
      <point x="151" y="31"/>
      <point x="160" y="236"/>
      <point x="185" y="381" type="curve"/>
      <point x="202" y="474"/>
      <point x="224" y="565"/>
      <point x="245" y="654" type="curve"/>
      <point x="248" y="670"/>
      <point x="247" y="681"/>
      <point x="232" y="681" type="curve" smooth="yes"/>
      <point x="218" y="681"/>
      <point x="210" y="671"/>
      <point x="207" y="655" type="curve" smooth="yes"/>
      <point x="188" y="570"/>
      <point x="165" y="474"/>
      <point x="147" y="367" type="curve"/>
      <point x="104" y="125"/>
      <point x="171" y="0"/>
      <point x="329" y="0" type="curve" smooth="yes"/>
      <point x="502" y="0"/>
      <point x="608" y="110"/>
      <point x="663" y="270" type="curve" smooth="yes"/>
      <point x="708" y="400"/>
      <point x="730" y="527"/>
    </contour>
  </outline>
</glyph>
<glyph name="Yacute" format="1">
  <advance width="583"/>
  <unicode hex="00DD"/>
  <outline>
    <contour>
      <point x="715" y="681" type="curve" smooth="yes"/>
      <point x="725" y="681"/>
      <point x="733" y="674"/>
      <point x="731" y="664" type="curve" smooth="yes"/>
      <point x="730" y="660"/>
      <point x="728" y="656"/>
      <point x="720" y="646" type="curve" smooth="yes"/>
      <point x="206" y="9" type="line" smooth="yes"/>
      <point x="201" y="2"/>
      <point x="196" y="0"/>
      <point x="191" y="0" type="curve" smooth="yes"/>
      <point x="179" y="0"/>
      <point x="172" y="9"/>
      <point x="174" y="17" type="curve" smooth="yes"/>
      <point x="175" y="23"/>
      <point x="178" y="27"/>
      <point x="182" y="32" type="curve" smooth="yes"/>
      <point x="326" y="210" type="line"/>
      <point x="163" y="649" type="line" smooth="yes"/>
      <point x="162" y="653"/>
      <point x="161" y="659"/>
      <point x="162" y="664" type="curve" smooth="yes"/>
      <point x="164" y="675"/>
      <point x="175" y="681"/>
      <point x="185" y="681" type="curve" smooth="yes"/>
      <point x="190" y="681"/>
      <point x="196" y="678"/>
      <point x="197" y="672" type="curve"/>
      <point x="356" y="246" type="line"/>
      <point x="698" y="672" type="line" smooth="yes"/>
      <point x="703" y="678"/>
      <point x="709" y="681"/>
    </contour>
    <contour>
      <point x="582" y="857" type="curve" smooth="yes"/>
      <point x="418" y="759" type="line" smooth="yes"/>
      <point x="410" y="754"/>
      <point x="404" y="752"/>
      <point x="400" y="752" type="curve" smooth="yes"/>
      <point x="391" y="752"/>
      <point x="385" y="760"/>
      <point x="387" y="769" type="curve" smooth="yes"/>
      <point x="388" y="772"/>
      <point x="389" y="777"/>
      <point x="396" y="782" type="curve" smooth="yes"/>
      <point x="546" y="886" type="line" smooth="yes"/>
      <point x="556" y="893"/>
      <point x="565" y="900"/>
      <point x="575" y="900" type="curve" smooth="yes"/>
      <point x="584.655" y="900"/>
      <point x="593.539" y="889.985"/>
      <point x="593.539" y="878.069" type="curve" smooth="yes"/>
      <point x="593.539" y="876.409"/>
      <point x="593.367" y="874.712"/>
      <point x="593" y="873" type="curve" smooth="yes"/>
      <point x="592" y="866"/>
      <point x="590" y="862"/>
    </contour>
  </outline>
</glyph>
<glyph name="Thorn" format="1">
  <advance width="537"/>
  <unicode hex="00DE"/>
  <outline>
    <contour>
      <point x="242" y="664" type="curve" smooth="yes"/>
      <point x="221" y="569" type="line"/>
      <point x="358.502" y="569"/>
      <point x="552.21" y="552.819"/>
      <point x="552.21" y="413.576" type="curve" smooth="yes"/>
      <point x="552.21" y="401.932"/>
      <point x="550.855" y="389.428"/>
      <point x="548" y="376" type="curve" smooth="yes"/>
      <point x="511" y="202"/>
      <point x="277" y="150"/>
      <point x="131" y="147" type="curve"/>
      <point x="103" y="15" type="line" smooth="yes"/>
      <point x="101" y="7"/>
      <point x="93" y="0"/>
      <point x="84" y="0" type="curve" smooth="yes"/>
      <point x="75" y="0"/>
      <point x="69" y="7"/>
      <point x="71" y="16" type="curve" smooth="yes"/>
      <point x="211" y="665" type="line" smooth="yes"/>
      <point x="213" y="673"/>
      <point x="221" y="680"/>
      <point x="230" y="680" type="curve" smooth="yes"/>
      <point x="239" y="680"/>
      <point x="244" y="673"/>
    </contour>
    <contour>
      <point x="214" y="533" type="curve"/>
      <point x="139" y="183" type="line"/>
      <point x="249" y="184"/>
      <point x="484" y="225"/>
      <point x="516" y="376" type="curve" smooth="yes"/>
      <point x="518.112" y="385.598"/>
      <point x="519.154" y="394.818"/>
      <point x="519.154" y="403.645" type="curve" smooth="yes"/>
      <point x="519.154" y="486.782"/>
      <point x="426.628" y="535"/>
      <point x="263" y="535" type="curve" smooth="yes"/>
      <point x="248" y="535"/>
      <point x="235" y="535"/>
    </contour>
  </outline>
</glyph>
<glyph name="aacute" format="1">
  <advance width="495"/>
  <unicode hex="00E1"/>
  <outline>
    <contour>
      <point x="539" y="476" type="line"/>
      <point x="516" y="489"/>
      <point x="461" y="515"/>
      <point x="400" y="515" type="curve" smooth="yes"/>
      <point x="226" y="515"/>
      <point x="121" y="327"/>
      <point x="99" y="223" type="curve" smooth="yes"/>
      <point x="72" y="95"/>
      <point x="133" y="8"/>
      <point x="239" y="8" type="curve" smooth="yes"/>
      <point x="294" y="8"/>
      <point x="365" y="39"/>
      <point x="414" y="66" type="curve"/>
      <point x="404" y="23" type="line"/>
      <point x="402" y="10"/>
      <point x="407" y="0"/>
      <point x="419" y="0" type="curve" smooth="yes"/>
      <point x="430" y="0"/>
      <point x="439" y="9"/>
      <point x="442" y="21" type="curve" smooth="yes"/>
    </contour>
    <contour>
      <point x="421" y="110" type="line"/>
      <point x="391" y="93"/>
      <point x="310" y="45"/>
      <point x="245" y="45" type="curve" smooth="yes"/>
      <point x="138" y="45"/>
      <point x="122" y="148"/>
      <point x="138" y="225" type="curve" smooth="yes"/>
      <point x="158" y="316"/>
      <point x="245" y="478"/>
      <point x="395" y="478" type="curve" smooth="yes"/>
      <point x="432" y="478"/>
      <point x="478" y="463"/>
      <point x="498" y="452" type="curve"/>
    </contour>
    <contour>
      <point x="563" y="692" type="line" smooth="yes"/>
      <point x="571" y="697"/>
      <point x="573" y="701"/>
      <point x="574" y="708" type="curve" smooth="yes"/>
      <point x="577" y="722"/>
      <point x="567" y="735"/>
      <point x="556" y="735" type="curve" smooth="yes"/>
      <point x="546" y="735"/>
      <point x="537" y="728"/>
      <point x="527" y="721" type="curve" smooth="yes"/>
      <point x="377" y="617" type="line" smooth="yes"/>
      <point x="370" y="612"/>
      <point x="369" y="607"/>
      <point x="368" y="604" type="curve" smooth="yes"/>
      <point x="366" y="595"/>
      <point x="372" y="587"/>
      <point x="381" y="587" type="curve" smooth="yes"/>
      <point x="385" y="587"/>
      <point x="391" y="589"/>
      <point x="399" y="594" type="curve" smooth="yes"/>
    </contour>
  </outline>
</glyph>
<glyph name="acircumflex" format="1">
  <advance width="495"/>
  <unicode hex="00E2"/>
  <outline>
    <contour>
      <point x="468" y="748" type="curve" smooth="yes"/>
      <point x="464" y="748"/>
      <point x="459" y="746"/>
      <point x="454" y="743" type="curve" smooth="yes"/>
      <point x="295" y="630" type="line" smooth="yes"/>
      <point x="291" y="627"/>
      <point x="287" y="622"/>
      <point x="286" y="617" type="curve" smooth="yes"/>
      <point x="284" y="608"/>
      <point x="290" y="599"/>
      <point x="300" y="599" type="curve" smooth="yes"/>
      <point x="304" y="599"/>
      <point x="308" y="601"/>
      <point x="312" y="603" type="curve" smooth="yes"/>
      <point x="456" y="699" type="line"/>
      <point x="541" y="604" type="line" smooth="yes"/>
      <point x="544" y="601"/>
      <point x="548" y="599"/>
      <point x="553" y="599" type="curve" smooth="yes"/>
      <point x="562" y="599"/>
      <point x="572" y="608"/>
      <point x="574" y="617" type="curve" smooth="yes"/>
      <point x="575" y="622"/>
      <point x="573" y="625"/>
      <point x="570" y="629" type="curve" smooth="yes"/>
      <point x="482" y="742" type="line" smooth="yes"/>
      <point x="479" y="746"/>
      <point x="473" y="748"/>
    </contour>
    <contour>
      <point x="539" y="476" type="line"/>
      <point x="516" y="489"/>
      <point x="461" y="515"/>
      <point x="400" y="515" type="curve" smooth="yes"/>
      <point x="226" y="515"/>
      <point x="121" y="327"/>
      <point x="99" y="223" type="curve" smooth="yes"/>
      <point x="72" y="95"/>
      <point x="133" y="8"/>
      <point x="239" y="8" type="curve" smooth="yes"/>
      <point x="294" y="8"/>
      <point x="365" y="39"/>
      <point x="414" y="66" type="curve"/>
      <point x="404" y="23" type="line"/>
      <point x="402" y="10"/>
      <point x="407" y="0"/>
      <point x="419" y="0" type="curve" smooth="yes"/>
      <point x="430" y="0"/>
      <point x="439" y="9"/>
      <point x="442" y="21" type="curve" smooth="yes"/>
    </contour>
    <contour>
      <point x="421" y="110" type="line"/>
      <point x="391" y="93"/>
      <point x="310" y="45"/>
      <point x="245" y="45" type="curve" smooth="yes"/>
      <point x="138" y="45"/>
      <point x="122" y="148"/>
      <point x="138" y="225" type="curve" smooth="yes"/>
      <point x="158" y="316"/>
      <point x="245" y="478"/>
      <point x="395" y="478" type="curve" smooth="yes"/>
      <point x="432" y="478"/>
      <point x="478" y="463"/>
      <point x="498" y="452" type="curve"/>
    </contour>
  </outline>
</glyph>
<glyph name="adieresis" format="1">
  <advance width="495"/>
  <unicode hex="00E4"/>
  <outline>
    <contour>
      <point x="378" y="636" type="curve" smooth="yes"/>
      <point x="381" y="652"/>
      <point x="366" y="666"/>
      <point x="348" y="666" type="curve" smooth="yes"/>
      <point x="324" y="666"/>
      <point x="301" y="649"/>
      <point x="297" y="630" type="curve" smooth="yes"/>
      <point x="294" y="613"/>
      <point x="308" y="600"/>
      <point x="327" y="600" type="curve" smooth="yes"/>
      <point x="351" y="600"/>
      <point x="373" y="616"/>
    </contour>
    <contour>
      <point x="544" y="636" type="curve" smooth="yes"/>
      <point x="547" y="652"/>
      <point x="532" y="666"/>
      <point x="513" y="666" type="curve" smooth="yes"/>
      <point x="489" y="666"/>
      <point x="467" y="649"/>
      <point x="463" y="630" type="curve" smooth="yes"/>
      <point x="460" y="613"/>
      <point x="473" y="600"/>
      <point x="493" y="600" type="curve" smooth="yes"/>
      <point x="517" y="600"/>
      <point x="539" y="616"/>
    </contour>
    <contour>
      <point x="539" y="476" type="line"/>
      <point x="516" y="489"/>
      <point x="461" y="515"/>
      <point x="400" y="515" type="curve" smooth="yes"/>
      <point x="226" y="515"/>
      <point x="121" y="327"/>
      <point x="99" y="223" type="curve" smooth="yes"/>
      <point x="72" y="95"/>
      <point x="133" y="8"/>
      <point x="239" y="8" type="curve" smooth="yes"/>
      <point x="294" y="8"/>
      <point x="365" y="39"/>
      <point x="414" y="66" type="curve"/>
      <point x="404" y="23" type="line"/>
      <point x="402" y="10"/>
      <point x="407" y="0"/>
      <point x="419" y="0" type="curve" smooth="yes"/>
      <point x="430" y="0"/>
      <point x="439" y="9"/>
      <point x="442" y="21" type="curve" smooth="yes"/>
    </contour>
    <contour>
      <point x="421" y="110" type="line"/>
      <point x="391" y="93"/>
      <point x="310" y="45"/>
      <point x="245" y="45" type="curve" smooth="yes"/>
      <point x="138" y="45"/>
      <point x="122" y="148"/>
      <point x="138" y="225" type="curve" smooth="yes"/>
      <point x="158" y="316"/>
      <point x="245" y="478"/>
      <point x="395" y="478" type="curve" smooth="yes"/>
      <point x="432" y="478"/>
      <point x="478" y="463"/>
      <point x="498" y="452" type="curve"/>
    </contour>
  </outline>
</glyph>
<glyph name="ae" format="1">
  <advance width="822"/>
  <unicode hex="00E6"/>
  <outline>
    <contour>
      <point x="783" y="95" type="curve" smooth="yes"/>
      <point x="745" y="60"/>
      <point x="687" y="33"/>
      <point x="638" y="33" type="curve" smooth="yes"/>
      <point x="550" y="33"/>
      <point x="488" y="65"/>
      <point x="462" y="147" type="curve"/>
      <point x="834" y="338" type="line" smooth="yes"/>
      <point x="848" y="345"/>
      <point x="854" y="352"/>
      <point x="856" y="358" type="curve"/>
      <point x="865" y="400"/>
      <point x="826" y="482"/>
      <point x="708" y="482" type="curve" smooth="yes"/>
      <point x="648" y="482"/>
      <point x="557" y="444"/>
      <point x="499" y="374" type="curve"/>
      <point x="518" y="462" type="line"/>
      <point x="493" y="475"/>
      <point x="432" y="498"/>
      <point x="378" y="498" type="curve" smooth="yes"/>
      <point x="259" y="498"/>
      <point x="129" y="379"/>
      <point x="94" y="213" type="curve" smooth="yes"/>
      <point x="67" y="85"/>
      <point x="128" y="8"/>
      <point x="230" y="8" type="curve" smooth="yes"/>
      <point x="282" y="8"/>
      <point x="351" y="38"/>
      <point x="397" y="64" type="curve"/>
      <point x="387" y="18" type="line" smooth="yes"/>
      <point x="385" y="9"/>
      <point x="392" y="0"/>
      <point x="403" y="0" type="curve" smooth="yes"/>
      <point x="412" y="0"/>
      <point x="422" y="9"/>
      <point x="424" y="18" type="curve" smooth="yes"/>
      <point x="443" y="104" type="line"/>
      <point x="485" y="34"/>
      <point x="547" y="0"/>
      <point x="624" y="0" type="curve" smooth="yes"/>
      <point x="684" y="0"/>
      <point x="757" y="32"/>
      <point x="799" y="72" type="curve" smooth="yes"/>
      <point x="804" y="77"/>
      <point x="805" y="79"/>
      <point x="807" y="85" type="curve"/>
      <point x="808" y="93"/>
      <point x="803" y="100"/>
      <point x="794" y="100" type="curve" smooth="yes"/>
      <point x="789" y="100"/>
      <point x="786" y="98"/>
    </contour>
    <contour>
      <point x="404" y="106" type="line"/>
      <point x="369" y="81"/>
      <point x="290" y="43"/>
      <point x="234" y="43" type="curve" smooth="yes"/>
      <point x="145" y="43"/>
      <point x="109" y="120"/>
      <point x="129" y="216" type="curve" smooth="yes"/>
      <point x="148" y="304"/>
      <point x="233" y="464"/>
      <point x="379" y="464" type="curve" smooth="yes"/>
      <point x="416" y="464"/>
      <point x="462" y="447"/>
      <point x="480" y="438" type="curve"/>
    </contour>
    <contour>
      <point x="701" y="448" type="curve" smooth="yes"/>
      <point x="773" y="448"/>
      <point x="807" y="424"/>
      <point x="824" y="362" type="curve"/>
      <point x="459" y="179" type="line"/>
      <point x="459" y="207"/>
      <point x="462" y="217"/>
      <point x="464" y="228" type="curve" smooth="yes"/>
      <point x="491" y="355"/>
      <point x="594" y="448"/>
    </contour>
  </outline>
</glyph>
<glyph name="edieresis" format="1">
  <advance width="511"/>
  <unicode hex="00EB"/>
  <outline>
    <contour>
      <point x="487" y="83" type="curve" smooth="yes"/>
      <point x="486" y="79"/>
      <point x="483" y="75"/>
      <point x="480" y="72" type="curve" smooth="yes"/>
      <point x="436" y="32"/>
      <point x="363" y="0"/>
      <point x="302" y="0" type="curve" smooth="yes"/>
      <point x="169.535" y="-1.42109e-14"/>
      <point x="97.7861" y="85.4524"/>
      <point x="97.7861" y="188.864" type="curve" smooth="yes"/>
      <point x="97.7861" y="204.895"/>
      <point x="99.5104" y="221.357"/>
      <point x="103" y="238" type="curve" smooth="yes"/>
      <point x="132" y="376"/>
      <point x="247" y="499"/>
      <point x="382" y="499" type="curve" smooth="yes"/>
      <point x="497.526" y="499"/>
      <point x="540.234" y="427.838"/>
      <point x="540.234" y="383.366" type="curve" smooth="yes"/>
      <point x="540.234" y="378.948"/>
      <point x="539.813" y="374.795"/>
      <point x="539" y="371" type="curve" smooth="yes"/>
      <point x="538" y="365"/>
      <point x="530" y="357"/>
      <point x="517" y="350" type="curve" smooth="yes"/>
      <point x="134" y="155" type="line"/>
      <point x="161" y="74"/>
      <point x="220" y="33"/>
      <point x="308" y="33" type="curve" smooth="yes"/>
      <point x="356" y="33"/>
      <point x="426" y="60"/>
      <point x="463" y="95" type="curve" smooth="yes"/>
      <point x="466" y="98"/>
      <point x="470" y="100"/>
      <point x="474" y="100" type="curve" smooth="yes"/>
      <point x="484" y="100"/>
      <point x="489" y="93"/>
    </contour>
    <contour>
      <point x="374" y="465" type="curve" smooth="yes"/>
      <point x="262" y="465"/>
      <point x="162" y="364"/>
      <point x="135" y="237" type="curve" smooth="yes"/>
      <point x="132" y="225"/>
      <point x="130" y="216"/>
      <point x="130" y="188" type="curve"/>
      <point x="506" y="373" type="line"/>
      <point x="495" y="432"/>
      <point x="456" y="465"/>
    </contour>
    <contour>
      <point x="384.384" y="640.097" type="curve" smooth="yes"/>
      <point x="384.384" y="616.883"/>
      <point x="355.977" y="600"/>
      <point x="333" y="600" type="curve" smooth="yes"/>
      <point x="314.927" y="600"/>
      <point x="302.57" y="610.615"/>
      <point x="302.57" y="625.205" type="curve" smooth="yes"/>
      <point x="302.57" y="626.761"/>
      <point x="302.711" y="628.362"/>
      <point x="303" y="630" type="curve" smooth="yes"/>
      <point x="307" y="649"/>
      <point x="330" y="666"/>
      <point x="354" y="666" type="curve" smooth="yes"/>
      <point x="370.444" y="666"/>
      <point x="384.384" y="654.316"/>
    </contour>
    <contour>
      <point x="550.384" y="640.086" type="curve" smooth="yes"/>
      <point x="550.384" y="616.881"/>
      <point x="521.97" y="600"/>
      <point x="499" y="600" type="curve" smooth="yes"/>
      <point x="480.818" y="600"/>
      <point x="467.595" y="610.744"/>
      <point x="467.595" y="625.47" type="curve" smooth="yes"/>
      <point x="467.595" y="626.942"/>
      <point x="467.727" y="628.455"/>
      <point x="468" y="630" type="curve" smooth="yes"/>
      <point x="472" y="649"/>
      <point x="495" y="666"/>
      <point x="519" y="666" type="curve" smooth="yes"/>
      <point x="536.362" y="666"/>
      <point x="550.384" y="654.31"/>
    </contour>
  </outline>
</glyph>
<glyph name="igrave" format="1">
  <advance width="184"/>
  <unicode hex="00EC"/>
  <outline>
    <contour>
      <point x="218" y="476" type="line" smooth="yes"/>
      <point x="220" y="487"/>
      <point x="212" y="496"/>
      <point x="202" y="496" type="curve" smooth="yes"/>
      <point x="192" y="496"/>
      <point x="180" y="487"/>
      <point x="178" y="476" type="curve" smooth="yes"/>
      <point x="75" y="20" type="line" smooth="yes"/>
      <point x="72" y="9"/>
      <point x="80" y="0"/>
      <point x="91" y="0" type="curve" smooth="yes"/>
      <point x="101" y="0"/>
      <point x="112" y="9"/>
      <point x="115" y="20" type="curve" smooth="yes"/>
    </contour>
    <contour>
      <point x="225" y="747" type="line" smooth="yes"/>
      <point x="221" y="755"/>
      <point x="215" y="758"/>
      <point x="207" y="758" type="curve" smooth="yes"/>
      <point x="193" y="758"/>
      <point x="177" y="747"/>
      <point x="174" y="733" type="curve" smooth="yes"/>
      <point x="173" y="726"/>
      <point x="175" y="720"/>
      <point x="178" y="714" type="curve"/>
      <point x="274" y="588" type="line"/>
      <point x="278" y="584"/>
      <point x="282" y="582"/>
      <point x="286" y="582" type="curve" smooth="yes"/>
      <point x="295" y="582"/>
      <point x="306" y="588"/>
      <point x="309" y="598" type="curve"/>
      <point x="309" y="602"/>
      <point x="308" y="606"/>
      <point x="305" y="611" type="curve" smooth="yes"/>
    </contour>
  </outline>
</glyph>
<glyph name="iacute" format="1">
  <advance width="184"/>
  <unicode hex="00ED"/>
  <outline>
    <contour>
      <point x="218" y="476" type="curve" smooth="yes"/>
      <point x="115" y="20" type="line" smooth="yes"/>
      <point x="112" y="9"/>
      <point x="101" y="0"/>
      <point x="91" y="0" type="curve" smooth="yes"/>
      <point x="80" y="0"/>
      <point x="72" y="9"/>
      <point x="75" y="20" type="curve" smooth="yes"/>
      <point x="178" y="476" type="line" smooth="yes"/>
      <point x="180" y="487"/>
      <point x="192" y="496"/>
      <point x="202" y="496" type="curve" smooth="yes"/>
      <point x="212" y="496"/>
      <point x="220" y="487"/>
    </contour>
    <contour>
      <point x="332" y="692" type="curve" smooth="yes"/>
      <point x="168" y="594" type="line" smooth="yes"/>
      <point x="160" y="589"/>
      <point x="154" y="587"/>
      <point x="150" y="587" type="curve" smooth="yes"/>
      <point x="141" y="587"/>
      <point x="135" y="595"/>
      <point x="137" y="604" type="curve" smooth="yes"/>
      <point x="138" y="607"/>
      <point x="139" y="612"/>
      <point x="146" y="617" type="curve" smooth="yes"/>
      <point x="296" y="721" type="line" smooth="yes"/>
      <point x="306" y="728"/>
      <point x="315" y="735"/>
      <point x="325" y="735" type="curve" smooth="yes"/>
      <point x="334.655" y="735"/>
      <point x="343.539" y="724.985"/>
      <point x="343.539" y="713.069" type="curve" smooth="yes"/>
      <point x="343.539" y="711.409"/>
      <point x="343.367" y="709.712"/>
      <point x="343" y="708" type="curve" smooth="yes"/>
      <point x="342" y="701"/>
      <point x="340" y="697"/>
    </contour>
  </outline>
</glyph>
<glyph name="idieresis" format="1">
  <advance width="248"/>
  <unicode hex="00EF"/>
  <outline>
    <contour>
      <point x="247" y="476" type="curve" smooth="yes"/>
      <point x="144" y="20" type="line" smooth="yes"/>
      <point x="141" y="9"/>
      <point x="131" y="0"/>
      <point x="120" y="0" type="curve" smooth="yes"/>
      <point x="110" y="0"/>
      <point x="102" y="9"/>
      <point x="105" y="20" type="curve" smooth="yes"/>
      <point x="208" y="476" type="line" smooth="yes"/>
      <point x="210" y="487"/>
      <point x="221" y="496"/>
      <point x="232" y="496" type="curve" smooth="yes"/>
      <point x="242" y="496"/>
      <point x="249" y="487"/>
    </contour>
    <contour>
      <point x="222.384" y="640.097" type="curve" smooth="yes"/>
      <point x="222.384" y="616.883"/>
      <point x="193.977" y="600"/>
      <point x="171" y="600" type="curve" smooth="yes"/>
      <point x="153.732" y="600"/>
      <point x="140.594" y="610.738"/>
      <point x="140.594" y="625.457" type="curve" smooth="yes"/>
      <point x="140.594" y="626.934"/>
      <point x="140.726" y="628.45"/>
      <point x="141" y="630" type="curve" smooth="yes"/>
      <point x="145" y="649"/>
      <point x="168" y="666"/>
      <point x="192" y="666" type="curve" smooth="yes"/>
      <point x="208.444" y="666"/>
      <point x="222.384" y="654.316"/>
    </contour>
    <contour>
      <point x="388.384" y="640.086" type="curve" smooth="yes"/>
      <point x="388.384" y="616.881"/>
      <point x="359.97" y="600"/>
      <point x="337" y="600" type="curve" smooth="yes"/>
      <point x="318.927" y="600"/>
      <point x="306.57" y="610.615"/>
      <point x="306.57" y="625.205" type="curve" smooth="yes"/>
      <point x="306.57" y="626.761"/>
      <point x="306.711" y="628.362"/>
      <point x="307" y="630" type="curve" smooth="yes"/>
      <point x="311" y="649"/>
      <point x="333" y="666"/>
      <point x="357" y="666" type="curve" smooth="yes"/>
      <point x="374.362" y="666"/>
      <point x="388.384" y="654.31"/>
    </contour>
  </outline>
</glyph>
<glyph name="eth" format="1">
  <advance width="472"/>
  <unicode hex="00F0"/>
  <outline>
    <contour>
      <point x="387" y="601" type="curve"/>
      <point x="423" y="619"/>
      <point x="480" y="645"/>
      <point x="518" y="662" type="curve" smooth="yes"/>
      <point x="520" y="663"/>
      <point x="523" y="665"/>
      <point x="523" y="668" type="curve"/>
      <point x="525" y="675"/>
      <point x="522" y="678"/>
      <point x="517" y="678" type="curve" smooth="yes"/>
      <point x="505" y="678"/>
      <point x="417" y="636"/>
      <point x="376" y="616" type="curve"/>
      <point x="344" y="658"/>
      <point x="332" y="669"/>
      <point x="330" y="670" type="curve" smooth="yes"/>
      <point x="326" y="673"/>
      <point x="324" y="674"/>
      <point x="319" y="674" type="curve" smooth="yes"/>
      <point x="312" y="674"/>
      <point x="302" y="667"/>
      <point x="300" y="658" type="curve" smooth="yes"/>
      <point x="299" y="651"/>
      <point x="306" y="645"/>
      <point x="316" y="634" type="curve"/>
      <point x="323" y="628"/>
      <point x="337" y="611"/>
      <point x="344" y="601" type="curve"/>
      <point x="283" y="568" type="line" smooth="yes"/>
      <point x="255" y="553"/>
      <point x="232" y="541"/>
      <point x="220" y="532" type="curve" smooth="yes"/>
      <point x="208" y="524"/>
      <point x="206" y="521"/>
      <point x="205" y="517" type="curve" smooth="yes"/>
      <point x="205" y="513"/>
      <point x="208" y="509"/>
      <point x="212" y="509" type="curve" smooth="yes"/>
      <point x="217" y="509"/>
      <point x="225" y="513"/>
      <point x="242" y="523" type="curve" smooth="yes"/>
      <point x="262" y="535"/>
      <point x="303" y="559"/>
      <point x="356" y="585" type="curve"/>
      <point x="382" y="545"/>
      <point x="414" y="495"/>
      <point x="437" y="435" type="curve"/>
      <point x="261" y="428"/>
      <point x="122" y="332"/>
      <point x="89" y="175" type="curve" smooth="yes"/>
      <point x="67" y="71"/>
      <point x="123" y="1"/>
      <point x="214" y="1" type="curve" smooth="yes"/>
      <point x="348" y="1"/>
      <point x="457" y="129"/>
      <point x="484" y="256" type="curve" smooth="yes"/>
      <point x="510" y="381"/>
      <point x="458" y="505"/>
    </contour>
    <contour>
      <point x="221" y="33" type="curve" smooth="yes"/>
      <point x="147" y="33"/>
      <point x="103" y="88"/>
      <point x="121" y="174" type="curve" smooth="yes"/>
      <point x="157" y="341"/>
      <point x="303" y="402"/>
      <point x="445" y="402" type="curve"/>
      <point x="457" y="355"/>
      <point x="461" y="305"/>
      <point x="452" y="259" type="curve"/>
      <point x="427" y="144"/>
      <point x="337" y="33"/>
    </contour>
  </outline>
</glyph>
<glyph name="ograve" format="1">
  <advance width="525"/>
  <unicode hex="00F2"/>
  <outline>
    <contour>
      <point x="252" y="0" type="curve" smooth="yes"/>
      <point x="378" y="0"/>
      <point x="510" y="123"/>
      <point x="541" y="271" type="curve" smooth="yes"/>
      <point x="567" y="395"/>
      <point x="503" y="500"/>
      <point x="390" y="500" type="curve" smooth="yes"/>
      <point x="264" y="500"/>
      <point x="131" y="376"/>
      <point x="100" y="229" type="curve" smooth="yes"/>
      <point x="73" y="103"/>
      <point x="138" y="0"/>
    </contour>
    <contour>
      <point x="379" y="471" type="curve" smooth="yes"/>
      <point x="472" y="471"/>
      <point x="524" y="375"/>
      <point x="501" y="266" type="curve" smooth="yes"/>
      <point x="474" y="140"/>
      <point x="358" y="29"/>
      <point x="258" y="29" type="curve" smooth="yes"/>
      <point x="161" y="29"/>
      <point x="116" y="123"/>
      <point x="139" y="231" type="curve" smooth="yes"/>
      <point x="166" y="358"/>
      <point x="277" y="471"/>
    </contour>
    <contour>
      <point x="419" y="747" type="line" smooth="yes"/>
      <point x="415" y="755"/>
      <point x="409" y="758"/>
      <point x="401" y="758" type="curve" smooth="yes"/>
      <point x="387" y="758"/>
      <point x="371" y="747"/>
      <point x="368" y="733" type="curve" smooth="yes"/>
      <point x="367" y="726"/>
      <point x="369" y="720"/>
      <point x="372" y="714" type="curve"/>
      <point x="468" y="588" type="line"/>
      <point x="472" y="584"/>
      <point x="476" y="582"/>
      <point x="480" y="582" type="curve" smooth="yes"/>
      <point x="489" y="582"/>
      <point x="500" y="588"/>
      <point x="503" y="598" type="curve"/>
      <point x="503" y="602"/>
      <point x="502" y="606"/>
      <point x="499" y="611" type="curve" smooth="yes"/>
    </contour>
  </outline>
</glyph>
<glyph name="oacute" format="1">
  <advance width="525"/>
  <unicode hex="00F3"/>
  <outline>
    <contour>
      <point x="252" y="0" type="curve" smooth="yes"/>
      <point x="378" y="0"/>
      <point x="510" y="123"/>
      <point x="541" y="271" type="curve" smooth="yes"/>
      <point x="567" y="395"/>
      <point x="503" y="500"/>
      <point x="390" y="500" type="curve" smooth="yes"/>
      <point x="264" y="500"/>
      <point x="131" y="376"/>
      <point x="100" y="229" type="curve" smooth="yes"/>
      <point x="73" y="103"/>
      <point x="138" y="0"/>
    </contour>
    <contour>
      <point x="379" y="471" type="curve" smooth="yes"/>
      <point x="472" y="471"/>
      <point x="524" y="375"/>
      <point x="501" y="266" type="curve" smooth="yes"/>
      <point x="474" y="140"/>
      <point x="358" y="29"/>
      <point x="258" y="29" type="curve" smooth="yes"/>
      <point x="161" y="29"/>
      <point x="116" y="123"/>
      <point x="139" y="231" type="curve" smooth="yes"/>
      <point x="166" y="358"/>
      <point x="277" y="471"/>
    </contour>
    <contour>
      <point x="533" y="692" type="line" smooth="yes"/>
      <point x="541" y="697"/>
      <point x="543" y="701"/>
      <point x="544" y="708" type="curve" smooth="yes"/>
      <point x="547" y="722"/>
      <point x="537" y="735"/>
      <point x="526" y="735" type="curve" smooth="yes"/>
      <point x="516" y="735"/>
      <point x="507" y="728"/>
      <point x="497" y="721" type="curve" smooth="yes"/>
      <point x="347" y="617" type="line" smooth="yes"/>
      <point x="340" y="612"/>
      <point x="339" y="607"/>
      <point x="338" y="604" type="curve" smooth="yes"/>
      <point x="336" y="595"/>
      <point x="342" y="587"/>
      <point x="351" y="587" type="curve" smooth="yes"/>
      <point x="355" y="587"/>
      <point x="361" y="589"/>
      <point x="369" y="594" type="curve" smooth="yes"/>
    </contour>
  </outline>
</glyph>
<glyph name="ocircumflex" format="1">
  <advance width="525"/>
  <unicode hex="00F4"/>
  <outline>
    <contour>
      <point x="252" y="0" type="curve" smooth="yes"/>
      <point x="155.345" y="-1.42109e-14"/>
      <point x="93.9137" y="74.0417"/>
      <point x="93.9137" y="173.367" type="curve" smooth="yes"/>
      <point x="93.9137" y="191.191"/>
      <point x="95.892" y="209.829"/>
      <point x="100" y="229" type="curve" smooth="yes"/>
      <point x="131" y="376"/>
      <point x="264" y="500"/>
      <point x="390" y="500" type="curve" smooth="yes"/>
      <point x="486.102" y="500"/>
      <point x="546.763" y="424.055"/>
      <point x="546.763" y="325.066" type="curve" smooth="yes"/>
      <point x="546.763" y="307.661"/>
      <point x="544.888" y="289.543"/>
      <point x="541" y="271" type="curve" smooth="yes"/>
      <point x="510" y="123"/>
      <point x="378" y="0"/>
    </contour>
    <contour>
      <point x="379" y="471" type="curve" smooth="yes"/>
      <point x="277" y="471"/>
      <point x="166" y="358"/>
      <point x="139" y="231" type="curve" smooth="yes"/>
      <point x="135.03" y="212.357"/>
      <point x="133.086" y="194.131"/>
      <point x="133.086" y="176.733" type="curve" smooth="yes"/>
      <point x="133.086" y="93.3479"/>
      <point x="177.744" y="29"/>
      <point x="258" y="29" type="curve" smooth="yes"/>
      <point x="358" y="29"/>
      <point x="474" y="140"/>
      <point x="501" y="266" type="curve" smooth="yes"/>
      <point x="504.659" y="283.338"/>
      <point x="506.419" y="300.348"/>
      <point x="506.419" y="316.695" type="curve" smooth="yes"/>
      <point x="506.419" y="403.112"/>
      <point x="457.207" y="471"/>
    </contour>
    <contour>
      <point x="476" y="748" type="curve" smooth="yes"/>
      <point x="481" y="748"/>
      <point x="487" y="746"/>
      <point x="490" y="742" type="curve" smooth="yes"/>
      <point x="578" y="629" type="line" smooth="yes"/>
      <point x="581" y="625"/>
      <point x="583" y="622"/>
      <point x="582" y="617" type="curve" smooth="yes"/>
      <point x="580" y="608"/>
      <point x="570" y="599"/>
      <point x="561" y="599" type="curve" smooth="yes"/>
      <point x="556" y="599"/>
      <point x="552" y="601"/>
      <point x="549" y="604" type="curve" smooth="yes"/>
      <point x="464" y="699" type="line"/>
      <point x="320" y="603" type="line" smooth="yes"/>
      <point x="316" y="601"/>
      <point x="312" y="599"/>
      <point x="308" y="599" type="curve" smooth="yes"/>
      <point x="298" y="599"/>
      <point x="292" y="608"/>
      <point x="294" y="617" type="curve" smooth="yes"/>
      <point x="295" y="622"/>
      <point x="299" y="627"/>
      <point x="303" y="630" type="curve" smooth="yes"/>
      <point x="462" y="743" type="line" smooth="yes"/>
      <point x="467" y="746"/>
      <point x="472" y="748"/>
    </contour>
  </outline>
</glyph>
<glyph name="odieresis" format="1">
  <advance width="525"/>
  <unicode hex="00F6"/>
  <outline>
    <contour>
      <point x="252" y="0" type="curve" smooth="yes"/>
      <point x="378" y="0"/>
      <point x="510" y="123"/>
      <point x="541" y="271" type="curve" smooth="yes"/>
      <point x="567" y="395"/>
      <point x="503" y="500"/>
      <point x="390" y="500" type="curve" smooth="yes"/>
      <point x="264" y="500"/>
      <point x="131" y="376"/>
      <point x="100" y="229" type="curve" smooth="yes"/>
      <point x="73" y="103"/>
      <point x="138" y="0"/>
    </contour>
    <contour>
      <point x="379" y="471" type="curve" smooth="yes"/>
      <point x="472" y="471"/>
      <point x="524" y="375"/>
      <point x="501" y="266" type="curve" smooth="yes"/>
      <point x="474" y="140"/>
      <point x="358" y="29"/>
      <point x="258" y="29" type="curve" smooth="yes"/>
      <point x="161" y="29"/>
      <point x="116" y="123"/>
      <point x="139" y="231" type="curve" smooth="yes"/>
      <point x="166" y="358"/>
      <point x="277" y="471"/>
    </contour>
    <contour>
      <point x="393" y="636" type="curve" smooth="yes"/>
      <point x="396" y="652"/>
      <point x="382" y="666"/>
      <point x="363" y="666" type="curve" smooth="yes"/>
      <point x="339" y="666"/>
      <point x="316" y="649"/>
      <point x="312" y="630" type="curve" smooth="yes"/>
      <point x="309" y="613"/>
      <point x="323" y="600"/>
      <point x="343" y="600" type="curve" smooth="yes"/>
      <point x="366" y="600"/>
      <point x="388" y="616"/>
    </contour>
    <contour>
      <point x="559" y="636" type="curve" smooth="yes"/>
      <point x="562" y="652"/>
      <point x="547" y="666"/>
      <point x="528" y="666" type="curve" smooth="yes"/>
      <point x="504" y="666"/>
      <point x="482" y="649"/>
      <point x="478" y="630" type="curve" smooth="yes"/>
      <point x="475" y="613"/>
      <point x="488" y="600"/>
      <point x="508" y="600" type="curve" smooth="yes"/>
      <point x="532" y="600"/>
      <point x="554" y="616"/>
    </contour>
  </outline>
</glyph>
<glyph name="divide" format="1">
  <advance width="423"/>
  <unicode hex="00F7"/>
  <outline>
    <contour>
      <point x="398" y="226" type="curve" smooth="yes"/>
      <point x="130" y="226" type="line" smooth="yes"/>
      <point x="121" y="226"/>
      <point x="113" y="233"/>
      <point x="115" y="243" type="curve" smooth="yes"/>
      <point x="117" y="252"/>
      <point x="128" y="259"/>
      <point x="137" y="259" type="curve" smooth="yes"/>
      <point x="405" y="259" type="line" smooth="yes"/>
      <point x="414" y="259"/>
      <point x="421" y="252"/>
      <point x="419" y="243" type="curve" smooth="yes"/>
      <point x="417" y="233"/>
      <point x="407" y="226"/>
    </contour>
    <contour>
      <point x="287" y="313" type="curve" smooth="yes"/>
      <point x="276" y="313"/>
      <point x="271" y="323"/>
      <point x="274" y="336" type="curve" smooth="yes"/>
      <point x="277" y="350"/>
      <point x="291" y="365"/>
      <point x="305" y="365" type="curve" smooth="yes"/>
      <point x="314" y="365"/>
      <point x="320" y="355"/>
      <point x="318" y="345" type="curve" smooth="yes"/>
      <point x="314" y="327"/>
      <point x="300" y="313"/>
    </contour>
    <contour>
      <point x="229" y="121" type="curve" smooth="yes"/>
      <point x="219" y="121"/>
      <point x="213" y="131"/>
      <point x="216" y="144" type="curve" smooth="yes"/>
      <point x="219" y="158"/>
      <point x="234" y="173"/>
      <point x="247" y="173" type="curve" smooth="yes"/>
      <point x="257" y="173"/>
      <point x="262" y="164"/>
      <point x="260" y="153" type="curve" smooth="yes"/>
      <point x="256" y="135"/>
      <point x="243" y="121"/>
    </contour>
  </outline>
</glyph>
